<svg width="301" height="39" viewBox="0 0 301 39" fill="none" xmlns="http://www.w3.org/2000/svg">
<path d="M20.6897 27.75C20.6897 26.4375 21.2539 26.25 22.5705 27C24.8276 28.3125 27.0846 29.4375 27.0846 29.4375C27.0846 28.6875 27.837 28.125 29.1536 28.5C30.4702 28.875 31.7868 29.0625 31.7868 29.0625C31.7868 29.0625 31.0345 27.375 30.6583 26.625C30.094 25.3125 30.6583 24.5625 31.2226 24.375C31.2226 24.375 30.4702 23.8125 29.906 23.4375C28.7774 22.6875 28.9655 21.75 30.094 21.375C31.5987 20.625 33.6677 19.875 33.6677 19.875C33.1034 19.5 32.3511 18.5625 33.1034 17.25C33.8558 16.125 35.1724 14.4375 35.1724 14.4375C35.1724 14.4375 33.1034 14.4375 31.5987 14.4375C30.2821 14.4375 29.906 13.3125 29.906 12.5625C29.906 12.5625 27.837 14.0625 26.3323 15C25.0157 15.9375 23.8871 15 24.0752 13.5C24.4514 11.25 24.6395 8.625 24.6395 8.625C23.8871 9.375 22.5705 9.1875 21.8182 8.0625C20.8777 6.1875 19.9373 3.9375 19.9373 3.9375C19.9373 3.9375 18.9969 6.1875 18.0564 8.0625C17.4922 9.1875 16.1755 9.375 15.4232 8.8125C15.4232 8.8125 15.6113 11.4375 15.9875 13.6875C16.1755 15 15.047 15.9375 13.7304 15C12.2257 14.0625 9.96865 12.5625 9.96865 12.5625C9.96865 13.3125 9.59248 14.25 8.27586 14.4375C6.77116 14.4375 4.70219 14.4375 4.70219 14.4375C4.70219 14.4375 6.01881 16.125 6.77116 17.25C7.52351 18.375 6.77116 19.5 6.2069 19.875C6.2069 19.875 8.08777 20.8125 9.78056 21.375C10.9091 21.9375 11.2853 22.6875 9.96865 23.4375C9.59248 23.8125 8.65204 24.375 8.65204 24.375C9.40439 24.5625 9.96865 25.3125 9.40439 26.625C9.02821 27.375 8.27586 29.0625 8.27586 29.0625C8.27586 29.0625 9.59248 28.6875 10.9091 28.5C12.2257 28.125 12.79 28.875 12.9781 29.4375C12.9781 29.4375 15.2351 28.125 17.4922 27C18.6207 26.25 19.373 26.625 19.373 27.75V30.9375C19.373 32.8125 18.9969 34.6875 18.4326 35.8125C9.96865 34.875 2.82132 28.125 2.82132 19.125C2.82132 9.9375 10.5329 2.4375 20.1254 2.4375C29.7179 2.4375 37.4295 9.9375 37.4295 19.125C37.4295 27.75 30.6583 34.875 22.0063 35.8125V38.0625C32.163 37.125 40.0627 29.0625 40.0627 19.125C40.0627 8.4375 31.0345 0 19.9373 0C9.02821 0 0 8.4375 0 18.9375C0 28.125 6.95925 35.8125 16.1755 37.5C17.6803 37.875 18.6207 38.0625 19.5611 39C20.5016 37.125 20.6897 33.375 20.6897 31.3125V27.75Z" fill="#F01428"/>
<path d="M101.379 29.0625V8.8125H111.348C116.615 8.8125 119.06 11.0625 119.248 13.875C119.248 15.1875 119.06 16.5 118.119 17.4375C117.179 18.375 116.803 18.75 115.11 19.6875L122.633 29.25H117.179L110.408 20.625H105.893V29.0625H101.379ZM105.893 18H107.962C113.417 18 114.546 17.0625 114.546 14.4375C114.546 11.8125 112.1 11.4375 108.527 11.4375H105.893V18Z" fill="#2E2A25"/>
<path d="M56.8027 29.0625L65.6429 8.8125H71.0974L79.9375 29.0625H74.483L72.0378 23.625H62.6335L60.1883 29.0625H56.8027ZM63.762 21H70.7212L67.1476 12.9375L63.762 21Z" fill="#2E2A25"/>
<path d="M90.8462 8.8125H86.144V29.0625H90.8462V8.8125Z" fill="#2E2A25"/>
<path d="M156.489 28.3125C154.232 29.25 151.411 29.625 148.025 29.625C144.075 29.625 140.878 28.6875 138.621 26.8125C136.364 24.9375 135.235 22.3125 135.235 18.9375C135.235 15.5625 136.364 12.75 138.621 11.0625C140.878 9.1875 144.075 8.25 148.401 8.25C151.035 8.25 153.668 8.4375 156.489 9V12.375C153.48 11.4375 150.659 11.0625 148.59 11.0625C145.956 11.0625 144.075 11.8125 142.571 13.125C141.254 14.4375 140.502 16.5 140.502 18.9375C140.502 21.375 141.254 23.25 142.759 24.75C144.264 26.0625 146.333 26.8125 148.966 26.8125C151.411 26.8125 154.044 26.25 156.489 25.3125V28.3125Z" fill="#2E2A25"/>
<path d="M162.32 29.0625L171.16 8.8125H176.614L185.455 29.0625H180L177.555 23.625H168.151L165.705 29.0625H162.32ZM169.467 21H176.426L173.041 12.9375L169.467 21Z" fill="#2E2A25"/>
<path d="M221.191 29.0625L230.032 8.8125H235.486L244.326 29.0625H238.872L236.427 23.625H227.022L224.577 29.0625H221.191ZM228.151 21H235.11L231.536 12.9375L228.151 21Z" fill="#2E2A25"/>
<path d="M287.398 12.9375L290.972 21H284.012L287.398 12.9375ZM285.893 8.8125L277.053 29.0625H280.439L282.884 23.625H292.288L294.733 29.0625H300.188L291.348 8.8125H285.893Z" fill="#2E2A25"/>
<path d="M192.226 29.0625V8.8125H197.68L210.47 23.25V8.8125H214.42V29.0625H209.342L196.175 13.875V29.0625H192.226Z" fill="#2E2A25"/>
<path d="M250.909 29.0625V8.8125H260.69C264.263 8.8125 266.897 9.75 268.778 11.25C270.658 12.9375 271.599 15.375 271.599 18.375C271.599 21.75 270.658 24.375 268.589 26.0625C266.52 27.9375 263.887 28.875 260.314 28.875H250.909V29.0625ZM255.611 26.25H259.185C261.63 26.25 263.511 25.6875 264.828 24.375C266.144 23.0625 266.709 21.375 266.709 18.75C266.709 16.875 266.144 15.1875 265.204 13.875C264.452 12.9375 263.699 12.375 262.759 12C261.818 11.625 260.502 11.4375 258.621 11.4375H255.799V26.25H255.611Z" fill="#2E2A25"/>
</svg>
