<svg width="300" height="48" viewBox="0 0 300 48" fill="none" xmlns="http://www.w3.org/2000/svg">
<path d="M291.346 11.5748C287.919 14.9952 280.496 17.9313 276.844 19.3059C271.854 21.1886 269.64 21.8547 266.848 22.7674C263.688 23.7971 257.367 25.7184 257.367 25.7184C270.462 29.6456 279.69 30.8297 279.69 30.8297C279.69 30.8297 283.99 29.4949 290.801 25.8367C294.489 23.954 296.304 22.6865 297.601 21.4749C298.08 21.0404 299.316 19.7479 299.623 18.0944C299.643 17.9736 299.703 17.6573 299.703 17.3461C299.703 17.3461 299.703 17.1269 299.683 16.9364C299.676 16.7173 299.637 16.5703 299.637 16.5703C299.637 16.5703 299.564 16.1781 299.467 15.9029C299.367 15.6278 298.945 14.7786 298.262 14.227C297.806 13.8547 297.018 12.927 294.161 11.9185C293.191 11.5798 291.619 11.2673 291.619 11.2673L291.346 11.5748Z" fill="url(#paint0_linear_13_961)"/>
<path d="M299.701 17.2589C299.701 17.2589 299.682 16.8928 299.592 16.5828C299.523 16.3064 299.4 16.0424 299.215 15.7647C298.992 15.4348 298.691 15.0475 298.246 14.6192C297.91 14.3005 297.542 14.0191 297.098 13.7202C295.312 12.5448 293.006 11.8824 290.965 11.6022C287.803 11.1801 284.175 11.2548 283.832 11.2424C282.665 11.2262 275.128 11.2885 273.19 11.3233C264.586 11.5014 254.052 11.525 251.292 11.525C222.806 11.6558 210.406 11.0394 196.606 8.26027C184.866 5.91816 178.353 3.69309 178.353 3.69309C188.708 3.33325 249.128 0.81557 260.15 0.521717C267.366 0.317514 272.49 0.273934 276.59 0.511756C278.692 0.630044 280.648 0.809345 283.106 1.22896C285.308 1.60748 287.309 2.24997 288.475 2.68453C290.929 3.59722 292.998 4.91707 294.021 6.26929C294.021 6.26929 294.324 6.58058 294.734 7.13342C295.194 7.77591 295.728 8.56658 295.909 8.86168C297.403 11.1353 298.112 12.5635 298.359 13.0615C298.625 13.5845 298.861 14.1274 299.09 14.6591C299.315 15.187 299.406 15.507 299.478 15.7299C299.636 16.2889 299.674 16.7982 299.682 16.9128L299.701 17.2589Z" fill="#CE210F"/>
<path d="M0 44.7478C0.657038 44.4104 0.950846 43.6097 0.950846 42.9249V26.1242C0.950846 25.4132 0.657038 24.6363 0 24.2789H7.97248C11.5279 24.2789 14.9966 25.7407 14.9966 29.7949C14.9966 31.9452 13.1308 33.6411 11.1188 34.0221C14.0172 33.996 16.8177 35.7741 16.8177 38.9865C16.8177 43.5774 12.0238 44.749 8.65183 44.749H0V44.7478ZM6.45385 26.042C6.08442 26.042 5.82781 26.042 5.14721 26.1242V33.2888H5.95426C8.39769 33.2888 10.7593 32.5305 10.7593 29.6866C10.7593 26.8651 8.87126 26.042 6.45385 26.042ZM6.96213 35.1328C6.37947 35.1328 5.85632 35.1328 5.14721 35.1863V42.7518C6.03112 42.9261 6.98692 42.9834 7.86834 42.9834C9.91384 42.9834 11.994 42.067 11.994 38.928C11.994 35.8301 9.5345 35.1328 6.96213 35.1328ZM24.7022 26.042C24.3377 26.042 24.0166 26.1018 23.6571 26.1528V33.2315C23.9906 33.2551 24.2931 33.29 24.6228 33.29C26.9163 33.29 28.6134 32.0187 28.6134 29.5135C28.6134 26.9535 26.9448 26.042 24.7022 26.042ZM34.978 44.8686C34.197 44.8686 33.3354 44.8972 32.5891 44.6756C31.2019 44.2647 29.2866 41.1244 28.5254 39.893C27.3415 37.8908 26.3125 35.1328 23.6583 35.1029V42.9249C23.6583 43.6097 23.967 44.439 24.6241 44.7478H18.5037C19.1471 44.4104 19.4533 43.6409 19.4533 42.9249V26.1242C19.4533 25.4132 19.1459 24.6363 18.5037 24.2789H25.8724C29.0783 24.2789 33.0899 25.5153 33.0899 29.384C33.0899 32.6301 30.4159 34.2936 27.4345 34.2936C31.6767 34.3185 34.1685 44.3132 38.852 44.3419C37.5962 44.7154 36.2871 44.8686 34.978 44.8686ZM39.1595 44.7478C39.6653 44.5149 40.1946 43.8438 40.1946 42.9249V26.1242C40.1946 25.1916 39.6653 24.5317 39.1595 24.2789H45.4311C44.8931 24.5317 44.4022 25.1916 44.4022 26.1242V42.9249C44.4022 43.8438 44.8931 44.5149 45.4311 44.7478H39.1595ZM52.7689 44.7478C53.4408 44.439 53.7693 43.6409 53.7693 42.9249V26.626H49.2655C48.2266 26.626 46.9882 26.7543 46.0956 27.2859L47.4952 24.2777H62.4335C63.6435 24.2777 64.8807 24.2515 66.0559 24C65.4869 25.5402 63.7935 26.682 62.8178 26.682C61.6314 26.6546 59.669 26.575 57.9781 26.575V42.9237C57.9781 43.6396 58.3314 44.4378 58.9909 44.7465H52.7689V44.7478ZM66.8022 44.7478C67.303 44.5149 67.8287 43.8438 67.8287 42.9249V26.1242C67.8287 25.1916 67.303 24.5317 66.8022 24.2789H73.0738C72.5408 24.5317 72.03 25.1916 72.03 26.1242V42.9249C72.03 43.8438 72.5408 44.5149 73.0738 44.7478H66.8022ZM85.2848 40.1171C85.2848 36.2186 76.1421 35.3383 76.1421 29.115C76.1421 25.2626 79.7905 24.0012 82.9988 24.0012C84.4307 24.0012 86.5022 24.2005 87.8113 24.8056L88.0394 28.6319C87.2349 26.9423 85.2204 25.7183 83.3497 25.7183C81.8707 25.7183 80.3211 26.4529 80.3211 28.1513C80.3211 32.1943 89.6188 33.1817 89.6188 39.0762C89.6188 43.3545 85.8972 45.1263 82.141 45.1263C80.176 45.1263 77.5033 44.7465 75.8458 43.6085C75.7454 42.9237 75.6995 42.2077 75.6995 41.5067C75.6995 40.6712 75.7726 39.8332 75.8954 39.0089C76.9293 41.3759 79.069 43.2275 81.7418 43.2275C83.7724 43.2287 85.2848 42.3397 85.2848 40.1171ZM104.872 44.7478C105.315 44.5473 105.788 43.8438 105.788 42.9249V35.3084C104.697 35.1851 103.174 35.1316 101.464 35.1316C99.7285 35.1316 98.1925 35.1851 97.0743 35.3084V42.9249C97.0743 43.8438 97.5355 44.5149 97.9843 44.7478H91.9457C92.3932 44.5473 92.8705 43.8438 92.8705 42.9249V26.1242C92.8705 25.1916 92.3932 24.5043 91.9457 24.2789H97.9843C97.5355 24.5055 97.0743 25.1916 97.0743 26.1242V33.0061C98.1925 33.1244 99.7012 33.1817 101.464 33.1817C103.174 33.1817 104.697 33.107 105.788 33.0061V26.1242C105.788 25.1916 105.316 24.5043 104.872 24.2789H110.902C110.451 24.5055 110.003 25.1916 110.003 26.1242V42.9249C110.003 43.8438 110.451 44.5149 110.902 44.7478H104.872Z" fill="#2E5C99"/>
<path d="M133.285 44.7478C133.479 44.5473 133.655 44.3979 133.655 44.0356C133.655 43.9136 133.61 43.7094 133.461 43.3283C133.461 43.3283 131.787 38.7537 131.591 38.2208C130.334 38.0651 129.024 38.0651 127.741 38.0651C126.523 38.0651 125.287 38.0938 124.081 38.2208C123.91 38.679 122.116 43.2287 122.116 43.2287C121.875 43.8438 121.792 44.0543 121.792 44.1887C121.792 44.4925 122.052 44.6407 122.273 44.7478H118.17C118.775 44.439 119.3 43.804 119.559 43.1715L126.3 25.6946C126.331 25.6224 126.342 25.5415 126.342 25.4431C126.342 24.9613 126.024 24.5043 125.595 24.2777H130.883L137.74 43.154C138.02 43.9123 138.618 44.4652 139.12 44.7466H133.285V44.7478ZM127.96 28.175L124.87 36.1439C125.791 36.246 126.747 36.2696 127.679 36.2696C128.747 36.2696 129.804 36.2696 130.843 36.1439L127.96 28.175ZM140.164 44.7478C140.67 44.515 141.193 43.8438 141.193 42.9249V26.1242C141.193 25.1916 140.67 24.5317 140.164 24.2789H146.432C145.899 24.5317 145.402 25.1916 145.402 26.1242V42.9249C145.402 43.8438 145.897 44.515 146.432 44.7478H140.164ZM155.96 26.042C155.622 26.042 155.297 26.1018 154.945 26.1529V33.2315C155.272 33.2551 155.571 33.29 155.889 33.29C158.188 33.29 159.881 32.0187 159.881 29.5135C159.88 26.9535 158.205 26.042 155.96 26.042ZM166.748 44.8686C165.967 44.8686 165.124 44.8972 164.36 44.6756C162.971 44.2647 161.06 41.1244 160.298 39.893C159.119 37.8908 157.584 35.1029 154.945 35.1029V42.9249C154.945 43.6097 155.24 44.439 155.889 44.7478H149.774C150.431 44.4104 150.737 43.6409 150.737 42.9249V26.1242C150.737 25.4132 150.431 24.6363 149.774 24.2789H157.159C160.356 24.2789 164.361 25.5153 164.361 29.384C164.361 32.6301 161.439 34.2936 159.228 34.2936C163.625 34.5476 166.277 44.3419 170.639 44.3419C169.375 44.7154 168.066 44.8686 166.748 44.8686ZM192.174 26.2774L185.98 44.7478C185.47 44.7478 184.969 44.571 184.685 44.3705C184.073 43.7778 183.109 41.3037 182.762 40.391L179.963 33.2888L175.932 44.7478H174.012L167.081 26.2313C166.784 25.4431 166.276 24.6873 165.519 24.2789H171.543C171.289 24.4769 171.114 24.7023 171.114 25.1331C171.114 25.3398 171.216 25.6249 171.289 25.8453L175.803 38.095L180.609 24.2789L185.902 37.5982L189.912 25.5415C190.011 25.214 190.069 25.0932 190.069 24.8865C190.069 24.6363 189.961 24.4769 189.71 24.2789H193.699C192.961 24.6674 192.428 25.5153 192.174 26.2774ZM199.577 28.175L196.488 36.1439C197.42 36.246 198.374 36.2696 199.304 36.2696C200.361 36.2696 201.43 36.2696 202.462 36.1439L199.577 28.175ZM204.896 44.7478C205.107 44.5473 205.266 44.3979 205.266 44.0356C205.266 43.9136 205.204 43.7094 205.082 43.3283C205.082 43.3283 203.419 38.7537 203.217 38.2208C201.949 38.0651 200.641 38.0651 199.358 38.0651C198.152 38.0651 196.915 38.0938 195.702 38.2208C195.527 38.679 193.746 43.2287 193.746 43.2287C193.489 43.8438 193.419 44.0543 193.419 44.1887C193.419 44.4925 193.668 44.6407 193.886 44.7478H189.783C190.389 44.439 190.912 43.804 191.166 43.1715L197.931 25.6946C197.951 25.6224 197.97 25.5415 197.97 25.4431C197.97 24.9613 197.65 24.5043 197.21 24.2777H202.503L209.357 43.154C209.641 43.9123 210.246 44.4652 210.745 44.7466H204.896V44.7478ZM223.311 26.428L218.484 34.9299V42.9249C218.484 43.5749 218.749 44.439 219.394 44.7478H213.388C214.001 44.4104 214.284 43.5537 214.284 42.9249V34.9037L210.088 28.1513C209.712 27.52 207.962 24.5778 205.828 24.5778C206.408 24.3561 208.172 24.0187 209.356 24.0187C211.331 24.0187 212.309 24.2005 213.518 26.1018L217.401 32.2827C217.727 31.6763 220.801 26.3073 220.801 26.3073C221.172 25.6536 221.426 25.1916 221.426 24.9625C221.426 24.6686 221.299 24.4769 221.002 24.2789H225.328C224.48 24.6873 223.774 25.6237 223.311 26.428ZM234.611 40.1171C234.611 36.2186 225.467 35.3383 225.467 29.115C225.467 25.2626 229.106 24.0013 232.315 24.0013C233.752 24.0013 235.811 24.2005 237.127 24.8056L237.355 28.6319C236.541 26.9423 234.536 25.7183 232.664 25.7183C231.182 25.7183 229.643 26.4529 229.643 28.1513C229.643 32.1943 238.94 33.1817 238.94 39.0762C238.94 43.3545 235.245 45.1263 231.461 45.1263C229.497 45.1263 226.819 44.7466 225.159 43.6085C225.051 42.9237 224.999 42.2077 224.999 41.5067C224.999 40.6712 225.078 39.8332 225.204 39.0089C226.237 41.376 228.384 43.2275 231.057 43.2275C233.096 43.2287 234.611 42.3397 234.611 40.1171Z" fill="#2E5C99"/>
<defs>
<linearGradient id="paint0_linear_13_961" x1="286.981" y1="7.42103" x2="271.587" y2="33.9668" gradientUnits="userSpaceOnUse">
<stop stop-color="#E6EBEF"/>
<stop offset="0.0764" stop-color="#BBCEE5"/>
<stop offset="0.1854" stop-color="#85A9D8"/>
<stop offset="0.2796" stop-color="#5D8FCF"/>
<stop offset="0.3543" stop-color="#457EC9"/>
<stop offset="0.4" stop-color="#3C78C7"/>
<stop offset="0.9" stop-color="#2E5C99"/>
</linearGradient>
</defs>
</svg>
