<svg width="300" height="43" viewBox="0 0 300 43" fill="none" xmlns="http://www.w3.org/2000/svg">
<path d="M129.864 38.6751C129.864 36.2365 129.855 25.9478 129.855 23.5088C129.855 21.0662 131.237 20.8894 131.237 20.8894L131.379 20.7547H123.981L124.117 20.8894C124.117 20.8894 125.502 21.0662 125.502 23.5088C125.502 25.9478 125.513 29.4614 125.513 29.4614H115.335V23.5088C115.335 21.0662 116.724 20.8982 116.724 20.8982L116.858 20.7569H109.466L109.609 20.8982C109.609 20.8982 110.99 21.0662 110.99 23.5088V38.6751C110.99 41.1194 109.609 41.329 109.609 41.329L109.466 41.4673H116.858L116.724 41.329C116.724 41.329 115.335 41.1194 115.335 38.6751V31.4923H125.513V38.6751C125.513 41.1194 124.133 41.329 124.133 41.329L123.99 41.4673H131.391L131.248 41.329C131.248 41.329 129.864 41.1194 129.864 38.6751ZM91.0352 20.7569C88.5946 20.7569 88.2528 20.5228 88.2528 20.5228L88.2419 24.6458L88.3853 24.5408C88.3853 24.5408 89.4983 22.7536 91.9306 22.7536H95.403V38.6751C95.403 41.1194 94.0278 41.329 94.0278 41.329L93.8844 41.4673H101.28L101.143 41.329C101.143 41.329 99.7568 41.1194 99.7568 38.6751L99.7751 22.7536H103.167C105.606 22.7536 106.777 24.5408 106.777 24.5408L106.92 24.6458L106.929 20.5228C106.929 20.5228 106.584 20.7569 104.143 20.7569H91.0352ZM139.99 33.5612L143.186 26.8408L146.099 33.5612H139.99ZM153.233 38.6646L144.131 19.7148L135.091 38.6646C133.738 41.2573 132.247 41.3124 132.247 41.3124L132.106 41.4563H138.29L138.155 41.3124C138.155 41.3124 136.424 40.9707 137.519 38.6646L139.141 35.3208H146.895L148.465 38.6646C149.567 40.9707 147.837 41.3124 147.837 41.3124L147.697 41.4563H156.218L156.074 41.3124C156.074 41.3124 154.503 41.3014 153.233 38.6646ZM167.834 20.7569L167.978 20.8982C167.978 20.8982 169.807 21.4114 168.429 23.5586C167.751 24.6016 165.718 27.5202 163.861 30.3394C161.999 27.5202 159.993 24.585 159.32 23.542C157.943 21.3917 159.778 20.8982 159.778 20.8982L159.916 20.7569H151.394L151.532 20.8982C151.532 20.8982 152.766 21.1025 154.383 23.542C155.061 24.5732 158.521 29.4119 160.384 32.2364V38.6751C160.384 41.1194 159.001 41.329 159.001 41.329L158.863 41.4673H166.258L166.114 41.329C166.114 41.329 164.738 41.1194 164.738 38.6751C164.738 37.6444 164.726 35.0561 164.726 32.2364C166.589 29.4119 170.055 24.5911 170.738 23.5586C172.342 21.1213 174.183 20.8982 174.183 20.8982L174.326 20.7569H167.834ZM59.0981 39.4976C54.6478 39.4976 51.5783 36.5786 51.5783 31.249C51.5783 25.9255 54.5634 22.4443 59.2611 22.4443C64.1354 22.4443 65.8899 26.2401 65.8899 26.2401L66.0053 26.3394V21.8581C66.0053 21.8581 63.0857 20.4292 58.9273 20.4292C51.4188 20.4292 46.7075 25.0593 46.7075 31.277C46.7075 36.2803 50.5977 41.8028 58.6218 41.8028C61.6498 41.8028 65.1794 40.6006 65.1794 40.6006L66.8015 35.0509L66.6232 35.1664C66.6232 35.1664 63.9921 39.4976 59.0981 39.4976ZM74.8283 33.5612L78.0219 26.8408L80.934 33.5612H74.8283ZM88.071 38.6646L78.9701 19.7148L69.9291 38.6646C68.577 41.2573 67.0808 41.3124 67.0808 41.3124L66.9453 41.4563H73.1367L72.9881 41.3124C72.9881 41.3124 71.258 40.9707 72.3597 38.6646L73.9796 35.3208H81.7307L83.3034 38.6646C84.3977 40.9707 82.6702 41.3124 82.6702 41.3124L82.5352 41.4563H91.0575L90.9115 41.3124C90.9115 41.3124 89.3388 41.3014 88.071 38.6646Z" fill="#005D63"/>
<path d="M203.141 33.5614L206.332 26.841L209.248 33.5614H203.141ZM216.378 38.6644L207.28 19.715L198.242 38.6644C196.887 41.2575 195.398 41.3126 195.398 41.3126L195.256 41.4561H201.438L201.307 41.3126C201.307 41.3126 199.57 40.9709 200.667 38.6644L202.298 35.3206H210.041L211.617 38.6644C212.713 40.9709 210.983 41.3126 210.983 41.3126L210.845 41.4561H219.365L219.222 41.3126C219.222 41.3126 217.651 41.3012 216.378 38.6644Z" fill="#005D63"/>
<path d="M276.819 20.8893L276.957 20.7546H269.562L269.699 20.8893C269.699 20.8893 271.082 21.0971 271.082 23.5366V38.703C271.082 41.1416 269.699 41.346 269.699 41.346L269.562 41.4895H276.957L276.819 41.346C276.819 41.346 275.435 41.1416 275.435 38.703V23.5366C275.435 21.0971 276.819 20.8893 276.819 20.8893Z" fill="#005D63"/>
<path d="M230.717 39.4976C226.269 39.4976 223.2 36.5786 223.2 31.2489C223.2 25.9259 226.181 22.4443 230.887 22.4443C235.753 22.4443 237.511 26.24 237.511 26.24L237.627 26.3393V21.858C237.627 21.858 234.706 20.4291 230.551 20.4291C223.04 20.4291 218.329 25.0592 218.329 31.2769C218.329 36.2802 222.219 41.8032 230.243 41.8032C233.274 41.8032 236.8 40.6005 236.8 40.6005L238.42 35.0508L238.245 35.1668C238.245 35.1668 235.611 39.4976 230.717 39.4976Z" fill="#005D63"/>
<path d="M252.335 20.7547L252.467 20.8982C252.467 20.8982 253.85 21.1025 253.85 23.542V38.7027C253.85 41.1418 252.467 41.3457 252.467 41.3457L252.335 41.4896H259.725L259.581 41.3457C259.581 41.3457 258.204 41.1418 258.204 38.7027V38.6975V31.3654H262.569C265.004 31.3654 265.208 32.4351 265.208 32.4351L265.351 32.5795V28.127L265.208 28.2705C265.208 28.2705 265.004 29.335 262.569 29.335H258.204V22.7095H263.45C265.891 22.7095 266.905 24.1108 266.905 24.1108L267.049 24.221V20.5207C267.049 20.5207 266.696 20.7547 264.255 20.7547H252.335Z" fill="#005D63"/>
<path d="M248.356 20.8893L248.494 20.7546H241.094L241.237 20.8893C241.237 20.8893 242.62 21.0971 242.62 23.5366V38.703C242.62 41.1416 241.237 41.346 241.237 41.346L241.094 41.4895H248.494L248.356 41.346C248.356 41.346 246.967 41.1416 246.967 38.703V23.5366C246.967 21.0971 248.356 20.8893 248.356 20.8893Z" fill="#005D63"/>
<path d="M298.966 35.1666C298.966 35.1666 296.344 39.4974 291.438 39.4974C286.997 39.4974 283.916 36.5784 283.916 31.2492C283.916 25.9257 286.904 22.4445 291.604 22.4445C296.481 22.4445 298.233 26.2403 298.233 26.2403L298.355 26.3392V21.8579C298.355 21.8579 295.423 20.4237 291.273 20.4237C283.768 20.4237 279.051 25.059 279.051 31.2768C279.051 36.2805 282.941 41.803 290.971 41.803C293.996 41.803 297.522 40.6008 297.522 40.6008L299.148 35.0507L298.966 35.1666Z" fill="#005D63"/>
<path d="M187.436 23.5365V22.7359H188.406C189.596 22.7359 190.83 22.7359 191.569 22.98C193.52 23.5589 194.507 25.0481 194.507 27.3927C194.507 29.3072 193.288 32.1544 189.927 32.1544C188.956 32.1544 187.943 31.7681 187.436 31.5362V23.5365ZM191.371 34.1407C195.933 34.1407 198.656 30.6809 198.656 27.3432C198.656 25.4952 197.973 22.207 193.36 21.0415C192.329 20.779 191.183 20.7628 189.679 20.7628L181.562 20.7549L181.699 20.8892C181.699 20.8892 183.082 21.097 183.082 23.5365V38.7029C183.082 41.1415 181.699 41.3458 181.699 41.3458L181.562 41.4893H188.951L188.813 41.3458C188.813 41.3458 187.436 41.1415 187.436 38.7029V33.4179C188.081 33.7049 189.381 34.1407 191.371 34.1407Z" fill="#005D63"/>
<path d="M12.7335 20.1063C12.5976 20.1243 12.4451 19.9265 12.38 19.8346C12.3603 19.8066 12.2856 19.6491 12.3053 19.6251C12.3332 19.6015 12.4884 19.6544 12.5303 19.6881C12.6313 19.769 12.7138 19.881 12.7615 20.0739C12.765 20.0954 12.7453 20.105 12.7335 20.1063ZM9.44161 18.2785C9.34853 18.3126 9.11954 18.0536 9.05662 17.9586C8.93863 17.7806 8.82282 17.5855 8.69741 17.414C8.58291 17.2582 8.45575 17.1488 8.42603 16.8806C8.42253 16.8491 8.40374 16.7686 8.42341 16.77C8.5497 16.78 8.66988 17.001 8.73237 17.0863C8.77738 17.148 8.83025 17.2096 8.87221 17.2744C8.93295 17.3685 8.95917 17.4826 9.02341 17.5701C9.10163 17.6782 9.1982 17.7788 9.28211 17.8869C9.32712 17.9455 9.38786 17.9967 9.41583 18.075C9.42894 18.1153 9.46783 18.2658 9.44161 18.2785ZM8.49857 18.2421C8.42822 18.2369 8.3985 18.1927 8.3548 18.1603C8.23812 18.0746 8.14329 17.9372 8.1398 17.7373C8.13805 17.7158 8.14592 17.7106 8.15859 17.7106C8.29624 17.7097 8.43783 17.9223 8.49071 18.0208C8.506 18.0514 8.54096 18.1306 8.53659 18.1875C8.53441 18.2246 8.51955 18.2413 8.49857 18.2421ZM5.36443 18.8774C5.36006 18.8918 5.34739 18.9111 5.3251 18.9124C5.17652 18.9093 5.13151 18.6845 5.06552 18.583C5.01265 18.499 4.96676 18.4066 4.91039 18.3213C4.87106 18.2623 4.82168 18.2001 4.7889 18.1328C4.74914 18.0457 4.73122 17.9547 4.68053 17.8777C4.65431 17.837 4.61148 17.8016 4.58264 17.7635C4.50311 17.6541 4.42707 17.5382 4.37594 17.4C4.36414 17.351 4.35016 17.302 4.33836 17.2525C4.30777 17.169 4.27019 17.0797 4.24178 16.9909C4.22824 16.9463 4.21993 16.8557 4.22824 16.8246C4.23348 16.8102 4.2396 16.8015 4.24965 16.8036C4.36414 16.8216 4.47427 17.0998 4.53064 17.2005C4.59094 17.309 4.68839 17.3973 4.74214 17.5098C4.78978 17.6108 4.80507 17.7395 4.8597 17.8388C4.90252 17.9144 4.97419 17.9757 5.02051 18.0479C5.08257 18.1424 5.12452 18.2653 5.17302 18.3699C5.22677 18.4876 5.30456 18.5786 5.35044 18.6923C5.37011 18.7413 5.37885 18.8249 5.36443 18.8774ZM4.78235 14.5995C4.75482 14.5488 4.72248 14.4871 4.70194 14.4315C4.67878 14.3685 4.67572 14.3099 4.64906 14.2504C4.56123 14.0544 4.4629 13.8383 4.37419 13.6458C4.33661 13.5648 4.28723 13.4135 4.32219 13.3106C4.32743 13.2958 4.35715 13.3067 4.36982 13.319C4.39998 13.3456 4.42052 13.3627 4.44586 13.392C4.46465 13.42 4.4699 13.4506 4.48869 13.4791C4.53195 13.546 4.58832 13.613 4.62241 13.6878C4.69582 13.8457 4.71461 14.0238 4.78716 14.1778C4.83523 14.2801 4.91432 14.3685 4.96501 14.4735C4.99036 14.5282 5.00653 14.5881 5.02357 14.6481C5.03581 14.6923 5.03319 14.7535 5.03581 14.7885C5.03843 14.841 5.03231 14.8747 5.01177 14.8756C4.87456 14.8681 4.83435 14.6993 4.78235 14.5995ZM34.569 27.8098C34.3946 27.1706 32.5247 27.445 30.986 27.3045C29.5859 27.1768 27.7911 26.9252 25.6319 26.1749C23.6139 25.4736 21.6587 24.6699 19.9558 23.7481C19.9558 23.7481 19.2662 23.385 19.1936 23.3438C19.0521 23.2576 18.9411 23.1955 18.8012 23.1084C18.7182 23.0586 18.591 22.9829 18.4966 22.9418C18.3778 22.8919 18.2974 22.8276 18.1942 22.7637C18.0893 22.6994 17.946 22.6307 17.8403 22.5655C17.6829 22.4688 17.5851 22.3931 17.4382 22.2864C17.346 22.2203 17.3006 22.2006 17.1778 22.1258C17.1052 22.0816 16.9711 22.0095 16.9055 21.9657C16.7687 21.8756 16.6818 21.7999 16.5454 21.705C16.4607 21.6463 16.3995 21.6096 16.2985 21.5479C16.1998 21.4866 16.1067 21.4088 16.0197 21.3453C15.9717 21.3095 15.9009 21.2683 15.8563 21.2237C15.7567 21.127 15.6575 21.0395 15.5535 20.9546C15.456 20.8833 15.3664 20.795 15.2712 20.7241C15.2113 20.6799 15.109 20.5924 15.0492 20.5495C14.8953 20.4384 14.7983 20.3553 14.6454 20.2437C14.5462 20.1706 14.4636 20.074 14.3653 20.0013C14.2543 19.9186 14.1538 19.825 14.0393 19.7441C13.9658 19.6916 13.8815 19.626 13.826 19.5682C13.7517 19.4807 13.6818 19.4212 13.6066 19.3333C13.5511 19.2703 13.4401 19.2033 13.379 19.1381C13.2841 19.0174 13.15 18.8901 13.0237 18.7947C12.9503 18.7251 12.9262 18.6932 12.8983 18.6565C12.8751 18.6245 12.8489 18.5895 12.7873 18.5261C12.7256 18.4635 12.7064 18.4451 12.6789 18.4202C12.6522 18.3961 12.6199 18.3655 12.5382 18.2846C12.5106 18.2575 12.4674 18.1971 12.4246 18.1385C12.3861 18.0851 12.3503 18.0352 12.3254 18.0081C12.2519 17.928 12.2008 17.8742 12.1479 17.8182C12.1095 17.7784 12.0702 17.7364 12.0208 17.6835C11.9919 17.6524 11.967 17.6148 11.943 17.5785C11.9203 17.5439 11.8962 17.508 11.8687 17.4778C11.8237 17.4284 11.7905 17.4455 11.7809 17.452C11.7538 17.4704 11.7433 17.5229 11.7752 17.5868C11.8128 17.6603 11.8704 17.7434 11.9054 17.7933C11.9133 17.8033 11.9194 17.8125 11.9242 17.8191C11.9391 17.8418 11.9526 17.8659 11.9653 17.8895C11.9858 17.925 12.0063 17.9621 12.0321 17.9967C12.0889 18.0737 12.1506 18.1371 12.2104 18.1993C12.2301 18.219 12.2506 18.2395 12.2694 18.2605C12.3101 18.3034 12.3411 18.348 12.3734 18.3957C12.4066 18.4434 12.4407 18.4933 12.4853 18.5405C12.5058 18.5611 12.5238 18.5851 12.5399 18.6083C12.5596 18.635 12.5788 18.6617 12.602 18.6845C12.6361 18.7173 12.6701 18.7531 12.7047 18.7877C12.7606 18.8463 12.8196 18.9067 12.876 18.9544C12.9188 18.9907 12.9638 19.0371 13.0084 19.0813C13.1238 19.2169 13.2474 19.3534 13.3497 19.4833C13.4087 19.5586 13.5153 19.6133 13.5817 19.6636C13.6551 19.7183 13.7133 19.815 13.7714 19.8889C13.816 19.9405 13.913 20.0293 13.9602 20.084C14.0751 20.2315 14.1538 20.3106 14.3032 20.4218C14.3945 20.4891 14.4653 20.5508 14.5353 20.6396C14.5763 20.693 14.7079 20.8199 14.7555 20.8794C14.88 21.0378 14.9364 21.1852 14.9185 21.1891C14.8333 21.2119 14.6266 21.0295 14.5055 20.9503C14.4037 20.8825 14.3884 20.8553 14.2936 20.7849C14.2722 20.7665 14.1214 20.6593 14.0685 20.5941C14.0275 20.557 13.9138 20.4349 13.8798 20.3916C13.708 20.1728 13.6495 20.1593 13.4524 19.9668C13.3086 19.8263 13.1312 19.7003 12.9905 19.5748C12.9494 19.5301 12.9074 19.4855 12.8668 19.44C12.8196 19.3941 12.7615 19.3508 12.7217 19.3053C12.6557 19.2226 12.5679 19.0607 12.4901 19.0025C12.4075 18.9408 12.3476 18.8826 12.2651 18.8205C12.2358 18.8004 12.2087 18.7619 12.1794 18.7391C12.1396 18.7098 12.0924 18.6757 12.0618 18.6376C11.9661 18.5151 11.8713 18.3913 11.7752 18.2675C11.7297 18.2089 11.6668 18.1599 11.6222 18.0991C11.5274 17.9691 11.4505 17.834 11.3552 17.7088C11.2228 17.5356 11.0323 17.4122 10.9042 17.2368C10.7731 17.0574 10.6945 16.847 10.5699 16.6588C10.5162 16.5775 10.4323 16.5197 10.3755 16.4427C10.3401 16.3963 10.3222 16.3447 10.2898 16.2953C10.2243 16.1946 10.1465 16.0966 10.0792 15.9991C9.99135 15.8705 9.93149 15.73 9.84452 15.5953C9.82967 15.576 9.79908 15.485 9.74533 15.4176C9.69245 15.3503 9.64656 15.2741 9.5867 15.1783C9.52595 15.083 9.49624 15.0195 9.45341 14.9539C9.41015 14.8878 9.38174 14.8257 9.35203 14.7793C9.32362 14.733 9.2607 14.6468 9.23841 14.6126C9.158 14.4884 9.13703 14.4306 9.05137 14.3165C9.00025 14.2465 8.94562 14.1887 8.89974 14.2062C8.86303 14.2316 8.8757 14.2749 8.884 14.306C8.92159 14.4079 8.92159 14.39 8.96092 14.4626C9.0269 14.5842 9.0505 14.6424 9.12217 14.7522C9.15538 14.806 9.21263 14.9272 9.25982 14.9937C9.30571 15.0615 9.35203 15.1394 9.38349 15.1954C9.4167 15.2545 9.46696 15.4093 9.51765 15.4736C9.55348 15.5205 9.60374 15.6158 9.63782 15.6832C9.70687 15.8206 9.79471 15.9286 9.86594 16.0376C9.91444 16.1268 9.9612 16.217 10.0093 16.3062C10.1037 16.4493 10.2164 16.5845 10.3112 16.7301C10.3694 16.833 10.4257 16.9362 10.483 17.0395C10.5385 17.1239 10.6158 17.1952 10.6713 17.2823C10.7382 17.3851 10.7762 17.4975 10.8431 17.5981C10.8959 17.6778 10.965 17.7535 11.0179 17.8331C11.1083 17.9691 11.1905 18.1004 11.2857 18.2303C11.3382 18.3008 11.4081 18.3616 11.4601 18.4325C11.5326 18.53 11.5899 18.646 11.6651 18.7282C11.7546 18.8118 11.78 18.8616 11.8495 18.9439C11.9543 19.0695 12.2139 19.4378 12.1702 19.44C12.0173 19.4601 11.7245 19.1268 11.5999 19.006C11.5038 18.9111 11.3976 18.8424 11.3303 18.7527C11.2329 18.6197 11.1612 18.4718 11.0624 18.3423C11.0275 18.296 10.9737 18.2588 10.9379 18.2141C10.8702 18.1266 10.8072 18.0343 10.7286 17.9582C10.6962 17.9267 10.6613 17.8991 10.6311 17.8641C10.5118 17.7097 10.4113 17.5456 10.2942 17.386C10.2457 17.3203 10.1814 17.2626 10.1338 17.197C10.0962 17.1462 10.0757 17.0902 10.0416 17.036C9.99441 16.9633 9.93411 16.892 9.88691 16.8207C9.85108 16.7669 9.82967 16.7135 9.79383 16.6593C9.7309 16.5635 9.64656 16.4799 9.58407 16.3828C9.53294 16.304 9.5194 16.1999 9.46783 16.122C9.33804 15.9212 9.19384 15.7169 9.06579 15.5165C9.03258 15.4649 9.01991 15.4067 8.98757 15.3551C8.88313 15.1923 8.78524 15.0125 8.68211 14.8506C8.64366 14.7903 8.62749 14.722 8.58903 14.663C8.54096 14.5895 8.46842 14.533 8.42079 14.4604C8.38495 14.4044 8.37053 14.3431 8.34125 14.2793C8.30192 14.1948 8.24992 14.1104 8.20578 14.0303C8.17825 13.9809 8.16383 13.9301 8.13412 13.8825C8.00914 13.6886 7.90688 13.48 7.80462 13.2647C7.75174 13.1527 7.67221 13.0473 7.61933 12.9344C7.55947 12.8097 7.50222 12.6815 7.44585 12.559C7.41613 12.4759 7.38642 12.3936 7.35714 12.311C7.29596 12.1801 7.20375 12.069 7.14388 11.9343C7.1028 11.8428 7.08139 11.7566 7.04381 11.6801C7.02109 11.6333 6.97564 11.5943 6.94243 11.6153C6.91009 11.6355 6.90484 11.6775 6.92538 11.7488C6.96559 11.8861 7.04162 12.0428 7.07658 12.1211C7.14738 12.2768 7.18234 12.4387 7.254 12.5975C7.29246 12.685 7.34971 12.769 7.38904 12.8535C7.45896 13.0013 7.52451 13.1545 7.5918 13.2962C7.63113 13.3798 7.66216 13.4598 7.70717 13.5381C7.73121 13.5797 7.76529 13.6261 7.78583 13.672C7.82997 13.7726 7.84439 13.879 7.88896 13.9743C7.93659 14.0745 8.0135 14.1585 8.05983 14.2565C8.29712 14.7623 8.53747 15.2457 8.82457 15.695C8.90454 15.8197 8.94562 15.9733 9.02603 16.098C9.10862 16.2266 9.22311 16.3272 9.30571 16.455C9.37432 16.5595 9.39048 16.7048 9.45254 16.8172C9.54474 16.9874 9.66754 17.1305 9.76936 17.2884C9.79733 17.3326 9.80519 17.3838 9.83404 17.4293C9.87249 17.4905 9.921 17.5505 9.9612 17.6108C10.0132 17.6935 10.0399 17.7893 10.0971 17.8659C10.1574 17.949 10.2448 18.0181 10.3051 18.1021C10.3812 18.2063 10.4323 18.327 10.5109 18.4316C10.5656 18.5046 10.6499 18.5545 10.7045 18.6271C10.7937 18.7431 11.0939 19.1399 11.1817 19.2523C11.3159 19.4221 11.5523 19.6723 11.6642 19.8963C11.6983 19.9659 11.8176 20.1291 11.7922 20.1615C11.728 20.2048 11.4295 19.8775 11.3788 19.8285C11.2534 19.7078 11.145 19.5437 11.0367 19.4059C11.0113 19.3757 10.7233 19.0931 10.6997 19.062C10.6713 19.0253 10.6407 18.985 10.6158 18.9478C10.5367 18.8288 10.4878 18.6849 10.4017 18.5711C10.3667 18.5252 10.3121 18.4898 10.2772 18.4434C10.2107 18.3568 10.1644 18.2557 10.1006 18.1669C9.99791 18.0273 9.86725 17.9026 9.76499 17.7635C9.65312 17.6104 9.57446 17.431 9.46128 17.2792C9.4049 17.2044 9.33324 17.137 9.27949 17.057C9.25633 17.0206 9.24627 16.9856 9.22311 16.9489C9.18204 16.8868 9.12741 16.8163 9.09507 16.7476C9.06492 16.6842 9.04569 16.6238 9.00898 16.5661C8.891 16.3815 8.77257 16.1855 8.65458 16.0013C8.6017 15.9186 8.57199 15.8285 8.51867 15.7458C8.43084 15.6093 8.31984 15.4868 8.23113 15.3485C8.12625 15.1862 8.06988 14.9889 7.96587 14.8253C7.89683 14.7181 7.81642 14.6161 7.74825 14.5085C7.67221 14.3917 7.63463 14.2552 7.56733 14.1327C7.50921 14.0251 7.42705 13.9253 7.37593 13.8164C7.31955 13.6996 7.28022 13.5823 7.22341 13.4611C7.19239 13.3964 7.14563 13.3325 7.11591 13.2656C7.07964 13.1825 7.07047 13.098 7.03376 13.018C6.93063 12.7922 6.77593 12.5774 6.67018 12.3525C6.59414 12.1915 6.52772 12.0253 6.46522 11.8555C6.43114 11.7619 6.41584 11.6744 6.37477 11.5869C6.28081 11.3804 6.16501 11.1616 6.0728 10.956C6.03435 10.8462 5.99502 10.7364 5.95481 10.6266C5.94738 10.596 5.94389 10.5649 5.93209 10.5325C5.88926 10.4358 5.83202 10.3405 5.79443 10.2442C5.75947 10.1318 5.72451 10.0206 5.68868 9.90908C5.54272 9.54464 5.41206 9.13383 5.27484 8.75495C5.25605 8.68539 5.25256 8.60008 5.22677 8.52614C5.15598 8.33233 5.08431 8.1372 5.01352 7.94251C4.97419 7.84408 4.87936 7.87777 4.90077 7.97752C4.93005 8.1127 4.94797 8.14464 4.96982 8.24964C4.98118 8.30389 4.99123 8.35727 5.00259 8.41064C5.01702 8.47495 5.05023 8.54364 5.06902 8.60533C5.10573 8.72127 5.10835 8.83633 5.14855 8.94745C5.20405 9.10495 5.25999 9.25545 5.31155 9.41733C5.32685 9.49739 5.34389 9.57833 5.36006 9.65883C5.38322 9.73364 5.41294 9.81108 5.44047 9.87976C5.52131 10.078 5.59735 10.2687 5.66814 10.4643C5.69611 10.5758 5.72539 10.6878 5.75336 10.7994C5.78176 10.862 5.82502 10.9263 5.85343 10.9871C5.8779 11.0409 5.88314 11.0916 5.90631 11.1485C5.95656 11.2745 6.00288 11.4036 6.05925 11.5305C6.10689 11.6359 6.16326 11.7413 6.20521 11.8533C6.224 11.9076 6.224 11.9544 6.24323 12.0073C6.36472 12.3403 6.49713 12.6894 6.63959 13.0013C6.67455 13.0805 6.6846 13.1623 6.72043 13.2424C6.75058 13.3089 6.79122 13.3798 6.82138 13.4441C6.8358 13.4865 6.85109 13.5294 6.86551 13.5714C6.91009 13.665 6.98525 13.742 7.02851 13.8339C7.15175 14.0929 7.261 14.3379 7.41438 14.5597C7.55684 14.764 7.61846 15.0344 7.72684 15.2781C7.77796 15.3931 7.84701 15.4929 7.91212 15.594C7.94359 15.6478 7.965 15.706 7.99122 15.762C8.06158 15.8888 8.09959 16.0004 8.18262 16.1119C8.24905 16.2043 8.24337 16.2248 8.29974 16.3543C8.31591 16.3928 8.37883 16.6348 8.36704 16.6348C8.34475 16.6501 8.22545 16.5775 8.18525 16.5328C8.13062 16.472 8.04453 16.3906 7.98641 16.2585C7.95713 16.1933 7.89683 16.0791 7.8658 16.0153C7.79064 15.8538 7.66347 15.7178 7.56995 15.5716C7.51533 15.4855 7.48518 15.3905 7.44017 15.296C7.36063 15.1271 7.27105 14.9539 7.18846 14.7785C7.15393 14.7063 7.10193 14.635 7.06129 14.5702C7.01759 14.5028 6.99705 14.4298 6.95248 14.3615C6.85809 14.2132 6.75189 14.0456 6.67629 13.8846C6.61992 13.7661 6.59152 13.6449 6.53602 13.529C6.51898 13.4918 6.48751 13.455 6.46522 13.4213C6.42677 13.361 6.41147 13.2936 6.37914 13.2266C6.33631 13.1361 6.27251 13.0508 6.22968 12.9576C6.14622 12.7743 6.09596 12.5831 6.00944 12.4006C5.96923 12.3158 5.90106 12.2436 5.86086 12.1583C5.79968 12.0283 5.79356 11.8665 5.73238 11.7291C5.57331 11.3699 5.38977 10.9989 5.25256 10.6213C5.23114 10.5588 5.22503 10.4875 5.20536 10.4201C5.1468 10.2569 5.0664 10.1042 5.00828 9.9432C4.98206 9.8697 4.97419 9.80233 4.94797 9.72839C4.90777 9.61901 4.85664 9.50395 4.81556 9.39326C4.80507 9.35564 4.80114 9.3167 4.78584 9.27952C4.73865 9.17583 4.70893 9.05245 4.65999 8.94351C4.63464 8.88752 4.59531 8.82933 4.57303 8.76895C4.53457 8.66133 4.54593 8.52483 4.50748 8.4207C4.45285 8.2667 4.38687 8.10264 4.33137 7.95083C4.29903 7.86377 4.29335 7.77758 4.26232 7.6892C4.22649 7.58727 4.18716 7.47483 4.15045 7.37377C4.11199 7.26745 4.11374 7.15676 4.07878 7.0452C4.05344 6.96164 4.01848 6.87458 3.99007 6.79714C3.9372 6.6497 3.91666 6.49264 3.86116 6.35439C3.85198 6.32945 3.84324 6.30276 3.83406 6.27826C3.81964 6.24064 3.79473 6.20389 3.75628 6.21439C3.71345 6.2262 3.71433 6.28176 3.71695 6.31764C3.72482 6.42658 3.76502 6.5272 3.79648 6.6147C3.83057 6.70745 3.84761 6.8072 3.87339 6.89645C3.88782 6.95245 3.88519 7.01633 3.89961 7.07758C3.91928 7.16377 3.95074 7.24733 3.97565 7.33264C3.99532 7.41795 3.98483 7.5002 4.00362 7.5667C4.05912 7.75133 4.12073 7.95958 4.18323 8.1372C4.20944 8.2282 4.21382 8.33276 4.24004 8.41195C4.27456 8.50558 4.30864 8.59964 4.34273 8.6937C4.37157 8.77245 4.37944 8.84814 4.41177 8.92208C4.44586 8.99995 4.48606 9.08264 4.51403 9.17058C4.54987 9.2852 4.54681 9.39808 4.5857 9.50483C4.64906 9.67983 4.72947 9.84651 4.79065 10.0158C4.81032 10.0762 4.81643 10.141 4.83785 10.2031C4.88985 10.3501 4.92656 10.5067 4.97943 10.6528C5.05547 10.8611 5.15336 11.0641 5.22765 11.2701C5.30194 11.4736 5.31155 11.7177 5.39677 11.9076C5.44047 12.0016 5.53092 12.0581 5.57244 12.1495C5.59997 12.2081 5.5921 12.276 5.61264 12.3442C5.63668 12.4221 5.67426 12.4991 5.70135 12.5717C5.7184 12.6373 5.73631 12.7021 5.7551 12.7668C5.78089 12.8443 5.83551 12.9208 5.8696 12.9952C5.9251 13.1164 5.95306 13.2437 6.02255 13.3509C6.07455 13.4318 6.14185 13.5088 6.18467 13.6003C6.23231 13.7018 6.24935 13.8098 6.29567 13.9157C6.36472 14.0693 6.44731 14.218 6.50543 14.3786C6.55918 14.5238 6.57797 14.6805 6.64789 14.8082C6.71694 14.9351 6.80433 15.0493 6.87425 15.1775C6.91752 15.2715 6.96122 15.3656 7.00492 15.4596C7.04162 15.5366 7.1098 15.604 7.15262 15.6819C7.20637 15.7777 7.25925 15.8801 7.30251 15.9772C7.3366 16.0516 7.34971 16.122 7.39122 16.1854C7.45459 16.2852 7.50047 16.3653 7.56471 16.4646C7.62108 16.5534 7.68488 16.665 7.72509 16.7704C7.7548 16.8496 7.78758 16.9327 7.83259 16.9988C7.88066 17.067 7.94533 17.1261 7.98729 17.2005C8.02793 17.274 8.08517 17.5128 8.06289 17.5246C8.01176 17.543 7.8658 17.403 7.82603 17.3536C7.71067 17.214 7.65342 17.0263 7.54854 16.8763C7.43754 16.7166 7.365 16.626 7.27891 16.4418C7.22822 16.3355 7.14039 16.1443 7.07833 16.0494C7.02021 15.9601 6.94243 15.881 6.89567 15.7803C6.85983 15.6981 6.84104 15.6001 6.80608 15.5187C6.75058 15.4001 6.63784 15.3236 6.58147 15.2024C6.51635 15.0663 6.48751 14.9259 6.42021 14.799C6.38788 14.7378 6.34243 14.6682 6.31359 14.6048C6.27426 14.5234 6.25634 14.4442 6.21788 14.3628C6.14097 14.1983 6.02386 14.057 5.94738 13.8925C5.86785 13.7228 5.82328 13.5403 5.74156 13.3688C5.69873 13.2774 5.62313 13.1995 5.57943 13.1063C5.52044 12.9834 5.49072 12.8552 5.4326 12.731C5.39764 12.6557 5.34564 12.5822 5.31068 12.5091C5.25999 12.4011 5.24207 12.2851 5.19269 12.1731C5.07994 11.922 4.96327 11.6591 4.85139 11.408C4.80944 11.3117 4.79852 11.2098 4.75482 11.1126C4.71156 11.0273 4.66873 10.9425 4.6259 10.8571C4.52714 10.6353 4.49306 10.3763 4.39386 10.1528C4.3436 10.0399 4.28024 9.93227 4.23523 9.81064C4.16531 9.61901 4.13778 9.42258 4.06786 9.22701C3.96123 8.9282 3.87514 8.61758 3.76808 8.32139C3.73661 8.23127 3.73224 8.14464 3.69991 8.05276C3.66757 7.9657 3.63523 7.87864 3.60333 7.79158C3.58148 7.72201 3.5675 7.62095 3.54783 7.52952C3.46873 7.27795 3.38745 7.02683 3.30748 6.77133C3.29044 6.71139 3.28607 6.60245 3.26553 6.5237C3.25286 6.48039 3.22882 6.4292 3.2144 6.38939C3.19299 6.33164 3.19386 6.2822 3.17507 6.22183C3.11608 6.0372 3.06582 5.82283 3.0077 5.63864C2.99066 5.57958 2.98542 5.49689 2.96662 5.43039C2.88403 5.16745 2.84383 4.84589 2.73895 4.60045C2.71928 4.55408 2.68957 4.50377 2.64325 4.5147C2.59649 4.52652 2.60654 4.58033 2.61178 4.62452C2.62533 4.74527 2.6699 4.84808 2.68957 4.94695C2.69787 4.99158 2.697 5.0537 2.70137 5.10708C2.70749 5.15214 2.71229 5.2077 2.72715 5.25495C2.77566 5.4107 2.83203 5.59577 2.87791 5.75108C2.89321 5.82545 2.88054 5.94008 2.9002 6.02539C2.9675 6.27564 3.01732 6.5727 3.10777 6.79714C3.19037 7.00145 3.20566 7.24558 3.26466 7.46695C3.28345 7.56189 3.28957 7.65945 3.30136 7.75483C3.31579 7.84802 3.36779 7.91233 3.39619 7.99064C3.41761 8.04795 3.41586 8.09783 3.4364 8.15776C3.48578 8.31701 3.52161 8.47408 3.57973 8.6342C3.61906 8.74401 3.67849 8.84858 3.71782 8.95664C3.73487 9.00564 3.72831 9.04939 3.74273 9.10408C3.76895 9.21345 3.78862 9.32414 3.82052 9.4322C3.89787 9.64964 3.97303 9.88633 4.05082 10.1033C4.09408 10.2241 4.10806 10.3422 4.15045 10.459C4.32219 10.9276 4.49612 11.3966 4.66698 11.8612C4.69495 11.9645 4.72335 12.0673 4.75132 12.1696C4.7889 12.276 4.85139 12.3643 4.89509 12.4588C4.95016 12.5796 4.96807 12.7069 5.01439 12.8346C5.06902 12.9847 5.13894 13.1006 5.19618 13.2577C5.22328 13.3321 5.24994 13.4135 5.28402 13.4856C5.31068 13.5403 5.35744 13.592 5.38409 13.6471C5.42823 13.7398 5.43784 13.8562 5.48023 13.9494C5.52568 14.0421 5.60434 14.1183 5.65809 14.2045C5.70747 14.2854 5.71272 14.3886 5.75336 14.4801C5.8176 14.6231 5.90106 14.7526 5.96268 14.9031C5.98802 14.9666 6.00026 15.023 6.02823 15.0838C6.06057 15.1538 6.113 15.2203 6.14534 15.2908C6.14622 15.2908 6.14796 15.2925 6.14971 15.2995C6.15365 15.3091 6.15802 15.3223 6.16064 15.3376C6.1685 15.3673 6.17768 15.4036 6.18729 15.4299C6.20172 15.4697 6.24673 15.5445 6.26552 15.5703C6.27688 15.5852 6.30922 15.6215 6.33631 15.6552C6.34855 15.6679 6.36035 15.6823 6.37127 15.6994C6.43289 15.7961 6.43988 15.9339 6.49013 16.0415C6.54039 16.1465 6.62997 16.2292 6.68023 16.3373C6.72043 16.42 6.74184 16.6243 6.69159 16.6321C6.47965 16.6317 6.46522 16.336 6.39531 16.1806C6.33893 16.0603 6.25197 15.9601 6.18861 15.8446C6.17593 15.8215 6.15539 15.776 6.14185 15.7278C6.1283 15.6876 6.11126 15.6438 6.09509 15.6101C6.06756 15.5524 6.06756 15.562 6.04877 15.5218C6.0291 15.482 5.97098 15.4071 5.95132 15.3721C5.95088 15.3691 5.95001 15.3673 5.94913 15.3647C5.86872 15.2348 5.8141 15.0488 5.75685 14.9618C5.72451 14.9128 5.68256 14.8633 5.6511 14.8135C5.59735 14.7308 5.57157 14.6301 5.5283 14.5383C5.4881 14.4543 5.42473 14.3707 5.38584 14.2823C5.33865 14.1786 5.33602 14.047 5.28664 13.9411C5.26173 13.8842 5.2141 13.8265 5.18744 13.7726C5.12801 13.6519 5.09393 13.5224 5.03406 13.4034C5.00653 13.347 4.95627 13.2931 4.92831 13.2354C4.88111 13.1348 4.85664 13.0267 4.8042 12.9331C4.69276 12.7345 4.5739 12.5126 4.48082 12.3018C4.42707 12.178 4.40915 12.0528 4.3554 11.9325C4.30864 11.8271 4.2444 11.7238 4.19765 11.6236C4.16618 11.5563 4.15744 11.4898 4.13035 11.4158C4.08752 11.2986 4.03377 11.177 3.99007 11.0601C3.96473 10.9792 3.94419 10.802 3.91928 10.7316C3.88694 10.6432 3.84062 10.5478 3.8026 10.4625C3.74535 10.3321 3.72656 10.1965 3.66844 10.067C3.62474 9.96727 3.57536 9.86139 3.53778 9.75858C3.50632 9.67108 3.49758 9.59101 3.46174 9.51008C3.43552 9.44883 3.39882 9.37839 3.37565 9.31495C3.34812 9.23883 3.3289 9.11414 3.30486 9.01352C3.26728 8.90152 3.22008 8.79477 3.186 8.68451C3.16633 8.60358 3.16327 8.4137 3.14273 8.36295C3.02737 8.02127 2.91899 7.65814 2.81149 7.31689C2.76211 7.15895 2.73895 7.00145 2.69438 6.84701C2.67908 6.7862 2.67733 6.70789 2.66116 6.64576C2.63057 6.54733 2.58862 6.44583 2.55716 6.34433C2.54012 6.27652 2.52963 6.20564 2.51608 6.13608C2.49991 6.06564 2.46233 5.99302 2.43611 5.9217C2.37012 5.71652 2.33429 5.4982 2.27355 5.29826C2.25257 5.21514 2.25345 5.10664 2.23116 5.03008C2.15337 4.78201 2.13458 4.49327 2.06117 4.23252C2.04412 4.15683 2.03232 4.0807 2.01528 4.01158C1.88724 3.52464 1.83087 2.9782 1.68928 2.50964C1.66175 2.42039 1.69671 2.30533 1.67224 2.20864C1.64383 2.0997 1.61412 2.00345 1.58134 1.90633C1.56867 1.85689 1.5678 1.81752 1.55687 1.77245C1.53284 1.69327 1.49788 1.63114 1.45418 1.63989C1.40305 1.65695 1.41441 1.70377 1.41616 1.77158C1.42009 1.8792 1.43058 1.9702 1.45287 2.05902C1.47166 2.13252 1.45942 2.1942 1.47996 2.26027C1.52541 2.41252 1.53896 2.62602 1.5643 2.76295C1.57392 2.82027 1.56692 2.89683 1.57828 2.96377C1.59183 3.03289 1.64558 3.12389 1.66 3.1987C1.6753 3.3002 1.67355 3.43189 1.69059 3.54039C1.71026 3.6327 1.73691 3.72064 1.76095 3.80814C1.78149 3.88251 1.76576 3.95426 1.78804 4.02295C1.8112 4.09514 1.84879 4.1647 1.86321 4.24433C1.87501 4.33008 1.86233 4.45652 1.87938 4.53176C1.9895 4.96008 2.02184 5.46801 2.14726 5.87883C2.16299 5.93745 2.16517 6.00089 2.18003 6.06039C2.28404 6.42001 2.36357 6.80458 2.47194 7.15983C2.48462 7.21626 2.48287 7.27358 2.49729 7.33439C2.53225 7.46039 2.56459 7.59514 2.59124 7.72289C2.60392 7.77933 2.60304 7.83402 2.6179 7.89045C2.65548 8.02214 2.70224 8.14989 2.74419 8.27939C2.76036 8.34239 2.76692 8.40495 2.77828 8.46708C2.78833 8.51695 2.81586 8.57383 2.83028 8.62151C2.85257 8.69589 2.84558 8.76764 2.87049 8.83633C2.88578 8.87614 2.91724 8.92076 2.92861 8.96364C2.94478 9.03977 2.95483 9.11677 2.97624 9.19158C3.00595 9.28214 3.0549 9.37051 3.09248 9.4602C3.11957 9.53458 3.1187 9.61026 3.1471 9.68158C3.19823 9.80801 3.25286 9.9572 3.30136 10.0906C3.34244 10.2013 3.34725 10.3133 3.38658 10.4262C3.41324 10.4997 3.4482 10.5767 3.47485 10.6476C3.49015 10.7058 3.5002 10.7622 3.52074 10.8221C3.53865 10.876 3.59678 10.9608 3.63523 11.0308C3.66669 11.1083 3.65227 11.2146 3.67762 11.2981C3.7034 11.3848 3.75104 11.4539 3.78031 11.5331C3.80741 11.6131 3.80653 11.6985 3.82795 11.7811C3.85111 11.8437 3.89437 11.9054 3.92103 11.9631C3.94594 12.0323 3.97041 12.1014 3.99619 12.1705C4.01586 12.2151 4.05344 12.2611 4.07398 12.3053C4.112 12.3853 4.14215 12.4715 4.17623 12.5533C4.22299 12.6706 4.22736 12.815 4.2632 12.9493C4.27281 12.9869 4.27194 13.0792 4.2479 13.0897C4.19415 13.0993 4.13341 13.0145 4.0967 12.9611C4.03377 12.8723 3.97303 12.773 3.92627 12.6653C3.91098 12.6238 3.90049 12.5848 3.88782 12.5446C3.85198 12.4553 3.82532 12.3543 3.78425 12.2628C3.76065 12.2081 3.72482 12.1473 3.70515 12.0883C3.67587 12.0025 3.68986 11.9019 3.65577 11.8271C3.62736 11.7645 3.57711 11.7151 3.54871 11.6521C3.52773 11.5952 3.51812 11.5348 3.49321 11.4784C3.46262 11.4093 3.42067 11.3476 3.38265 11.2828C3.35424 11.2198 3.35774 11.156 3.33545 11.0811C3.31098 10.9936 3.28432 10.907 3.24674 10.8265C3.20916 10.7456 3.16153 10.662 3.12569 10.578C3.10865 10.5316 3.09991 10.484 3.08636 10.4371C3.06408 10.3741 3.03174 10.3055 3.00595 10.2425C2.99153 10.1961 2.98061 10.1462 2.96094 10.102C2.92992 10.0329 2.89408 9.95589 2.86612 9.87976C2.8447 9.81764 2.84121 9.75245 2.81979 9.69208C2.78178 9.58445 2.74419 9.46283 2.70836 9.35695C2.68432 9.2747 2.67558 9.19158 2.65286 9.10845C2.62183 9.0122 2.57857 8.91683 2.54274 8.8197C2.51608 8.74183 2.50996 8.65827 2.48724 8.57908C2.45053 8.47539 2.39853 8.37914 2.36357 8.26977C2.34303 8.18445 2.33953 8.09783 2.32074 8.01514C2.26 7.81345 2.1962 7.59077 2.13196 7.3847C2.05942 7.15414 2.05374 6.89383 1.986 6.66108C1.93924 6.49483 1.88025 6.33426 1.82912 6.17108C1.81033 6.0862 1.80771 6.00658 1.7863 5.92301C1.74128 5.7397 1.67268 5.49777 1.61237 5.30614C1.58091 5.20464 1.59008 5.10139 1.56124 4.99158C1.53109 4.88308 1.52934 4.75226 1.49438 4.63633C1.47209 4.56414 1.445 4.51251 1.42796 4.42151C1.41004 4.33008 1.41179 4.22201 1.39824 4.15333C1.38426 4.08552 1.26583 3.67864 1.25229 3.60339C1.2383 3.52814 1.23918 3.3912 1.23 3.34264C1.22388 3.30895 1.16226 3.13352 1.15483 3.08845C1.14609 3.04208 1.14609 2.99002 1.12818 2.90033C1.10939 2.8102 1.05738 2.60939 1.04908 2.55164C1.03947 2.49345 1.03947 2.37577 1.02767 2.31714C1.01587 2.25895 0.97654 2.12508 0.949883 2.02927C0.919293 1.91377 0.943765 1.78952 0.911427 1.68058C0.887829 1.60008 0.859425 1.52002 0.830583 1.44345C0.811792 1.37564 0.788631 1.28508 0.784261 1.24395C0.779454 1.18314 0.775084 1.05408 0.772462 1.0077C0.770714 0.940765 0.742746 0.83139 0.735754 0.736015C0.727888 0.60564 0.699921 0.466078 0.679382 0.38689C0.667583 0.339203 0.671516 0.282328 0.661465 0.239453C0.629127 0.109953 0.597663 -0.00773459 0.532551 0.000162426C0.485792 0.00889041 0.468749 0.0456404 0.488851 0.130953C0.512012 0.230265 0.5225 0.30814 0.546972 0.40614C0.560081 0.459078 0.562266 0.58989 0.564014 0.633203C0.56751 0.70364 0.571006 0.719828 0.579746 0.786765C0.583679 0.81389 0.595041 0.87864 0.603344 0.90664C0.614706 0.953453 0.629127 1.01733 0.627379 1.05102C0.625631 1.09608 0.624757 1.1442 0.624757 1.20895C0.624757 1.2422 0.627379 1.25358 0.640052 1.31089C0.652725 1.3682 0.659717 1.37914 0.664087 1.4277C0.666709 1.46752 0.661465 1.50689 0.664961 1.54277C0.665835 1.58739 0.670642 1.63114 0.683752 1.67183C0.709971 1.7567 0.76547 1.87395 0.742746 1.99995C0.717837 2.13339 0.758915 2.25983 0.788631 2.37577C0.803052 2.45014 0.787757 2.53239 0.802178 2.60327C0.829709 2.70258 0.853307 2.80845 0.880837 2.9117C0.90225 2.99614 0.886955 3.07227 0.908805 3.15277C0.940706 3.26564 1.01718 3.41745 1.02767 3.4682C1.03597 3.51895 1.03466 3.65501 1.04996 3.74295C1.06525 3.82958 1.08579 3.92845 1.09147 3.98358C1.09846 4.0387 1.08929 4.06364 1.09497 4.10433C1.10196 4.14501 1.15746 4.34189 1.16576 4.39264C1.17537 4.44339 1.17275 4.46964 1.18368 4.52302C1.19416 4.57639 1.2383 4.78683 1.24792 4.85508C1.25884 4.92289 1.25534 4.96314 1.26758 5.03052C1.28812 5.13552 1.32963 5.22389 1.35192 5.32451C1.36634 5.39845 1.36153 5.44483 1.37071 5.5052C1.39212 5.59927 1.42359 5.68414 1.44063 5.77339C1.45418 5.84164 1.45505 5.91164 1.46904 5.98164C1.5005 6.13301 1.52279 6.28658 1.56343 6.43708C1.58921 6.52589 1.64121 6.60726 1.667 6.69214C1.68928 6.77133 1.69496 6.8562 1.7155 6.93364C1.73604 7.00145 1.78367 7.0627 1.80159 7.13445C1.81295 7.19702 1.8112 7.25958 1.82126 7.32214C1.83742 7.39301 1.86933 7.46433 1.88287 7.53695C1.8938 7.59251 1.88899 7.64676 1.90254 7.70408C1.92308 7.76751 1.95367 7.82395 1.96896 7.8852C1.98426 7.96308 1.98338 8.04139 2.00305 8.1197C2.02621 8.20983 2.06379 8.29776 2.09263 8.38133C2.11841 8.45964 2.10487 8.54451 2.12846 8.62939C2.17916 8.8127 2.23946 9.01527 2.30108 9.18589C2.32773 9.27952 2.32337 9.37401 2.35745 9.47464C2.38149 9.54158 2.4112 9.58664 2.43698 9.6422C2.45883 9.70258 2.43917 9.7682 2.45709 9.83645C2.48637 9.9467 2.50428 10.0963 2.54361 10.2053C2.58687 10.3282 2.65854 10.4288 2.70224 10.5478C2.74507 10.6738 2.74725 10.7994 2.7892 10.9298C2.82941 11.0405 2.88578 11.1433 2.92773 11.2452C2.96357 11.3349 2.95046 11.453 2.98454 11.5471C3.02212 11.6508 3.09554 11.73 3.13487 11.8358C3.17944 11.9575 3.20916 12.0765 3.24674 12.1981C3.25854 12.2497 3.26903 12.3009 3.27908 12.3525C3.32365 12.5096 3.40799 12.6391 3.46174 12.7891C3.48316 12.8596 3.48927 12.9182 3.50894 12.9834C3.54739 13.0906 3.59066 13.2017 3.64004 13.3058C3.68286 13.3968 3.74186 13.4878 3.78381 13.581C3.82183 13.6663 3.82969 13.7538 3.8664 13.8431C3.90049 13.928 3.94244 14.0216 3.97565 14.1113C3.99532 14.166 3.99794 14.2141 4.0211 14.2653C4.12685 14.5037 4.25751 14.7443 4.3672 14.9775C4.4262 15.1057 4.45373 15.244 4.51403 15.3743C4.5621 15.475 4.62022 15.5734 4.66523 15.6828C4.69364 15.7519 4.70194 15.8184 4.73166 15.884C4.79153 16.0118 4.87456 16.1408 4.93224 16.2673C4.94797 16.2992 4.99211 16.4348 4.97419 16.4869C4.97244 16.4939 4.96982 16.504 4.96152 16.5079C4.92131 16.5188 4.84178 16.451 4.79764 16.4064C4.64557 16.2576 4.62197 15.9759 4.51491 15.7816C4.48432 15.727 4.44848 15.6657 4.42139 15.6075C4.40653 15.5668 4.39735 15.5275 4.37769 15.4863C4.31214 15.3616 4.22998 15.2483 4.17099 15.1171C4.1286 15.0213 4.12336 14.9123 4.08053 14.8213C3.90748 14.4477 3.70777 14.0872 3.54128 13.7131C3.46437 13.5421 3.4482 13.3483 3.38177 13.1632C3.34157 13.0534 3.27558 12.9624 3.23057 12.8605C3.19299 12.78 3.18425 12.6946 3.14842 12.6124C3.09991 12.5056 3.03174 12.4055 2.98979 12.29C2.96444 12.2151 2.95395 12.1381 2.92598 12.0638C2.8919 11.982 2.8364 11.9141 2.80057 11.8341C2.74813 11.716 2.73982 11.5996 2.70137 11.4648C2.67996 11.3922 2.65024 11.3161 2.6262 11.25C2.60741 11.187 2.59998 11.1231 2.57945 11.0623C2.52788 10.9219 2.44354 10.7976 2.39066 10.6528C2.35658 10.5544 2.36269 10.4319 2.32074 10.3374C2.28666 10.2595 2.22417 10.1965 2.1927 10.1156C2.15862 10.0311 2.19008 9.92833 2.16299 9.8277C2.1372 9.73189 2.09787 9.64177 2.06641 9.55295C2.04849 9.49564 2.04325 9.43964 2.02708 9.38495C1.98513 9.26814 1.94361 9.15264 1.90079 9.03583C1.88025 8.97677 1.87938 8.92208 1.85534 8.86827C1.82388 8.79958 1.77275 8.73483 1.74784 8.66002C1.719 8.5467 1.70938 8.42858 1.68229 8.31877C1.63684 8.17089 1.58222 8.05058 1.53896 7.90795C1.52847 7.86289 1.52847 7.8187 1.51667 7.76839C1.48171 7.64195 1.46379 7.49889 1.42883 7.37289C1.41528 7.3112 1.41834 7.2587 1.40305 7.19877C1.36809 7.07889 1.32701 6.95726 1.2903 6.84264C1.27151 6.76958 1.26758 6.69345 1.24966 6.6217C1.19067 6.43445 1.13779 6.21395 1.08142 6.03195C1.06787 5.97814 1.07181 5.93133 1.05564 5.87095C1.0115 5.72833 0.952505 5.55508 0.920167 5.40764C0.903998 5.32233 0.903124 5.24008 0.885207 5.16045C0.862921 5.05983 0.827961 4.96445 0.807422 4.86514C0.80043 4.81876 0.807422 4.78376 0.803052 4.74483C0.794749 4.67964 0.788631 4.61489 0.776832 4.55058C0.712593 4.29158 0.61121 3.97264 0.553963 3.71233C0.537795 3.6187 0.534299 3.52464 0.524248 3.43102C0.51376 3.3667 0.50939 3.29014 0.490599 3.2232C0.470497 3.15539 0.43947 3.08495 0.429419 3.01495C0.414998 2.90252 0.414124 2.79402 0.397519 2.68639C0.397082 2.67852 0.39446 2.66977 0.392712 2.66145C0.369551 2.52845 0.303127 2.25677 0.287832 2.15045C0.270352 2.02052 0.254183 1.8897 0.238889 1.76327C0.236267 1.68058 0.221846 1.59395 0.210047 1.50558C0.19213 1.3717 0.160666 1.25402 0.144934 1.1162C0.134883 1.02345 0.140127 0.940765 0.128765 0.863328C0.12221 0.813015 0.119588 0.72814 0.0588457 0.72814C-0.00277088 0.72814 0.00509507 0.79989 0.00159909 0.85764C-0.00670386 0.997203 0.019516 1.17833 0.0300039 1.26452C0.0496688 1.4242 0.0348109 1.57952 0.0527278 1.74227C0.0623417 1.83239 0.0911835 1.92383 0.101671 2.01045C0.123084 2.16358 0.138379 2.31977 0.158044 2.46633C0.158918 2.46895 0.158918 2.47114 0.159792 2.47377C0.164599 2.54377 0.173339 2.61158 0.185138 2.67633C0.186012 2.68289 0.18776 2.68945 0.188634 2.69558C0.189508 2.69908 0.190382 2.70258 0.191256 2.70564C0.19213 2.70914 0.19213 2.71264 0.193004 2.71614L0.193878 2.71745C0.199559 2.7472 0.206551 2.77695 0.215291 2.80627C0.232334 2.86533 0.224468 2.91302 0.240637 2.97383C0.288269 3.15102 0.278218 3.34395 0.326725 3.51589C0.397519 3.77358 0.4351 4.05839 0.507642 4.31389C0.528181 4.38826 0.508516 4.46176 0.529055 4.54183C0.549594 4.62364 0.571006 4.70195 0.590671 4.78289C0.610336 4.88045 0.595041 4.97845 0.621261 5.07733C0.644422 5.16658 0.671516 5.25977 0.697299 5.34639C0.723955 5.45051 0.72614 5.56033 0.755419 5.67408C0.788631 5.78826 0.827087 5.91339 0.847626 6.02976C0.871223 6.16145 0.884333 6.3137 0.908805 6.45195C0.931092 6.56789 0.994457 6.70745 1.02242 6.83389C1.02942 6.87676 1.02592 6.91833 1.03379 6.96164C1.04996 7.05264 1.07705 7.14277 1.09671 7.22983C1.10633 7.27008 1.10283 7.30552 1.11463 7.35014C1.15833 7.51727 1.20946 7.72727 1.26146 7.8922C1.27413 7.93858 1.28025 7.98626 1.29118 8.03351C1.32483 8.15164 1.36066 8.2387 1.37333 8.30258C1.38426 8.35814 1.39125 8.42333 1.40655 8.48458C1.43058 8.57514 1.45855 8.65302 1.47559 8.73176C1.48957 8.79345 1.49875 8.84945 1.51579 8.91158C1.53633 8.98639 1.56692 9.05552 1.59708 9.12726C1.64733 9.2782 1.65345 9.43701 1.70633 9.58314C1.73779 9.66976 1.77974 9.75333 1.80858 9.84608C1.83174 9.93095 1.83742 10.0329 1.86495 10.1265C1.91346 10.2713 1.96896 10.4363 2.02184 10.5824C2.08345 10.7543 2.12191 10.9438 2.18003 11.1061C2.20363 11.1717 2.1997 11.2351 2.22067 11.3073C2.26961 11.4696 2.32599 11.6521 2.37799 11.817C2.40683 11.905 2.40771 11.9885 2.44092 12.0721C2.49642 12.2099 2.5777 12.3263 2.62883 12.468C2.67253 12.5901 2.6817 12.7108 2.72802 12.8228C2.78833 12.9742 2.85912 13.1278 2.91724 13.2866C2.95745 13.3955 2.96925 13.5053 3.01557 13.6086C3.0549 13.6978 3.10603 13.7884 3.14536 13.8772C3.17245 13.9555 3.19998 14.0334 3.2262 14.1121C3.24849 14.1721 3.31142 14.2736 3.35512 14.3541C3.40362 14.4617 3.41236 14.5794 3.45431 14.6962C3.51812 14.8734 3.6042 15.0541 3.67937 15.2195C3.70865 15.2838 3.71433 15.345 3.74011 15.4141C3.78381 15.5327 3.86116 15.6211 3.91098 15.73C3.95773 15.8341 3.97041 15.9444 4.01586 16.0455C4.08315 16.1933 4.13428 16.2695 4.13341 16.4812C4.13166 16.5005 4.12685 16.5149 4.10544 16.5219C4.06698 16.5376 4.02154 16.4711 3.99619 16.4471C3.88345 16.3368 3.8664 16.2301 3.79648 16.077C3.68811 15.8446 3.55045 15.6259 3.4447 15.3988C3.3892 15.2803 3.36691 15.1525 3.31142 15.0296C3.27908 14.9556 3.23057 14.8804 3.19736 14.8078C3.1471 14.7015 3.12132 14.5908 3.0667 14.4928C2.98804 14.3528 2.92598 14.187 2.86349 14.0286C2.83858 13.9695 2.8364 13.9118 2.81062 13.8549C2.78265 13.7941 2.73808 13.7381 2.71054 13.6799C2.67078 13.5823 2.64499 13.4638 2.60567 13.3645C2.52045 13.1763 2.42387 12.9786 2.35133 12.78C2.28491 12.5984 2.25257 12.423 2.18571 12.237C2.15949 12.1613 2.12278 12.0778 2.097 12.0016C2.07384 11.933 2.07297 11.873 2.05024 11.8078C1.9895 11.6403 1.90997 11.4644 1.83917 11.3043C1.80421 11.2251 1.79504 11.1468 1.76401 11.0628C1.7273 10.9608 1.68316 10.8484 1.64646 10.7473C1.59708 10.6143 1.59533 10.4586 1.5442 10.3181C1.43539 10.0176 1.29642 9.70345 1.20422 9.38539C1.18717 9.3132 1.19154 9.23752 1.17013 9.16401C1.11987 9.00608 1.06787 8.82977 1.01893 8.66089C0.964304 8.4732 0.970422 8.27458 0.912301 8.09127C0.838012 7.85414 0.754545 7.60652 0.680256 7.37333C0.657969 7.30158 0.667583 7.22895 0.645296 7.15283C0.595041 6.97039 0.533425 6.75776 0.472682 6.58933C0.442092 6.50533 0.442092 6.41301 0.410628 6.33427C0.373047 6.23889 0.275596 6.27389 0.284336 6.38108C0.290891 6.47908 0.32454 6.60551 0.334591 6.65583C0.345516 6.72364 0.345516 6.79145 0.361248 6.86276C0.39009 6.99008 0.432041 7.09552 0.467001 7.21102C0.504583 7.33089 0.504583 7.44333 0.539543 7.5667C0.557459 7.62752 0.581057 7.69708 0.599848 7.75439C0.638304 7.87777 0.638304 8.01033 0.678508 8.12277C0.710845 8.20895 0.73488 8.31658 0.762848 8.41108C0.780765 8.47408 0.776832 8.52483 0.796497 8.58608C0.830583 8.69764 0.866417 8.80964 0.901376 8.9212C0.918419 8.98595 0.911427 9.04239 0.926722 9.10233C0.950757 9.19026 0.971296 9.28214 0.997079 9.36351C1.01893 9.44314 1.01718 9.5547 1.04559 9.63783C1.09409 9.79226 1.15046 9.95589 1.20247 10.1011C1.26059 10.263 1.26758 10.4328 1.32614 10.5973C1.43058 10.8878 1.52759 11.222 1.63291 11.5165C1.66 11.5921 1.65083 11.6691 1.67442 11.7514C1.70938 11.8774 1.73604 12.0016 1.78061 12.1268C1.80246 12.1867 1.84092 12.2466 1.8667 12.3013C1.89991 12.3726 1.90865 12.4496 1.94187 12.5227C1.96721 12.5818 2.00567 12.6417 2.02796 12.7043C2.06117 12.7975 2.04937 12.9116 2.0852 12.9991C2.11317 13.07 2.15337 13.147 2.17916 13.221C2.20887 13.3015 2.208 13.3872 2.24121 13.462C2.27049 13.529 2.31812 13.5924 2.34871 13.6571C2.37712 13.7193 2.38367 13.7831 2.40858 13.8514C2.43436 13.9223 2.47326 13.9945 2.50253 14.0601C2.53575 14.134 2.53749 14.2189 2.57158 14.2946C2.60086 14.3606 2.64587 14.425 2.67253 14.4963C2.697 14.5711 2.70049 14.6529 2.72628 14.7308C2.77129 14.8441 2.84208 14.9447 2.89102 15.0528C2.92773 15.1346 2.93079 15.2251 2.9675 15.3083C3.00858 15.4036 3.06757 15.4968 3.11083 15.59C3.16808 15.7143 3.21091 15.8477 3.26378 15.9663C3.35861 16.1776 3.39008 16.4099 3.48753 16.6168C3.55919 16.7713 3.6549 16.917 3.72307 17.0675C3.76152 17.1515 3.77332 17.2411 3.81265 17.3221C3.85635 17.414 3.93108 17.4914 3.97478 17.5841C4.00712 17.676 4.03377 17.7701 4.07223 17.8593C4.12598 17.9775 4.20333 18.0816 4.25664 18.1953C4.28723 18.2605 4.2999 18.3257 4.33049 18.39C4.38949 18.516 4.48519 18.6219 4.54331 18.747C4.5739 18.8293 4.60318 18.912 4.63202 18.9951C4.69495 19.1285 4.79502 19.2418 4.86057 19.3779C4.90689 19.4776 4.93836 19.5831 4.99735 19.6736C5.08868 19.8163 5.14768 19.9103 5.23551 20.0538C5.29364 20.1475 5.36836 20.2848 5.41643 20.3863C5.46232 20.4861 5.53923 20.5696 5.58642 20.6685C5.63231 20.7652 5.69218 20.8698 5.74331 20.9616C5.8023 21.0658 5.86261 21.1428 5.92684 21.2403C6.0326 21.4 6.09902 21.5706 6.20259 21.7321C6.27513 21.8445 6.35772 21.9583 6.43726 22.0668C6.64789 22.3573 6.95029 22.8761 7.08052 23.0511C7.18758 23.1924 7.27629 23.36 7.37505 23.5083C7.45109 23.623 7.54679 23.7363 7.62851 23.8435C7.69712 23.9318 7.75174 24.0272 7.81817 24.1191L7.87017 24.1891C10.5743 27.6305 13.3532 29.9089 15.7064 31.403L15.7055 31.4035C16.9449 32.1796 17.613 32.4066 17.613 32.4066C17.7717 32.4718 17.6633 32.586 17.5833 32.6359L3.63086 41.5688C3.58629 41.5976 3.47879 41.6773 3.52161 41.7656C3.55482 41.8335 3.69728 41.7949 3.73487 41.7823C14.932 37.8469 23.0576 34.6116 28.0249 32.2518C33.0609 29.8595 34.7534 28.4906 34.569 27.8098Z" fill="#005D63"/>
</svg>
