<svg width="184" height="127" viewBox="0 0 184 127" fill="none" xmlns="http://www.w3.org/2000/svg">
<path d="M71.4777 59.3056L66.2222 64.5611C69.8055 68.1444 70.9999 69.8167 71.2388 71.4889C71.4777 71.25 76.2555 67.1889 76.2555 65.7556C76.2555 63.6056 74.8222 62.8889 71.4777 59.3056ZM18.4444 91.5556H0.52771C0.52771 91.5556 3.63327 94.1833 3.63327 99.6778V121.178C3.63327 126.672 5.78327 126.672 5.78327 126.672H23.2222C27.2833 126.672 28.4777 123.806 28.4777 122.372V120.222C28.4777 120.222 27.2833 122.85 22.0277 122.85H13.6666C11.0388 122.85 11.2777 120.7 11.0388 118.789V106.844H17.011C18.9222 106.844 20.8333 107.083 22.7444 108.039C22.7444 108.039 20.8333 103.261 14.861 103.261H11.0388V99.4389C11.0388 99.4389 11.0388 96.0944 10.3222 95.1389H15.8166C20.5944 95.1389 24.1777 95.1389 27.9999 97.5278C28.2388 98.0056 27.5222 91.5556 18.4444 91.5556ZM46.1555 98.4833C40.4222 98.4833 38.9888 103.978 38.9888 103.978C38.9888 103.978 38.7499 98.7222 34.211 98.7222H29.6722C29.6722 98.7222 32.2999 99.6778 32.2999 104.217V120.939C32.2999 126.433 34.4499 126.672 34.4499 126.672H41.8555C41.6166 126.672 38.9888 124.522 38.9888 120.939V106.128C38.9888 105.411 40.1833 103.261 43.2888 103.261C45.1999 103.261 47.111 105.172 47.111 107.322V121.178C47.111 126.911 49.261 126.911 49.261 126.911H56.6666C56.6666 126.911 53.7999 125 53.7999 121.178V106.367C54.0388 105.65 54.9944 103.5 57.861 103.5C60.011 103.5 61.9222 105.411 61.9222 107.561V121.417C61.9222 126.911 64.0722 126.911 64.0722 126.911H71.4777C71.4777 126.911 68.611 125 68.611 121.178V106.128C68.611 100.156 63.8333 98.7222 60.2499 98.7222C55.4722 98.7222 54.0388 102.783 53.561 103.978C52.8444 100.156 49.261 98.4833 46.1555 98.4833V98.4833ZM77.211 98.7222H72.6722C72.6722 98.7222 75.2999 99.9167 75.2999 104.217V120.939C75.2999 126.433 77.4499 126.433 77.4499 126.433H84.8555C84.8555 126.433 81.9888 124.522 81.9888 120.7V104.694C81.9888 98.7222 78.6444 98.7222 77.211 98.7222V98.7222ZM90.3499 98.7222H85.811C85.811 98.7222 88.4388 99.6778 88.4388 104.217V120.939C88.4388 126.433 90.5888 126.672 90.5888 126.672H97.9944C97.7555 126.672 95.1277 124.522 95.1277 120.939V107.083C95.3666 105.889 96.0833 104.933 97.0388 104.217C97.9944 103.5 99.1888 103.261 100.383 103.261C102.055 103.261 103.728 103.978 104.922 105.411V100.633C104.922 100.633 104.205 98.7222 101.1 98.7222C96.561 98.7222 95.3666 104.217 95.3666 104.217C94.8888 99.9167 93.6944 98.7222 90.3499 98.7222V98.7222ZM137.411 92.2722C137.411 92.2722 135.739 95.1389 132.394 97.7667C130.244 99.4389 125.944 101.589 125.944 101.589H130.722V121.178C130.722 126.672 132.872 126.672 132.872 126.672H140.278C140.278 126.672 137.411 124.761 137.411 121.178V101.828H139.322C141.711 101.828 143.622 103.022 143.622 103.022V98.7222H137.411V92.2722V92.2722ZM155.805 98.7222C148.161 98.7222 144.1 105.889 144.1 113.533C144.1 121.178 149.117 126.911 156.283 126.911C162.255 126.911 164.167 124.761 164.167 124.761V120.222C162.494 123.089 160.344 123.806 158.433 123.806C157.357 123.803 156.296 123.558 155.328 123.089C151.983 121.656 151.505 117.356 151.505 117.356C154.133 114.25 157.478 114.967 161.539 110.428C167.272 104.694 163.211 98.7222 155.805 98.7222V98.7222ZM151.267 114.25C151.267 114.25 150.311 101.35 155.089 100.872H155.328C159.15 100.872 158.194 106.367 157 108.517C155.328 112.1 152.939 112.339 151.267 114.25V114.25ZM78.6444 89.6445C76.7333 89.6445 75.2999 91.0778 75.2999 92.9889C75.2999 94.9 76.7333 96.3333 78.6444 96.3333C80.5555 96.3333 81.9888 94.9 81.9888 92.9889C81.9888 91.0778 80.5555 89.6445 78.6444 89.6445ZM114.955 98.7222C110.655 98.7222 108.028 100.872 108.028 100.872V105.65C108.028 105.65 109.461 101.828 113.522 101.828C117.344 101.828 117.583 103.739 117.583 104.694C117.583 104.694 118.061 105.889 117.105 107.561C115.433 110.667 102.055 111.144 103.967 121.656C104.683 125.717 107.55 126.911 110.894 126.911C114.239 126.911 116.15 125.239 117.105 123.567C117.583 126.672 119.255 126.911 119.255 126.911H126.661C126.661 126.911 123.794 125 123.794 121.417V105.65C123.555 101.589 119.494 98.7222 114.955 98.7222V98.7222ZM112.567 123.567C110.894 123.567 109.7 121.894 109.7 119.983C109.7 113.056 115.433 112.1 116.867 110.189V121.894C116.15 122.611 115.433 123.567 112.567 123.567ZM175.633 98.4833C171.094 98.4833 167.272 101.35 167.272 105.172C167.272 108.517 168.705 110.667 171.333 112.578L175.155 114.967C177.305 116.161 178.022 117.594 178.022 119.028C178.022 120.939 176.35 123.567 172.528 123.567C168.705 123.567 167.033 119.506 167.033 119.506V124.522C167.033 124.522 169.9 126.433 173.961 126.433C178.978 126.433 184.233 122.611 183.994 117.356C183.994 115.444 183.278 113.772 182.322 112.578C180.65 110.189 177.544 108.756 175.155 107.083C173.722 106.128 173.005 104.694 173.005 104.217C173.005 103.261 173.483 101.35 177.305 101.35C180.889 101.35 182.561 105.172 182.561 105.172V100.394C182.561 100.872 179.933 98.4833 175.633 98.4833ZM59.5333 49.9889H56.6666C56.6666 49.9889 59.5333 51.6611 59.5333 55.4833V68.3833C59.5333 76.7444 66.461 84.6278 74.8222 84.6278H81.7499C86.0499 84.6278 87.4833 83.6722 89.8722 81.2833L92.4999 78.6555C93.9333 76.9833 95.6055 75.7889 95.6055 71.25V66.95C95.6055 63.3667 93.4555 61.6944 92.4999 60.7389L90.111 58.35V66.95C90.111 66.95 91.7833 68.8611 92.7388 69.3389C96.3222 72.2056 93.4555 77.2222 90.111 77.2222H74.8222H74.5833C67.4166 76.9833 61.6833 71.0111 61.4444 63.8444V56.9167C61.4444 49.9889 59.5333 49.9889 59.5333 49.9889ZM81.9888 59.3056L76.7333 64.5611C80.3166 68.1444 81.511 69.8167 81.7499 71.4889C81.9888 71.25 86.7666 67.1889 86.7666 65.7556C86.7666 63.6056 85.3333 62.65 81.9888 59.3056ZM92.7388 0.299988L89.1555 3.88332C87.7221 5.31666 88.1999 8.18332 91.0666 11.05V18.2167C91.0666 18.9333 90.3499 19.65 90.3499 19.65C90.3499 19.65 86.0499 15.8278 82.2277 15.8278H76.4944C72.911 15.8278 70.0444 19.1722 69.5666 19.4111C67.6555 21.3222 67.6555 24.9055 69.0888 26.5778L73.1499 30.6389C73.1499 30.6389 72.1944 24.1889 73.1499 19.8889C73.3888 18.9333 74.5833 17.7389 75.7777 17.7389L85.0944 24.9055L74.3444 36.1333C73.8666 36.6111 72.4333 37.5667 70.9999 37.5667C69.3277 37.5667 68.611 36.6111 67.8944 35.6555V40.9111C67.8944 42.5833 70.2833 44.4944 72.4333 44.4944H86.7666C87.7221 44.4944 88.9166 44.2555 89.8722 43.3L94.6499 38.5222C95.3666 37.8055 95.6055 36.85 95.6055 35.6555V30.1611C95.6055 24.9055 91.5444 20.8444 91.5444 20.8444C91.5444 20.8444 92.4999 20.1278 92.4999 17.9778V12.4833C92.4999 12.4833 94.1722 14.1555 94.411 14.8722L97.5166 11.7667C98.9499 10.3333 96.561 7.70554 95.6055 6.5111C92.7388 3.40554 92.7388 0.299988 92.7388 0.299988V0.299988ZM74.8222 38.0444C76.2555 37.3278 76.4944 36.85 77.6888 35.4167L86.7666 25.8611C86.7666 25.8611 91.7833 31.1167 93.4555 33.9833C94.1722 35.4167 95.1277 38.0444 90.8277 38.0444H74.8222V38.0444ZM62.6388 27.0555H60.011C61.6833 28.0111 62.8777 30.8778 62.8777 32.55V43.0611C62.8777 45.9278 65.0277 56.2 74.3444 56.2H101.339V73.4C101.339 76.2667 100.383 77.9389 99.6666 78.6555L95.6055 82.4778H97.5166L104.922 75.7889C106.355 74.1167 108.028 72.4444 108.028 67.1889V56.2L111.133 53.0944L116.389 48.0778C116.389 52.3778 118.539 54.2889 120.45 54.2889C121.512 54.2211 122.521 53.8007 123.317 53.0944L128.094 48.5555C130.244 46.4055 131.439 39.7167 126.183 39.7167C122.839 39.7167 119.017 44.4944 118.778 44.9722C117.583 44.2556 116.628 42.5833 116.628 42.5833V46.6444C116.15 47.3611 114 49.0333 112.328 49.0333H108.028V44.9722C108.028 43.0611 108.744 40.9111 109.7 39.9555L113.761 36.1333H111.85L103.728 43.5389C102.294 45.2111 101.339 48.3167 101.339 49.0333H70.761C66.9388 49.0333 64.5499 45.2111 64.5499 42.1056V34.2222C64.5499 27.7722 62.8777 27.0555 62.6388 27.0555ZM124.511 49.9889C123.794 49.9889 123.078 49.75 122.122 49.0333C121.167 48.3167 119.494 45.9278 119.494 45.9278C119.972 45.45 121.405 44.9722 122.6 44.9722C123.555 44.9722 124.511 45.2111 124.75 45.6889C126.422 47.8389 126.183 49.9889 124.511 49.9889V49.9889ZM111.85 0.299988L103.728 7.70554C103.25 8.18332 101.339 11.05 101.339 14.3944V35.6555C101.339 37.0889 100.383 39.2389 99.6666 39.9555L95.6055 43.7778H97.5166L105.161 36.85C106.117 35.8944 108.028 33.5055 108.028 29.4444V9.13888C108.028 6.03332 109.461 4.3611 110.178 3.64443L113.761 0.299988H111.85V0.299988ZM113.044 54.7667V63.1278L115.911 66.2333C118.3 68.6222 118.061 73.1611 110.894 80.0889C108.346 82.8205 104.831 84.449 101.1 84.6278H88.1999L95.8444 91.3167H101.1C106.355 91.3167 111.133 89.1667 114.239 85.8222C117.105 82.7167 118.778 78.6556 118.539 74.3556V63.3667C118.539 59.5444 116.15 57.3944 115.672 56.9167C115.194 56.9167 113.044 54.7667 113.044 54.7667" fill="#D72027"/>
</svg>
