<svg width="300" height="106" viewBox="0 0 300 106" fill="none" xmlns="http://www.w3.org/2000/svg">
<g clip-path="url(#clip0_6_356)">
<path d="M168.185 10.0033L167.953 9.77072L164.247 6.04846L160.309 10.0033L164.247 13.9581L168.185 10.0033Z" fill="#BD8B13"/>
<path d="M176.294 10.0033L175.83 9.77072L172.124 6.04846L168.186 10.0033L172.124 13.9581L176.294 10.0033Z" fill="#BD8B13"/>
<path d="M121.854 9.07285C121.854 10.0034 122.78 10.236 123.243 10.4686C124.17 10.7012 124.865 11.3992 124.865 12.5624V43.5029H158.919V43.9682C158.919 44.2008 158.919 44.2007 158.919 44.8987C158.919 47.4576 159.846 49.0862 161.236 49.7841C161.236 49.7841 162.162 50.2492 163.089 50.2492C164.016 50.2492 164.711 50.0167 165.637 49.3188L166.101 49.0861L165.637 48.6209C164.711 47.6904 164.247 45.5966 164.247 43.9682V43.7355H176.989V15.3539C176.989 15.3539 175.367 19.0761 169.112 23.4961C169.112 23.4961 169.344 24.6594 170.502 25.1246C172.124 26.0552 171.892 26.7531 171.892 26.7531V38.1523H164.016V37.687V37.2217C164.016 34.4301 163.089 27.451 155.676 27.451H155.444C153.128 27.451 151.043 27.451 149.189 27.451H148.726C144.325 27.451 142.008 26.9857 141.081 25.8225L140.85 25.3573L140.618 25.5899C139.691 26.0552 139.228 27.2184 139.228 28.3816C139.228 30.01 140.386 32.3364 142.008 32.3364C143.166 32.3364 144.788 32.3364 146.41 32.3364C149.189 32.3364 152.201 32.3364 152.201 32.3364C158.456 32.3364 158.687 35.1279 158.687 36.2911V37.687H129.962V0C129.962 0 126.487 4.65277 121.854 7.90967V8.14225V9.07285Z" fill="#BD8B13"/>
<path d="M102.162 48.1556C102.162 48.1556 101.699 52.8083 110.965 52.8083C118.61 52.8083 118.841 47.9229 118.841 47.9229V30.2426C118.841 29.0794 118.61 26.0552 115.366 26.0552H88.9572V23.9614C88.9572 23.4962 89.1889 23.4962 89.8839 23.031C91.2738 22.1004 91.5055 21.4025 91.2738 20.7046C88.2622 19.0762 85.019 15.1213 85.019 15.1213V30.4752H111.428H111.66C112.587 30.4752 113.745 30.7079 113.745 32.569V45.1314C113.745 45.1314 113.745 47.6903 111.197 47.6903C107.027 47.6903 107.258 45.3639 107.258 45.3639V38.6175H85.019V43.9682H102.394V48.1556H102.162Z" fill="#BD8B13"/>
<path d="M212.664 12.5624C212.664 11.1666 213.59 10.9339 214.054 10.4686C214.517 10.236 215.212 10.0033 215.444 8.84013V8.60755C215.444 8.14228 215.212 8.14222 214.517 7.67695C214.054 7.44431 213.127 6.74641 211.506 5.35059C208.726 3.02424 208.031 1.86106 208.031 1.86106L207.104 0.465302V43.7355H212.432C212.664 43.5028 212.664 13.4929 212.664 12.5624Z" fill="#BD8B13"/>
<path d="M194.594 49.3188L190.888 53.0409L187.181 49.3188L190.888 45.5965L194.594 49.3188ZM182.548 49.3188L191.351 58.1589L200.154 49.3188L194.826 43.9682L201.312 37.2217V0.697876C201.312 0.697876 198.764 6.0485 194.594 8.84012V9.07285C194.594 10.0034 195.058 10.236 195.753 10.4686C196.448 10.7012 196.911 11.3992 196.911 12.5624C196.911 13.7256 196.911 34.43 196.911 34.43L191.583 40.0134L186.255 34.43C186.255 34.1974 186.255 13.2603 186.255 12.5624C186.255 11.1666 186.718 10.9339 187.413 10.4686C187.876 10.236 188.339 10.0034 188.571 9.07285V8.84012C184.633 6.0485 181.853 0.697876 181.853 0.697876V37.687L188.339 44.2008L182.548 49.3188Z" fill="#BD8B13"/>
<path d="M167.027 68.3949L168.417 69.3254C168.649 69.558 168.649 69.5581 168.649 69.7907V81.1899H144.093L138.533 88.4015V69.7907V69.5581L138.765 69.3254L139.923 68.3949V67.2318H127.645V68.3949L128.803 69.3254L129.035 69.5581V103.523V103.988L128.803 104.221L127.645 105.151V106.315H139.923V105.151L138.533 104.221L138.301 103.988V88.6341L139.691 88.8668L141.313 87.9362L142.24 87.7037C142.24 87.7037 142.471 87.7037 142.703 87.7037H168.186V99.568L177.452 89.5647V70.0233L177.684 69.7907L179.074 69.3254V68.1622H166.796V68.3949H167.027Z" fill="#BD8B13"/>
<path d="M299.305 82.3531C297.915 77.7004 294.44 74.2107 289.575 71.1865C285.174 68.6275 278.687 67.4644 269.884 67.4644H236.293V68.6275L237.683 69.5581V73.5128H269.421C275.907 73.5128 280.772 74.4435 283.552 76.0719C287.954 78.6309 290.27 82.3531 290.27 86.5405C290.27 88.8669 289.807 90.728 288.649 92.8217C287.49 94.4501 285.637 96.3112 283.32 97.4744C280.309 99.1029 275.444 100.033 269.189 100.033H252.51V76.3045H243.475V103.29V103.523L243.243 103.755L242.085 104.221V105.384H269.421C274.749 105.384 278.687 105.151 281.699 104.453C285.637 103.523 289.344 102.127 292.124 100.266C295.135 98.1722 297.452 95.6133 298.61 93.0543C299.537 90.9606 300 89.0994 300 86.7731C299.768 85.3773 299.537 83.7489 299.305 82.3531Z" fill="#BD8B13"/>
<path d="M196.68 74.2108L166.795 105.617H180.463V104.221H180H179.537H179.073L201.776 80.0267L196.68 74.2108Z" fill="#BD8B13"/>
<path d="M226.795 104.453V105.849H240.231L204.324 67.4644L198.996 73.0477L204.787 79.3287L211.042 85.6099H200.617L195.058 91.6585L196.216 92.589L197.606 91.6585H197.837C197.837 91.6585 198.301 91.6585 198.764 91.6585H216.139L228.185 104.686C228.185 104.686 227.953 104.919 227.027 104.919H226.795V104.453Z" fill="#BD8B13"/>
<path d="M122.317 69.0928L123.475 68.1622V66.999H111.429V68.1622L112.587 69.0928L113.05 69.5581V102.825V103.29L112.819 103.523L111.429 103.988V105.151H123.475V103.988L122.317 103.523L122.085 103.29V69.7907V69.5581L122.317 69.0928Z" fill="#BD8B13"/>
<path d="M62.0849 98.1723H61.6216H60.2317L58.61 99.1027C58.3784 99.3354 58.1467 99.3354 57.6834 99.3354H30.3475C24.0927 99.3354 19.4595 98.4048 16.2162 96.7764C11.3514 94.2174 9.26641 90.7279 9.26641 86.0752C9.26641 83.9815 9.7297 81.8878 11.1197 80.0267C13.4363 76.5372 16.6795 73.9781 21.776 73.2802C23.166 73.0476 24.3243 73.0476 25.251 73.0476H39.3822C40.3089 73.0476 40.3089 73.2802 40.3089 73.2802L40.0772 74.4434H41.2355L47.027 66.999H30.1158C26.1776 66.999 23.166 66.9991 21.0811 67.2317C19.9228 67.2317 18.7645 67.4643 18.0695 67.6969C15.2895 68.1622 12.7413 69.3255 10.193 70.7213C6.02315 73.0476 3.24326 76.0719 1.38998 79.5614C0.463335 81.6551 0 83.7488 0 86.3078C0 92.5889 3.47493 97.4743 9.72976 101.196C12.5097 102.825 15.9845 103.988 19.4594 104.686C22.2394 105.151 25.946 105.151 30.3475 105.151H55.5985L62.0849 98.1723Z" fill="#BD8B13"/>
<path d="M48.4168 89.0994L54.2083 81.6551H14.5944L10.6562 87.7037H46.3319C46.7952 87.7037 47.2585 87.9363 47.2585 87.9363L47.0269 89.0994H48.4168Z" fill="#BD8B13"/>
<path d="M51.4286 67.2318L45.8687 74.4434L47.027 74.676H47.2586L48.8803 73.7455C49.3436 73.5129 49.8069 73.2802 50.2703 73.2802H72.278V103.058V103.29L72.0463 103.523L70.888 104.453V105.617H83.166V104.453L82.0077 103.523L81.776 103.29V103.058V73.2802H101.236C102.162 73.2802 102.162 73.5128 102.162 73.5128V74.676H103.32L109.112 67.2318H51.4286Z" fill="#BD8B13"/>
</g>
<defs>
<clipPath id="clip0_6_356">
<rect width="300" height="106" fill="white"/>
</clipPath>
</defs>
</svg>
