<svg width="327" height="38" viewBox="0 0 327 38" fill="none" xmlns="http://www.w3.org/2000/svg">
<path d="M58.0786 10.2962V6.9014H78.2878V10.2962H70.1404V33.0385H66.2133V10.2962H58.0786Z" fill="url(#paint0_linear_308_8634)"/>
<path d="M80.4139 33.0385V13.4357H84.0987V16.5497H84.3027C84.6597 15.4946 85.2887 14.6651 86.1897 14.061C87.0992 13.4484 88.1278 13.1421 89.2753 13.1421C89.5133 13.1421 89.7938 13.1506 90.1168 13.1677C90.4483 13.1847 90.7076 13.2059 90.8946 13.2315V16.8815C90.7416 16.8389 90.4696 16.7921 90.0786 16.7411C89.6876 16.6815 89.2965 16.6518 88.9055 16.6518C88.0045 16.6518 87.2012 16.8432 86.4957 17.2261C85.7987 17.6004 85.2462 18.1237 84.8382 18.7958C84.4302 19.4594 84.2262 20.2167 84.2262 21.0675V33.0385H80.4139Z" fill="url(#paint1_linear_308_8634)"/>
<path d="M99.7177 33.4724C98.4767 33.4724 97.3547 33.2427 96.3517 32.7832C95.3487 32.3153 94.5539 31.6389 93.9674 30.754C93.3894 29.8692 93.1004 28.7844 93.1004 27.4997C93.1004 26.3936 93.3129 25.4832 93.7379 24.7685C94.1629 24.0539 94.7366 23.4881 95.4592 23.0712C96.1817 22.6543 96.9892 22.3395 97.8817 22.1268C98.7742 21.9141 99.6837 21.7524 100.61 21.6418C101.783 21.5057 102.735 21.3951 103.466 21.31C104.197 21.2164 104.729 21.0675 105.06 20.8633C105.392 20.6591 105.557 20.3273 105.557 19.8678V19.7785C105.557 18.6639 105.243 17.8004 104.614 17.1878C103.993 16.5752 103.067 16.2689 101.834 16.2689C100.551 16.2689 99.5392 16.5539 98.7997 17.124C98.0687 17.6855 97.5629 18.3108 97.2824 19L93.6996 18.1832C94.1246 16.9921 94.7451 16.0307 95.5612 15.299C96.3857 14.5587 97.3334 14.0227 98.4045 13.6909C99.4755 13.3506 100.602 13.1804 101.783 13.1804C102.565 13.1804 103.394 13.274 104.27 13.4612C105.154 13.6399 105.978 13.9717 106.743 14.4566C107.517 14.9416 108.15 15.635 108.643 16.5369C109.136 17.4303 109.382 18.5916 109.382 20.021V33.0385H105.659V30.3584H105.506C105.26 30.8519 104.89 31.3368 104.397 31.8133C103.904 32.2898 103.271 32.6854 102.497 33.0002C101.724 33.315 100.797 33.4724 99.7177 33.4724ZM100.547 30.4094C101.601 30.4094 102.502 30.201 103.25 29.7841C104.006 29.3672 104.58 28.8227 104.971 28.1505C105.37 27.4699 105.57 26.7424 105.57 25.9682V23.4413C105.434 23.5774 105.171 23.705 104.78 23.8241C104.397 23.9347 103.959 24.0326 103.466 24.1177C102.973 24.1942 102.493 24.2666 102.026 24.3346C101.558 24.3942 101.167 24.4452 100.853 24.4878C100.113 24.5814 99.4372 24.7388 98.8252 24.96C98.2217 25.1812 97.7372 25.5002 97.3717 25.9171C97.0147 26.3255 96.8362 26.8701 96.8362 27.5507C96.8362 28.4951 97.1847 29.2098 97.8817 29.6948C98.5787 30.1712 99.467 30.4094 100.547 30.4094Z" fill="url(#paint2_linear_308_8634)"/>
<path d="M130.513 13.4357L123.411 33.0385H119.331L112.216 13.4357H116.309L121.269 28.5206H121.473L126.42 13.4357H130.513Z" fill="url(#paint3_linear_308_8634)"/>
<path d="M141.87 33.4341C139.941 33.4341 138.279 33.0215 136.885 32.1962C135.499 31.3624 134.428 30.1925 133.672 28.6865C132.924 27.1721 132.55 25.3981 132.55 23.3647C132.55 21.3568 132.924 19.5871 133.672 18.0556C134.428 16.5241 135.482 15.3287 136.834 14.4694C138.194 13.6101 139.783 13.1804 141.602 13.1804C142.707 13.1804 143.778 13.3633 144.815 13.7292C145.852 14.0951 146.783 14.6694 147.608 15.4521C148.432 16.2349 149.082 17.2516 149.558 18.5023C150.034 19.7445 150.272 21.2547 150.272 23.0329V24.3857H134.704V21.5269H146.537C146.537 20.523 146.333 19.6339 145.925 18.8596C145.517 18.0769 144.943 17.46 144.203 17.0091C143.472 16.5582 142.614 16.3327 141.628 16.3327C140.557 16.3327 139.622 16.5965 138.823 17.124C138.032 17.643 137.42 18.3236 136.987 19.1659C136.562 19.9997 136.349 20.9058 136.349 21.8843V24.1177C136.349 25.4279 136.579 26.5425 137.038 27.4614C137.505 28.3803 138.155 29.0822 138.988 29.5671C139.822 30.0436 140.795 30.2818 141.908 30.2818C142.631 30.2818 143.29 30.1797 143.885 29.9755C144.48 29.7628 144.994 29.448 145.427 29.0311C145.861 28.6142 146.192 28.0995 146.422 27.4869L150.03 28.1378C149.741 29.2013 149.223 30.1329 148.475 30.9327C147.735 31.724 146.804 32.3408 145.682 32.7832C144.569 33.2171 143.298 33.4341 141.87 33.4341Z" fill="url(#paint4_linear_308_8634)"/>
<path d="M158.315 6.9014V33.0385H154.502V6.9014H158.315Z" fill="url(#paint5_linear_308_8634)"/>
<path d="M167.256 6.9014V33.0385H163.443V6.9014H167.256Z" fill="url(#paint6_linear_308_8634)"/>
<path d="M180.825 33.4341C178.896 33.4341 177.234 33.0215 175.84 32.1962C174.454 31.3624 173.383 30.1925 172.627 28.6865C171.879 27.1721 171.505 25.3981 171.505 23.3647C171.505 21.3568 171.879 19.5871 172.627 18.0556C173.383 16.5241 174.437 15.3287 175.789 14.4694C177.149 13.6101 178.738 13.1804 180.557 13.1804C181.663 13.1804 182.734 13.3633 183.771 13.7292C184.808 14.0951 185.738 14.6694 186.563 15.4521C187.387 16.2349 188.038 17.2516 188.514 18.5023C188.99 19.7445 189.228 21.2547 189.228 23.0329V24.3857H173.66V21.5269H185.492C185.492 20.523 185.288 19.6339 184.88 18.8596C184.472 18.0769 183.898 17.46 183.159 17.0091C182.428 16.5582 181.569 16.3327 180.583 16.3327C179.512 16.3327 178.577 16.5965 177.778 17.124C176.987 17.643 176.375 18.3236 175.942 19.1659C175.517 19.9997 175.304 20.9058 175.304 21.8843V24.1177C175.304 25.4279 175.534 26.5425 175.993 27.4614C176.46 28.3803 177.111 29.0822 177.944 29.5671C178.777 30.0436 179.75 30.2818 180.863 30.2818C181.586 30.2818 182.245 30.1797 182.84 29.9755C183.435 29.7628 183.949 29.448 184.383 29.0311C184.816 28.6142 185.148 28.0995 185.377 27.4869L188.985 28.1378C188.696 29.2013 188.178 30.1329 187.43 30.9327C186.69 31.724 185.76 32.3408 184.638 32.7832C183.524 33.2171 182.253 33.4341 180.825 33.4341Z" fill="url(#paint7_linear_308_8634)"/>
<path d="M193.458 33.0385V13.4357H197.142V16.5497H197.346C197.703 15.4946 198.332 14.6651 199.233 14.061C200.143 13.4484 201.171 13.1421 202.319 13.1421C202.557 13.1421 202.837 13.1506 203.16 13.1677C203.492 13.1847 203.751 13.2059 203.938 13.2315V16.8815C203.785 16.8389 203.513 16.7921 203.122 16.7411C202.731 16.6815 202.34 16.6518 201.949 16.6518C201.048 16.6518 200.245 16.8432 199.539 17.2261C198.842 17.6004 198.29 18.1237 197.882 18.7958C197.474 19.4594 197.27 20.2167 197.27 21.0675V33.0385H193.458Z" fill="url(#paint8_linear_308_8634)"/>
<path d="M224.989 33.4341C223.093 33.4341 221.461 33.0044 220.093 32.1451C218.733 31.2773 217.687 30.0819 216.956 28.5589C216.225 27.036 215.86 25.2918 215.86 23.3264C215.86 21.3355 216.234 19.5786 216.982 18.0556C217.73 16.5241 218.784 15.3287 220.144 14.4694C221.504 13.6101 223.106 13.1804 224.951 13.1804C226.438 13.1804 227.764 13.4569 228.929 14.01C230.093 14.5545 231.033 15.3202 231.747 16.3072C232.469 17.2941 232.898 18.447 233.034 19.7657H229.324C229.12 18.8469 228.652 18.0556 227.921 17.392C227.199 16.7283 226.23 16.3965 225.014 16.3965C223.952 16.3965 223.021 16.6773 222.222 17.2388C221.432 17.7918 220.815 18.5831 220.373 19.6126C219.931 20.6336 219.71 21.8417 219.71 23.2371C219.71 24.6664 219.927 25.9001 220.361 26.9381C220.794 27.9761 221.406 28.7801 222.197 29.3502C222.996 29.9202 223.935 30.2053 225.014 30.2053C225.737 30.2053 226.391 30.0734 226.978 29.8096C227.573 29.5374 228.07 29.1502 228.47 28.6483C228.878 28.1463 229.162 27.5422 229.324 26.836H233.034C232.898 28.1037 232.486 29.2353 231.798 30.2308C231.109 31.2262 230.187 32.009 229.031 32.579C227.883 33.1491 226.536 33.4341 224.989 33.4341Z" fill="url(#paint9_linear_308_8634)"/>
<path d="M240.924 21.3993V33.0385H237.111V6.9014H240.873V16.6262H241.115C241.574 15.5712 242.275 14.7332 243.219 14.1121C244.162 13.491 245.395 13.1804 246.916 13.1804C248.259 13.1804 249.432 13.4569 250.435 14.01C251.447 14.563 252.229 15.3883 252.781 16.4858C253.342 17.5749 253.623 18.9362 253.623 20.5698V33.0385H249.81V21.0292C249.81 19.5913 249.441 18.4768 248.701 17.6855C247.962 16.8857 246.933 16.4858 245.616 16.4858C244.715 16.4858 243.907 16.6773 243.193 17.0601C242.488 17.443 241.931 18.0046 241.523 18.7448C241.123 19.4765 240.924 20.3613 240.924 21.3993Z" fill="url(#paint10_linear_308_8634)"/>
<path d="M266.96 33.4341C265.123 33.4341 263.521 33.0129 262.153 32.1706C260.784 31.3283 259.722 30.15 258.965 28.6355C258.209 27.121 257.83 25.3513 257.83 23.3264C257.83 21.293 258.209 19.5147 258.965 17.9918C259.722 16.4688 260.784 15.2862 262.153 14.4439C263.521 13.6016 265.123 13.1804 266.96 13.1804C268.796 13.1804 270.398 13.6016 271.766 14.4439C273.135 15.2862 274.197 16.4688 274.954 17.9918C275.71 19.5147 276.089 21.293 276.089 23.3264C276.089 25.3513 275.71 27.121 274.954 28.6355C274.197 30.15 273.135 31.3283 271.766 32.1706C270.398 33.0129 268.796 33.4341 266.96 33.4341ZM266.972 30.2308C268.162 30.2308 269.148 29.916 269.93 29.2864C270.712 28.6568 271.29 27.8187 271.664 26.7722C272.047 25.7257 272.238 24.5729 272.238 23.3136C272.238 22.0629 272.047 20.9143 271.664 19.8678C271.29 18.8128 270.712 17.9663 269.93 17.3282C269.148 16.69 268.162 16.371 266.972 16.371C265.774 16.371 264.779 16.69 263.989 17.3282C263.207 17.9663 262.624 18.8128 262.242 19.8678C261.868 20.9143 261.681 22.0629 261.681 23.3136C261.681 24.5729 261.868 25.7257 262.242 26.7722C262.624 27.8187 263.207 28.6568 263.989 29.2864C264.779 29.916 265.774 30.2308 266.972 30.2308Z" fill="url(#paint11_linear_308_8634)"/>
<path d="M280.344 33.0385V13.4357H284.156V33.0385H280.344ZM282.269 10.411C281.606 10.411 281.037 10.1898 280.561 9.74738C280.093 9.29645 279.86 8.76043 279.86 8.13934C279.86 7.50973 280.093 6.97372 280.561 6.53129C281.037 6.08036 281.606 5.8549 282.269 5.8549C282.932 5.8549 283.498 6.08036 283.965 6.53129C284.441 6.97372 284.679 7.50973 284.679 8.13934C284.679 8.76043 284.441 9.29645 283.965 9.74738C283.498 10.1898 282.932 10.411 282.269 10.411Z" fill="url(#paint12_linear_308_8634)"/>
<path d="M297.535 33.4341C295.639 33.4341 294.007 33.0044 292.639 32.1451C291.278 31.2773 290.233 30.0819 289.502 28.5589C288.771 27.036 288.405 25.2918 288.405 23.3264C288.405 21.3355 288.779 19.5786 289.527 18.0556C290.276 16.5241 291.33 15.3287 292.69 14.4694C294.05 13.6101 295.652 13.1804 297.496 13.1804C298.984 13.1804 300.31 13.4569 301.474 14.01C302.639 14.5545 303.578 15.3202 304.292 16.3072C305.015 17.2941 305.444 18.447 305.58 19.7657H301.87C301.666 18.8469 301.198 18.0556 300.467 17.392C299.745 16.7283 298.776 16.3965 297.56 16.3965C296.498 16.3965 295.567 16.6773 294.768 17.2388C293.977 17.7918 293.361 18.5831 292.919 19.6126C292.477 20.6336 292.256 21.8417 292.256 23.2371C292.256 24.6664 292.473 25.9001 292.906 26.9381C293.34 27.9761 293.952 28.7801 294.742 29.3502C295.541 29.9202 296.481 30.2053 297.56 30.2053C298.283 30.2053 298.937 30.0734 299.524 29.8096C300.119 29.5374 300.616 29.1502 301.015 28.6483C301.423 28.1463 301.708 27.5422 301.87 26.836H305.58C305.444 28.1037 305.032 29.2353 304.343 30.2308C303.655 31.2262 302.732 32.009 301.576 32.579C300.429 33.1491 299.082 33.4341 297.535 33.4341Z" fill="url(#paint13_linear_308_8634)"/>
<path d="M318.098 33.4341C316.168 33.4341 314.506 33.0215 313.112 32.1962C311.727 31.3624 310.656 30.1925 309.899 28.6865C309.151 27.1721 308.777 25.3981 308.777 23.3647C308.777 21.3568 309.151 19.5871 309.899 18.0556C310.656 16.5241 311.71 15.3287 313.061 14.4694C314.421 13.6101 316.011 13.1804 317.83 13.1804C318.935 13.1804 320.006 13.3633 321.043 13.7292C322.08 14.0951 323.011 14.6694 323.835 15.4521C324.66 16.2349 325.31 17.2516 325.786 18.5023C326.262 19.7445 326.5 21.2547 326.5 23.0329V24.3857H310.932V21.5269H322.764C322.764 20.523 322.56 19.6339 322.152 18.8596C321.744 18.0769 321.17 17.46 320.431 17.0091C319.7 16.5582 318.841 16.3327 317.855 16.3327C316.784 16.3327 315.849 16.5965 315.05 17.124C314.26 17.643 313.648 18.3236 313.214 19.1659C312.789 19.9997 312.577 20.9058 312.577 21.8843V24.1177C312.577 25.4279 312.806 26.5425 313.265 27.4614C313.733 28.3803 314.383 29.0822 315.216 29.5671C316.049 30.0436 317.022 30.2818 318.136 30.2818C318.858 30.2818 319.517 30.1797 320.112 29.9755C320.707 29.7628 321.221 29.448 321.655 29.0311C322.088 28.6142 322.42 28.0995 322.649 27.4869L326.258 28.1378C325.969 29.2013 325.45 30.1329 324.702 30.9327C323.963 31.724 323.032 32.3408 321.91 32.7832C320.796 33.2171 319.526 33.4341 318.098 33.4341Z" fill="url(#paint14_linear_308_8634)"/>
<path d="M11.1682 37.4156C11.1786 37.4225 11.1924 37.4191 11.2028 37.426C11.2846 37.4715 11.3761 37.4969 11.4696 37.5C11.5211 37.4999 11.5724 37.4929 11.622 37.4792L24.1721 34.0497L36.7222 37.4792C36.7718 37.4929 36.8231 37.4999 36.8746 37.5C36.968 37.4972 37.0592 37.4714 37.1402 37.4248C37.1517 37.4191 37.1645 37.4214 37.1748 37.4144L47.5678 31.0551C47.6752 30.989 47.7581 30.8897 47.8039 30.7723C47.8498 30.6548 47.8561 30.5255 47.8219 30.4041L42.0665 10.1697C42.0429 10.0854 42.0005 10.0076 41.9425 9.94216C41.8845 9.87671 41.8124 9.82534 41.7316 9.79192C41.6508 9.7585 41.5635 9.74391 41.4763 9.74926C41.3891 9.75462 41.3042 9.77977 41.2281 9.82281L35.4981 13.0418C35.3726 13.1211 35.2824 13.2457 35.246 13.3898C35.2097 13.5338 35.23 13.6864 35.3028 13.8159C35.3757 13.9453 35.4954 14.0419 35.6372 14.0854C35.7791 14.129 35.9323 14.1164 36.0651 14.0501L41.1565 11.1883L46.592 30.2966L37.3365 35.961L35.1378 18.3502C35.1188 18.1979 35.0402 18.0594 34.9193 17.9652C34.7983 17.871 34.6449 17.8288 34.4929 17.8478C34.3408 17.8668 34.2025 17.9455 34.1084 18.0666C34.0143 18.1877 33.9722 18.3413 33.9911 18.4935L36.1933 36.1368L24.7495 33.0091V29.8526C24.7495 29.6992 24.6887 29.5522 24.5804 29.4438C24.4721 29.3353 24.3252 29.2744 24.1721 29.2744C24.019 29.2744 23.8721 29.3353 23.7638 29.4438C23.6555 29.5522 23.5947 29.6992 23.5947 29.8526V33.0091L12.1498 36.1368L14.3519 18.4935C14.3613 18.4182 14.3558 18.3416 14.3357 18.2684C14.3155 18.1951 14.2812 18.1266 14.2346 18.0666C14.188 18.0066 14.1301 17.9565 14.0641 17.9189C13.9982 17.8814 13.9254 17.8572 13.8502 17.8478C13.7749 17.8384 13.6985 17.8439 13.6253 17.864C13.5521 17.8842 13.4837 17.9186 13.4238 17.9652C13.3639 18.0119 13.3138 18.0699 13.2763 18.1359C13.2388 18.202 13.2146 18.2748 13.2052 18.3502L11.0077 35.961L1.75217 30.2977L7.18769 11.1907L12.2791 14.0524C12.4119 14.1187 12.5651 14.1313 12.7069 14.0878C12.8488 14.0442 12.9685 13.9477 13.0414 13.8182C13.1142 13.6887 13.1345 13.5362 13.0982 13.3921C13.0618 13.248 12.9716 13.1235 12.8461 13.0441L7.11494 9.82397C7.03903 9.78045 6.95417 9.75492 6.86687 9.74933C6.77958 9.74374 6.69216 9.75825 6.61134 9.79174C6.53051 9.82523 6.45842 9.87681 6.40059 9.94252C6.34276 10.0082 6.30073 10.0863 6.27773 10.1708L0.522335 30.4052C0.487525 30.5266 0.493536 30.6561 0.539443 30.7737C0.585349 30.8914 0.668604 30.9906 0.776386 31.0562L11.1682 37.4156Z" fill="url(#paint15_linear_308_8634)"/>
<path d="M23.7811 27.5193C23.8871 27.6173 24.0259 27.6719 24.1702 27.6726C24.3144 27.6732 24.4537 27.6198 24.5606 27.5227C24.9451 27.1724 33.9881 18.8636 33.9881 10.3281C33.9881 4.81629 29.6774 0.5 24.1726 0.5C18.6678 0.5 14.357 4.81629 14.357 10.3281C14.357 18.7156 23.3966 27.1632 23.7811 27.5193ZM24.1726 1.65625C29.1092 1.65625 32.8334 5.38401 32.8334 10.3281C32.8334 17.3778 25.9128 24.5928 24.176 26.2925C22.4427 24.5732 15.5118 17.2633 15.5118 10.3281C15.5118 5.38401 19.2359 1.65625 24.1726 1.65625Z" fill="url(#paint16_linear_308_8634)"/>
<path d="M29.3696 10.3282C29.3696 7.4595 27.0381 5.12502 24.1731 5.12502C21.3081 5.12502 18.9766 7.4595 18.9766 10.3282C18.9766 13.1968 21.3081 15.5313 24.1731 15.5313C27.0381 15.5313 29.3696 13.1968 29.3696 10.3282ZM24.1731 14.375C21.9444 14.375 20.1314 12.5597 20.1314 10.3282C20.1314 8.09659 21.9444 6.28128 24.1731 6.28128C26.4018 6.28128 28.2148 8.09659 28.2148 10.3282C28.2148 12.5597 26.4018 14.375 24.1731 14.375Z" fill="url(#paint17_linear_308_8634)"/>
<path d="M36.3157 16.8654L40.011 14.4462L44.559 29.9577L38.3055 33.5154L36.3157 16.8654Z" fill="url(#paint18_linear_308_8634)" fill-opacity="0.63"/>
<path d="M10.0224 33.0885L3.48472 29.3885L7.7485 13.5923L12.4386 17.2923L10.0224 33.0885Z" fill="url(#paint19_linear_308_8634)" fill-opacity="0.63"/>
<path d="M26.3669 10.6038C26.3669 11.94 25.3488 13.0231 24.0929 13.0231C22.837 13.0231 21.8189 11.94 21.8189 10.6038C21.8189 9.26774 22.837 8.18462 24.0929 8.18462C25.3488 8.18462 26.3669 9.26774 26.3669 10.6038Z" fill="url(#paint20_linear_308_8634)"/>
<defs>
<linearGradient id="paint0_linear_308_8634" x1="0.5" y1="19" x2="326.5" y2="19" gradientUnits="userSpaceOnUse">
<stop stop-color="#89CFF0"/>
<stop offset="1" stop-color="#1877F2"/>
</linearGradient>
<linearGradient id="paint1_linear_308_8634" x1="0.5" y1="19" x2="326.5" y2="19" gradientUnits="userSpaceOnUse">
<stop stop-color="#89CFF0"/>
<stop offset="1" stop-color="#1877F2"/>
</linearGradient>
<linearGradient id="paint2_linear_308_8634" x1="0.5" y1="19" x2="326.5" y2="19" gradientUnits="userSpaceOnUse">
<stop stop-color="#89CFF0"/>
<stop offset="1" stop-color="#1877F2"/>
</linearGradient>
<linearGradient id="paint3_linear_308_8634" x1="0.5" y1="19" x2="326.5" y2="19" gradientUnits="userSpaceOnUse">
<stop stop-color="#89CFF0"/>
<stop offset="1" stop-color="#1877F2"/>
</linearGradient>
<linearGradient id="paint4_linear_308_8634" x1="0.5" y1="19" x2="326.5" y2="19" gradientUnits="userSpaceOnUse">
<stop stop-color="#89CFF0"/>
<stop offset="1" stop-color="#1877F2"/>
</linearGradient>
<linearGradient id="paint5_linear_308_8634" x1="0.5" y1="19" x2="326.5" y2="19" gradientUnits="userSpaceOnUse">
<stop stop-color="#89CFF0"/>
<stop offset="1" stop-color="#1877F2"/>
</linearGradient>
<linearGradient id="paint6_linear_308_8634" x1="0.5" y1="19" x2="326.5" y2="19" gradientUnits="userSpaceOnUse">
<stop stop-color="#89CFF0"/>
<stop offset="1" stop-color="#1877F2"/>
</linearGradient>
<linearGradient id="paint7_linear_308_8634" x1="0.5" y1="19" x2="326.5" y2="19" gradientUnits="userSpaceOnUse">
<stop stop-color="#89CFF0"/>
<stop offset="1" stop-color="#1877F2"/>
</linearGradient>
<linearGradient id="paint8_linear_308_8634" x1="0.5" y1="19" x2="326.5" y2="19" gradientUnits="userSpaceOnUse">
<stop stop-color="#89CFF0"/>
<stop offset="1" stop-color="#1877F2"/>
</linearGradient>
<linearGradient id="paint9_linear_308_8634" x1="0.5" y1="19" x2="326.5" y2="19" gradientUnits="userSpaceOnUse">
<stop stop-color="#89CFF0"/>
<stop offset="1" stop-color="#1877F2"/>
</linearGradient>
<linearGradient id="paint10_linear_308_8634" x1="0.5" y1="19" x2="326.5" y2="19" gradientUnits="userSpaceOnUse">
<stop stop-color="#89CFF0"/>
<stop offset="1" stop-color="#1877F2"/>
</linearGradient>
<linearGradient id="paint11_linear_308_8634" x1="0.5" y1="19" x2="326.5" y2="19" gradientUnits="userSpaceOnUse">
<stop stop-color="#89CFF0"/>
<stop offset="1" stop-color="#1877F2"/>
</linearGradient>
<linearGradient id="paint12_linear_308_8634" x1="0.5" y1="19" x2="326.5" y2="19" gradientUnits="userSpaceOnUse">
<stop stop-color="#89CFF0"/>
<stop offset="1" stop-color="#1877F2"/>
</linearGradient>
<linearGradient id="paint13_linear_308_8634" x1="0.5" y1="19" x2="326.5" y2="19" gradientUnits="userSpaceOnUse">
<stop stop-color="#89CFF0"/>
<stop offset="1" stop-color="#1877F2"/>
</linearGradient>
<linearGradient id="paint14_linear_308_8634" x1="0.5" y1="19" x2="326.5" y2="19" gradientUnits="userSpaceOnUse">
<stop stop-color="#89CFF0"/>
<stop offset="1" stop-color="#1877F2"/>
</linearGradient>
<linearGradient id="paint15_linear_308_8634" x1="0.5" y1="19" x2="326.5" y2="19" gradientUnits="userSpaceOnUse">
<stop stop-color="#89CFF0"/>
<stop offset="1" stop-color="#1877F2"/>
</linearGradient>
<linearGradient id="paint16_linear_308_8634" x1="0.5" y1="19" x2="326.5" y2="19" gradientUnits="userSpaceOnUse">
<stop stop-color="#89CFF0"/>
<stop offset="1" stop-color="#1877F2"/>
</linearGradient>
<linearGradient id="paint17_linear_308_8634" x1="0.5" y1="19" x2="326.5" y2="19" gradientUnits="userSpaceOnUse">
<stop stop-color="#89CFF0"/>
<stop offset="1" stop-color="#1877F2"/>
</linearGradient>
<linearGradient id="paint18_linear_308_8634" x1="163.5" y1="0.5" x2="163.5" y2="37.5" gradientUnits="userSpaceOnUse">
<stop stop-color="#89CFF0"/>
<stop offset="1" stop-color="#1877F2"/>
</linearGradient>
<linearGradient id="paint19_linear_308_8634" x1="188.676" y1="-2.48799" x2="188.676" y2="44.2895" gradientUnits="userSpaceOnUse">
<stop stop-color="#89CFF0"/>
<stop offset="1" stop-color="#1877F2"/>
</linearGradient>
<linearGradient id="paint20_linear_308_8634" x1="24.0928" y1="8.18462" x2="24.0928" y2="13.0231" gradientUnits="userSpaceOnUse">
<stop stop-color="#89CFF0"/>
<stop offset="1" stop-color="#1877F2"/>
</linearGradient>
</defs>
</svg>
