<svg width="1163" height="132" viewBox="0 0 1163 132" fill="none" xmlns="http://www.w3.org/2000/svg">
<path d="M205.267 35V22.9091H277.313V35H248.267V116H234.267V35H205.267Z" fill="black"/>
<path d="M284.892 116V46.1818H298.029V57.2728H298.756C300.029 53.5152 302.271 50.5606 305.483 48.4091C308.726 46.2273 312.392 45.1364 316.483 45.1364C317.332 45.1364 318.332 45.1667 319.483 45.2273C320.665 45.2879 321.589 45.3637 322.256 45.4546V58.4546C321.711 58.3031 320.741 58.1364 319.347 57.9546C317.953 57.7425 316.559 57.6364 315.165 57.6364C311.953 57.6364 309.089 58.3182 306.574 59.6818C304.089 61.0152 302.12 62.8788 300.665 65.2728C299.211 67.6364 298.483 70.3334 298.483 73.3637V116H284.892Z" fill="black"/>
<path d="M353.711 117.545C349.286 117.545 345.286 116.727 341.711 115.091C338.135 113.424 335.302 111.015 333.211 107.864C331.15 104.712 330.12 100.849 330.12 96.2728C330.12 92.3334 330.877 89.0909 332.392 86.5455C333.908 84 335.953 81.9849 338.529 80.5C341.105 79.0152 343.983 77.894 347.165 77.1364C350.347 76.3788 353.589 75.8031 356.892 75.4091C361.074 74.9243 364.468 74.5303 367.074 74.2273C369.68 73.894 371.574 73.3637 372.756 72.6364C373.938 71.9091 374.529 70.7273 374.529 69.0909V68.7728C374.529 64.8031 373.408 61.7273 371.165 59.5455C368.953 57.3637 365.65 56.2728 361.256 56.2728C356.68 56.2728 353.074 57.2879 350.438 59.3182C347.832 61.3182 346.029 63.5455 345.029 66L332.256 63.0909C333.771 58.8485 335.983 55.4243 338.892 52.8182C341.832 50.1818 345.211 48.2728 349.029 47.0909C352.847 45.8788 356.862 45.2728 361.074 45.2728C363.862 45.2728 366.817 45.6061 369.938 46.2728C373.089 46.9091 376.029 48.0909 378.756 49.8182C381.514 51.5455 383.771 54.0152 385.529 57.2273C387.286 60.4091 388.165 64.5455 388.165 69.6364V116H374.892V106.455H374.347C373.468 108.212 372.15 109.939 370.392 111.636C368.635 113.333 366.377 114.742 363.62 115.864C360.862 116.985 357.559 117.545 353.711 117.545ZM356.665 106.636C360.423 106.636 363.635 105.894 366.302 104.409C368.998 102.924 371.044 100.985 372.438 98.5909C373.862 96.1667 374.574 93.5758 374.574 90.8182V81.8182C374.089 82.3031 373.15 82.7576 371.756 83.1818C370.392 83.5758 368.832 83.9243 367.074 84.2273C365.317 84.5 363.605 84.7576 361.938 85C360.271 85.2122 358.877 85.394 357.756 85.5455C355.12 85.8788 352.711 86.4394 350.529 87.2273C348.377 88.0152 346.65 89.1515 345.347 90.6364C344.074 92.0909 343.438 94.0303 343.438 96.4546C343.438 99.8182 344.68 102.364 347.165 104.091C349.65 105.788 352.817 106.636 356.665 106.636Z" fill="black"/>
<path d="M463.495 46.1818L438.177 116H423.631L398.267 46.1818H412.858L430.54 99.9091H431.267L448.904 46.1818H463.495Z" fill="black"/>
<path d="M503.983 117.409C497.105 117.409 491.18 115.939 486.211 113C481.271 110.03 477.453 105.864 474.756 100.5C472.089 95.1061 470.756 88.7879 470.756 81.5455C470.756 74.394 472.089 68.0909 474.756 62.6364C477.453 57.1818 481.211 52.9243 486.029 49.8637C490.877 46.8031 496.544 45.2728 503.029 45.2728C506.968 45.2728 510.786 45.9243 514.483 47.2273C518.18 48.5303 521.498 50.5758 524.438 53.3637C527.377 56.1515 529.695 59.7728 531.392 64.2273C533.089 68.6515 533.938 74.0303 533.938 80.3637V85.1818H478.438V75H520.62C520.62 71.4243 519.892 68.2576 518.438 65.5C516.983 62.7122 514.938 60.5152 512.302 58.9091C509.695 57.3031 506.635 56.5 503.12 56.5C499.302 56.5 495.968 57.4394 493.12 59.3182C490.302 61.1667 488.12 63.5909 486.574 66.5909C485.059 69.5606 484.302 72.7879 484.302 76.2728V84.2273C484.302 88.894 485.12 92.8637 486.756 96.1364C488.423 99.4091 490.741 101.909 493.711 103.636C496.68 105.333 500.15 106.182 504.12 106.182C506.695 106.182 509.044 105.818 511.165 105.091C513.286 104.333 515.12 103.212 516.665 101.727C518.211 100.242 519.392 98.4091 520.211 96.2273L533.074 98.5455C532.044 102.333 530.195 105.652 527.529 108.5C524.892 111.318 521.574 113.515 517.574 115.091C513.604 116.636 509.074 117.409 503.983 117.409Z" fill="black"/>
<path d="M562.608 22.9091V116H549.017V22.9091H562.608Z" fill="black"/>
<path d="M594.483 22.9091V116H580.892V22.9091H594.483Z" fill="black"/>
<path d="M642.858 117.409C635.98 117.409 630.055 115.939 625.086 113C620.146 110.03 616.328 105.864 613.631 100.5C610.964 95.1061 609.631 88.7879 609.631 81.5455C609.631 74.394 610.964 68.0909 613.631 62.6364C616.328 57.1818 620.086 52.9243 624.904 49.8637C629.752 46.8031 635.419 45.2728 641.904 45.2728C645.843 45.2728 649.661 45.9243 653.358 47.2273C657.055 48.5303 660.373 50.5758 663.313 53.3637C666.252 56.1515 668.57 59.7728 670.267 64.2273C671.964 68.6515 672.813 74.0303 672.813 80.3637V85.1818H617.313V75H659.495C659.495 71.4243 658.767 68.2576 657.313 65.5C655.858 62.7122 653.813 60.5152 651.177 58.9091C648.57 57.3031 645.51 56.5 641.995 56.5C638.177 56.5 634.843 57.4394 631.995 59.3182C629.177 61.1667 626.995 63.5909 625.449 66.5909C623.934 69.5606 623.177 72.7879 623.177 76.2728V84.2273C623.177 88.894 623.995 92.8637 625.631 96.1364C627.298 99.4091 629.616 101.909 632.586 103.636C635.555 105.333 639.025 106.182 642.995 106.182C645.57 106.182 647.919 105.818 650.04 105.091C652.161 104.333 653.995 103.212 655.54 101.727C657.086 100.242 658.267 98.4091 659.086 96.2273L671.949 98.5455C670.919 102.333 669.07 105.652 666.404 108.5C663.767 111.318 660.449 113.515 656.449 115.091C652.479 116.636 647.949 117.409 642.858 117.409Z" fill="black"/>
<path d="M687.892 116V46.1818H701.029V57.2728H701.756C703.029 53.5152 705.271 50.5606 708.483 48.4091C711.726 46.2273 715.392 45.1364 719.483 45.1364C720.332 45.1364 721.332 45.1667 722.483 45.2273C723.665 45.2879 724.589 45.3637 725.256 45.4546V58.4546C724.711 58.3031 723.741 58.1364 722.347 57.9546C720.953 57.7425 719.559 57.6364 718.165 57.6364C714.953 57.6364 712.089 58.3182 709.574 59.6818C707.089 61.0152 705.12 62.8788 703.665 65.2728C702.211 67.6364 701.483 70.3334 701.483 73.3637V116H687.892Z" fill="black"/>
<path d="M800.302 117.409C793.544 117.409 787.726 115.879 782.847 112.818C777.998 109.727 774.271 105.47 771.665 100.045C769.059 94.6212 767.756 88.4091 767.756 81.4091C767.756 74.3182 769.089 68.0606 771.756 62.6364C774.423 57.1818 778.18 52.9243 783.029 49.8637C787.877 46.8031 793.589 45.2728 800.165 45.2728C805.468 45.2728 810.195 46.2576 814.347 48.2273C818.498 50.1667 821.847 52.894 824.392 56.4091C826.968 59.9243 828.498 64.0303 828.983 68.7273H815.756C815.029 65.4546 813.362 62.6364 810.756 60.2728C808.18 57.9091 804.726 56.7273 800.392 56.7273C796.604 56.7273 793.286 57.7273 790.438 59.7273C787.62 61.697 785.423 64.5152 783.847 68.1818C782.271 71.8182 781.483 76.1212 781.483 81.0909C781.483 86.1819 782.256 90.5758 783.802 94.2728C785.347 97.9697 787.529 100.833 790.347 102.864C793.195 104.894 796.544 105.909 800.392 105.909C802.968 105.909 805.302 105.439 807.392 104.5C809.514 103.53 811.286 102.152 812.711 100.364C814.165 98.5758 815.18 96.4243 815.756 93.9091H828.983C828.498 98.4243 827.029 102.455 824.574 106C822.12 109.545 818.832 112.333 814.711 114.364C810.62 116.394 805.817 117.409 800.302 117.409Z" fill="black"/>
<path d="M857.108 74.5455V116H843.517V22.9091H856.927V57.5455H857.79C859.427 53.7879 861.927 50.8031 865.29 48.5909C868.654 46.3788 873.048 45.2728 878.472 45.2728C883.26 45.2728 887.442 46.2576 891.017 48.2273C894.623 50.197 897.411 53.1364 899.381 57.0455C901.381 60.9243 902.381 65.7728 902.381 71.5909V116H888.79V73.2273C888.79 68.1061 887.472 64.1364 884.836 61.3182C882.199 58.4697 878.533 57.0455 873.836 57.0455C870.624 57.0455 867.745 57.7273 865.199 59.0909C862.684 60.4546 860.699 62.4546 859.245 65.0909C857.82 67.697 857.108 70.8485 857.108 74.5455Z" fill="black"/>
<path d="M949.927 117.409C943.381 117.409 937.669 115.909 932.79 112.909C927.911 109.909 924.123 105.712 921.427 100.318C918.73 94.9243 917.381 88.6212 917.381 81.4091C917.381 74.1667 918.73 67.8334 921.427 62.4091C924.123 56.9849 927.911 52.7728 932.79 49.7728C937.669 46.7728 943.381 45.2728 949.927 45.2728C956.472 45.2728 962.184 46.7728 967.063 49.7728C971.942 52.7728 975.73 56.9849 978.427 62.4091C981.123 67.8334 982.472 74.1667 982.472 81.4091C982.472 88.6212 981.123 94.9243 978.427 100.318C975.73 105.712 971.942 109.909 967.063 112.909C962.184 115.909 956.472 117.409 949.927 117.409ZM949.972 106C954.214 106 957.729 104.879 960.517 102.636C963.305 100.394 965.366 97.4091 966.699 93.6818C968.063 89.9546 968.745 85.8485 968.745 81.3637C968.745 76.9091 968.063 72.8182 966.699 69.0909C965.366 65.3334 963.305 62.3182 960.517 60.0455C957.729 57.7728 954.214 56.6364 949.972 56.6364C945.699 56.6364 942.154 57.7728 939.336 60.0455C936.548 62.3182 934.472 65.3334 933.108 69.0909C931.775 72.8182 931.108 76.9091 931.108 81.3637C931.108 85.8485 931.775 89.9546 933.108 93.6818C934.472 97.4091 936.548 100.394 939.336 102.636C942.154 104.879 945.699 106 949.972 106Z" fill="black"/>
<path d="M997.642 116V46.1818H1011.23V116H997.642ZM1004.51 35.4091C1002.14 35.4091 1000.11 34.6212 998.415 33.0455C996.748 31.4394 995.915 29.5303 995.915 27.3182C995.915 25.0758 996.748 23.1667 998.415 21.5909C1000.11 19.9849 1002.14 19.1818 1004.51 19.1818C1006.87 19.1818 1008.88 19.9849 1010.55 21.5909C1012.25 23.1667 1013.1 25.0758 1013.1 27.3182C1013.1 29.5303 1012.25 31.4394 1010.55 33.0455C1008.88 34.6212 1006.87 35.4091 1004.51 35.4091Z" fill="black"/>
<path d="M1058.93 117.409C1052.17 117.409 1046.35 115.879 1041.47 112.818C1036.62 109.727 1032.9 105.47 1030.29 100.045C1027.68 94.6212 1026.38 88.4091 1026.38 81.4091C1026.38 74.3182 1027.71 68.0606 1030.38 62.6364C1033.05 57.1818 1036.81 52.9243 1041.65 49.8637C1046.5 46.8031 1052.21 45.2728 1058.79 45.2728C1064.09 45.2728 1068.82 46.2576 1072.97 48.2273C1077.12 50.1667 1080.47 52.894 1083.02 56.4091C1085.59 59.9243 1087.12 64.0303 1087.61 68.7273H1074.38C1073.65 65.4546 1071.99 62.6364 1069.38 60.2728C1066.81 57.9091 1063.35 56.7273 1059.02 56.7273C1055.23 56.7273 1051.91 57.7273 1049.06 59.7273C1046.24 61.697 1044.05 64.5152 1042.47 68.1818C1040.9 71.8182 1040.11 76.1212 1040.11 81.0909C1040.11 86.1819 1040.88 90.5758 1042.43 94.2728C1043.97 97.9697 1046.15 100.833 1048.97 102.864C1051.82 104.894 1055.17 105.909 1059.02 105.909C1061.59 105.909 1063.93 105.439 1066.02 104.5C1068.14 103.53 1069.91 102.152 1071.34 100.364C1072.79 98.5758 1073.81 96.4243 1074.38 93.9091H1087.61C1087.12 98.4243 1085.65 102.455 1083.2 106C1080.74 109.545 1077.46 112.333 1073.34 114.364C1069.24 116.394 1064.44 117.409 1058.93 117.409Z" fill="black"/>
<path d="M1132.23 117.409C1125.35 117.409 1119.43 115.939 1114.46 113C1109.52 110.03 1105.7 105.864 1103.01 100.5C1100.34 95.1061 1099.01 88.7879 1099.01 81.5455C1099.01 74.394 1100.34 68.0909 1103.01 62.6364C1105.7 57.1818 1109.46 52.9243 1114.28 49.8637C1119.13 46.8031 1124.79 45.2728 1131.28 45.2728C1135.22 45.2728 1139.04 45.9243 1142.73 47.2273C1146.43 48.5303 1149.75 50.5758 1152.69 53.3637C1155.63 56.1515 1157.95 59.7728 1159.64 64.2273C1161.34 68.6515 1162.19 74.0303 1162.19 80.3637V85.1818H1106.69V75H1148.87C1148.87 71.4243 1148.14 68.2576 1146.69 65.5C1145.23 62.7122 1143.19 60.5152 1140.55 58.9091C1137.95 57.3031 1134.88 56.5 1131.37 56.5C1127.55 56.5 1124.22 57.4394 1121.37 59.3182C1118.55 61.1667 1116.37 63.5909 1114.82 66.5909C1113.31 69.5606 1112.55 72.7879 1112.55 76.2728V84.2273C1112.55 88.894 1113.37 92.8637 1115.01 96.1364C1116.67 99.4091 1118.99 101.909 1121.96 103.636C1124.93 105.333 1128.4 106.182 1132.37 106.182C1134.95 106.182 1137.29 105.818 1139.42 105.091C1141.54 104.333 1143.37 103.212 1144.92 101.727C1146.46 100.242 1147.64 98.4091 1148.46 96.2273L1161.32 98.5455C1160.29 102.333 1158.45 105.652 1155.78 108.5C1153.14 111.318 1149.82 113.515 1145.82 115.091C1141.85 116.636 1137.32 117.409 1132.23 117.409Z" fill="black"/>
<path d="M38.032 131.59C38.0691 131.614 38.1185 131.602 38.1555 131.627C38.4471 131.789 38.7731 131.879 39.1065 131.89C39.2901 131.89 39.4729 131.865 39.6499 131.816L84.3909 119.602L129.132 131.816C129.309 131.865 129.492 131.89 129.675 131.89C130.008 131.88 130.333 131.788 130.622 131.623C130.663 131.602 130.709 131.61 130.746 131.586L167.796 108.936C168.179 108.701 168.475 108.347 168.638 107.929C168.802 107.51 168.824 107.05 168.702 106.617L148.184 34.5496C148.1 34.2495 147.949 33.9723 147.742 33.7392C147.535 33.5061 147.278 33.3231 146.99 33.2041C146.702 33.0851 146.391 33.0331 146.08 33.0522C145.769 33.0713 145.467 33.1608 145.195 33.3141L124.768 44.7791C124.321 45.0616 123.999 45.5053 123.869 46.0184C123.74 46.5315 123.812 47.0748 124.072 47.536C124.331 47.9971 124.758 48.3409 125.264 48.4961C125.77 48.6514 126.316 48.6063 126.789 48.3701L144.94 38.1777L164.318 106.234L131.322 126.409L123.484 63.6855C123.416 63.1433 123.136 62.6501 122.704 62.3145C122.273 61.979 121.727 61.8285 121.184 61.8962C120.642 61.9639 120.149 62.2443 119.814 62.6756C119.478 63.1069 119.328 63.6539 119.396 64.1962L127.246 127.035L86.4493 115.895V104.653C86.4493 104.107 86.2324 103.583 85.8464 103.197C85.4604 102.811 84.9368 102.594 84.3909 102.594C83.845 102.594 83.3214 102.811 82.9354 103.197C82.5494 103.583 82.3325 104.107 82.3325 104.653V115.895L41.5313 127.035L49.3819 64.1962C49.4155 63.9277 49.3958 63.6552 49.324 63.3943C49.2523 63.1334 49.1299 62.8892 48.9638 62.6756C48.7977 62.462 48.5911 62.2833 48.356 62.1495C48.1208 62.0158 47.8616 61.9297 47.5932 61.8962C47.3248 61.8627 47.0524 61.8824 46.7916 61.9541C46.5308 62.0259 46.2867 62.1484 46.0732 62.3145C45.8596 62.4807 45.681 62.6873 45.5473 62.9225C45.4136 63.1577 45.3275 63.417 45.294 63.6855L37.4598 126.409L4.46397 106.238L23.8416 38.1859L41.9924 48.3784C42.4658 48.6145 43.0119 48.6596 43.5177 48.5044C44.0235 48.3491 44.4503 48.0054 44.7098 47.5442C44.9694 47.0831 45.0419 46.5398 44.9123 46.0267C44.7828 45.5135 44.4611 45.0699 44.0137 44.7873L23.5822 33.3183C23.3116 33.1633 23.0091 33.0723 22.6979 33.0524C22.3867 33.0325 22.075 33.0842 21.7869 33.2035C21.4987 33.3227 21.2417 33.5065 21.0356 33.7405C20.8294 33.9746 20.6796 34.2527 20.5976 34.5537L0.0796255 106.621C-0.0444719 107.054 -0.0230427 107.515 0.140613 107.934C0.304268 108.353 0.601072 108.706 0.985313 108.94L38.032 131.59Z" fill="black"/>
<path d="M82.9969 96.3426C83.3749 96.6916 83.8697 96.8864 84.384 96.8887C84.8982 96.891 85.3948 96.7006 85.7758 96.355C87.1466 95.1072 119.385 65.5141 119.385 35.1139C119.385 15.4827 104.017 0.109619 84.3925 0.109619C64.7679 0.109619 49.4001 15.4827 49.4001 35.1139C49.4001 64.987 81.6261 95.0742 82.9969 96.3426ZM84.3925 4.22777C101.992 4.22777 115.268 17.5047 115.268 35.1139C115.268 60.2223 90.5965 85.9196 84.4049 91.9733C78.2256 85.8496 53.5168 59.8146 53.5168 35.1139C53.5168 17.5047 66.7934 4.22777 84.3925 4.22777Z" fill="black"/>
<path d="M102.92 35.114C102.92 24.8969 94.6081 16.5823 84.3944 16.5823C74.1807 16.5823 65.869 24.8969 65.869 35.114C65.869 45.3311 74.1807 53.6457 84.3944 53.6457C94.6081 53.6457 102.92 45.3311 102.92 35.114ZM84.3944 49.5275C76.4491 49.5275 69.9858 43.062 69.9858 35.114C69.9858 27.166 76.4491 20.7005 84.3944 20.7005C92.3398 20.7005 98.8031 27.166 98.8031 35.114C98.8031 43.062 92.3398 49.5275 84.3944 49.5275Z" fill="black"/>
<path d="M127.683 58.3973L140.856 49.7809L157.07 105.027L134.776 117.699L127.683 58.3973Z" fill="url(#paint0_linear_308_8629)" fill-opacity="0.63"/>
<path d="M33.9472 116.178L10.6405 103L25.8408 46.7399L42.5612 59.9179L33.9472 116.178Z" fill="url(#paint1_linear_308_8629)" fill-opacity="0.63"/>
<path d="M92.2154 36.0959C92.2154 40.8546 88.5858 44.7124 84.1085 44.7124C79.6312 44.7124 76.0017 40.8546 76.0017 36.0959C76.0017 31.3372 79.6312 27.4795 84.1085 27.4795C88.5858 27.4795 92.2154 31.3372 92.2154 36.0959Z" fill="url(#paint2_linear_308_8629)"/>
<defs>
<linearGradient id="paint0_linear_308_8629" x1="581.094" y1="0.109619" x2="581.094" y2="131.89" gradientUnits="userSpaceOnUse">
<stop stop-color="#89CFF0"/>
<stop offset="1" stop-color="white"/>
</linearGradient>
<linearGradient id="paint1_linear_308_8629" x1="670.847" y1="-10.5325" x2="670.847" y2="156.072" gradientUnits="userSpaceOnUse">
<stop stop-color="#89CFF0"/>
<stop offset="1" stop-color="white"/>
</linearGradient>
<linearGradient id="paint2_linear_308_8629" x1="84.1083" y1="27.4795" x2="84.1083" y2="44.7124" gradientUnits="userSpaceOnUse">
<stop stop-color="#89CFF0"/>
<stop offset="1" stop-color="white"/>
</linearGradient>
</defs>
</svg>
