<svg width="300" height="52" viewBox="0 0 300 52" fill="none" xmlns="http://www.w3.org/2000/svg">
<path d="M36.3346 20.4899C36.1402 20.4899 35.9767 20.4949 35.8847 20.5052C35.7773 20.6996 35.6188 20.9604 35.3835 21.3236C39.0444 21.3236 42.3679 21.6253 46.0441 22.285L45.0062 23.2875C41.6878 22.6993 38.9319 22.4641 35.4194 22.4641C34.9081 22.4641 34.8007 22.4641 34.678 22.4692C34.5553 22.6532 34.2791 23.0113 34.0031 23.3438C34.315 23.3233 34.9183 23.3131 35.7517 23.3131C38.6405 23.3131 41.3401 23.5278 44.2699 23.9984L43.2319 25.006C41.0027 24.6582 38.2775 24.4587 35.8334 24.4587C34.9643 24.4587 33.9775 24.4894 33.0929 24.5405C32.8936 24.7707 32.3721 25.3333 32.2136 25.5071C33.3844 25.3844 34.6729 25.3281 36.2067 25.3281C38.39 25.3281 40.4761 25.4714 42.4497 25.7629L41.4117 26.7602C40.0057 26.5863 38.2979 26.4841 36.7897 26.4841C32.8987 26.4841 29.8309 27.3279 26.6608 29.2663C29.6826 32.5088 34.632 34.5597 39.4279 34.5597H39.8778L38.2009 36.1812C31.283 34.882 24.0021 31.8389 17.8513 27.6705C11.9356 23.6762 9.86484 22.4948 5.24786 20.4542L5.2172 19.2675L8.3412 20.6075L9.4047 19.7636L19.605 24.4383L18.9403 24.9701L13.7047 22.6943L13.1882 23.0982L15.9084 24.6173C18.2041 25.8959 19.9527 26.4687 21.5684 26.4687C25.1015 26.4687 28.2715 23.9626 30.3166 19.5591C31.8557 19.3596 33.4969 19.2675 35.4705 19.2675C39.5199 19.2675 43.4517 19.6562 47.9052 20.4899L46.8212 21.5383C44.0501 20.9604 39.341 20.4899 36.3346 20.4899ZM26.4205 49.6166C13.1507 49.6166 2.38651 38.8493 2.38651 25.5756C2.38651 12.3019 13.1507 1.53443 26.4205 1.53443C39.6903 1.53443 50.4545 12.3019 50.4545 25.5756C50.4545 38.8493 39.6903 49.6166 26.4205 49.6166ZM26.4205 3.8147e-06C12.2814 3.8147e-06 0.852295 11.4322 0.852295 25.5756C0.852295 39.7189 12.2814 51.1513 26.4205 51.1513C40.5597 51.1513 51.9888 39.7189 51.9888 25.5756C51.9888 11.4322 40.5597 3.8147e-06 26.4205 3.8147e-06ZM93.9691 35.7572H108.628V42.6261H86.0796V8.52507H93.9691V35.7572ZM126.355 18.0734H133.709V42.6261H126.794V39.8006C125.771 41.7005 123.677 43.3567 119.829 43.3567C113.547 43.3567 110.284 40.5312 110.284 32.4445V18.0734H117.638V32.1033C117.638 35.3674 119.051 36.8287 122.021 36.8287C124.7 36.8287 126.355 35.3674 126.355 32.1033V18.0734ZM139.359 17.148C139.359 11.2048 143.109 8.03798 149.002 8.03798C150.901 8.03798 152.119 8.33031 152.119 8.33031V14.2735C152.119 14.2735 151.096 14.1764 150.219 14.1764C147.93 14.1764 146.713 14.9558 146.713 17.0992V18.0734H152.119V24.0655H146.713V42.6261H139.359V24.0655H135.658V18.0734H139.359V17.148ZM165.073 18.0734H170.673V24.0655H165.073V33.6137C165.073 36.2444 166.436 36.9264 168.579 36.9264C169.456 36.9264 170.673 36.7803 170.673 36.7803V42.6748C170.673 42.6748 168.969 43.0643 167.167 43.0643C161.274 43.0643 157.719 40.3851 157.719 34.4421V24.0655H154.018V18.0734H157.719V10.9123H165.073V18.0734ZM186.955 17.3427C193.189 17.3427 196.452 20.1681 196.452 28.2549V42.6261H189.098V28.5958C189.098 25.3321 187.685 23.8708 184.617 23.8708C181.841 23.8708 180.186 25.3321 180.186 28.5958V42.6261H172.832V8.57392H180.234V20.4604C181.501 18.6578 183.497 17.3427 186.955 17.3427ZM215.202 33.0777C215.202 35.7572 212.669 37.7547 208.773 37.7547C206.873 37.7547 205.754 36.8778 205.754 35.2212C205.754 33.9547 206.533 32.8831 209.017 32.5423L213.254 31.9574C213.984 31.8598 214.763 31.7139 215.202 31.5677V33.0777ZM211.111 17.3428C203.854 17.3428 200.348 20.1197 200.056 25.3322H207.215C207.312 23.968 208.091 22.945 211.111 22.945C213.789 22.945 215.056 23.8221 215.056 25.1371C215.056 26.3066 214.325 26.7449 212.523 26.9397L207.848 27.4268C201.516 28.1086 198.643 30.7395 198.643 35.5138C198.643 39.9468 201.37 43.3567 207.166 43.3567C211.111 43.3567 213.448 42.0901 215.494 39.5567V42.6261H222.215V26.5013C222.215 19.7298 218.27 17.3428 211.111 17.3428ZM239.219 17.3427C245.599 17.3427 248.862 20.1681 248.862 28.2549V42.6261H241.508V28.5958C241.508 25.3321 240.096 23.8708 237.028 23.8708C234.252 23.8708 232.596 25.3321 232.596 28.5958V42.6261H225.242V18.0735H232.158V20.8992C233.18 18.999 235.274 17.3427 239.219 17.3427ZM264.375 27.2319C270.609 28.0603 273.726 30.0088 273.726 35.1239C273.726 40.2878 270.073 43.3568 262.33 43.3568C253.904 43.3568 250.934 39.9957 250.788 35.075H258.044C258.239 36.8778 259.505 37.7547 262.33 37.7547C265.203 37.7547 266.372 37.0724 266.372 35.7086C266.372 34.4421 265.398 33.8575 262.865 33.5165L260.284 33.1752C254.878 32.4446 251.762 30.3499 251.762 25.4783C251.762 20.8016 255.219 17.3427 262.476 17.3427C269.196 17.3427 272.801 20.022 273.141 25.3321H265.982C265.739 23.9196 264.959 23.0425 262.476 23.0425C260.041 23.0425 259.115 23.8708 259.115 24.9427C259.115 26.0141 259.7 26.5987 261.794 26.8912L264.375 27.2319ZM292.135 33.0782C292.135 35.7573 289.602 37.7547 285.706 37.7547C283.807 37.7547 282.686 36.8778 282.686 35.2212C282.686 33.9547 283.466 32.8831 285.949 32.5423L290.187 31.9574C290.917 31.8603 291.696 31.7139 292.135 31.5677V33.0782ZM288.044 17.3428C280.787 17.3428 277.281 20.1197 276.989 25.3322H284.148C284.245 23.968 285.024 22.9453 288.044 22.9453C290.722 22.9453 291.989 23.8221 291.989 25.1374C291.989 26.3066 291.258 26.7449 289.456 26.9397L284.781 27.4268C278.45 28.109 275.576 30.7396 275.576 35.5138C275.576 39.9468 278.304 43.3567 284.099 43.3567C288.044 43.3567 290.382 42.0901 292.427 39.5567V42.6261H299.148V26.5013C299.148 19.7302 295.203 17.3428 288.044 17.3428Z" fill="#0A1D3D"/>
</svg>
