<svg width="300" height="85" viewBox="0 0 300 85" fill="none" xmlns="http://www.w3.org/2000/svg">
<g clip-path="url(#clip0_2_151)">
<path d="M55.0455 74.7041C54.4047 74.7474 53.7825 74.7865 53.1396 74.7865C52.4137 74.7865 51.7106 74.7247 50.9847 74.7041L53.0981 69.6406L55.0455 74.7041ZM57.387 80.4477C57.7603 80.4271 58.341 80.3261 58.9196 80.3261C59.5003 80.3261 60.2262 80.4271 60.5373 80.4477C59.604 78.4508 58.2352 75.3409 57.4492 73.55C56.7026 71.823 55.4603 68.9399 54.4669 66.1186C54.2387 66.1804 54.0293 66.2237 53.8032 66.2237C53.5543 66.2237 53.3469 66.1804 53.1188 66.1186C52.6231 67.8064 51.4182 70.4835 49.3276 75.1389L46.924 80.4477C47.2122 80.4065 47.5047 80.3261 47.8551 80.3261C48.187 80.3261 48.5831 80.4065 48.8506 80.4477C49.1804 79.2751 49.8441 77.5646 50.5056 75.9818C51.3352 75.9386 52.1648 75.8994 52.9923 75.8994C53.8841 75.8994 54.7551 75.9386 55.649 75.9818L56.5159 78.1643L57.387 80.4477Z" fill="#505967"/>
<path d="M62.3536 71.0809C62.3536 74.6008 62.3536 77.9992 62.1255 80.4475C62.5838 80.4289 63.1625 80.3259 63.6167 80.3259C64.0937 80.3259 64.5914 80.4289 65.0684 80.4475C64.9025 78.7802 64.861 76.5566 64.861 73.49C64.861 71.4085 64.861 67.8494 65.0891 66.3244C64.5914 66.3862 64.075 66.4501 63.6167 66.4501C63.3076 66.4501 62.5382 66.3677 62.1462 66.3244C62.3536 68.3193 62.3536 69.7825 62.3536 71.0809Z" fill="#505967"/>
<path d="M74.676 73.4486C76.5633 73.0983 78.2826 71.9236 78.2826 69.6401C78.2826 68.7746 77.9507 67.9296 77.3306 67.332C76.4409 66.4891 75.4226 66.3242 74.0766 66.3242C73.5996 66.3242 71.1959 66.4273 70.6588 66.4273C69.601 66.4273 69.0618 66.3675 68.5869 66.3242C68.73 68.9807 68.73 69.2692 68.73 71.9669C68.73 75.9381 68.7093 76.3915 68.5454 80.4473C69.0017 80.3875 69.4994 80.3257 69.9723 80.3257C70.4928 80.3257 70.947 80.4061 71.3618 80.4473C71.3618 79.9135 71.2789 77.2571 71.2789 76.6594V73.7371H71.7766C72.8965 75.3013 74.1782 77.1128 75.2359 78.7409C75.547 79.2128 76.0033 79.9754 76.3144 80.4473C76.9366 80.3649 77.1854 80.3257 77.9943 80.3257C78.7388 80.3257 79.2573 80.3875 79.8359 80.4473C78.5314 78.8233 77.9694 78.102 76.3351 75.8165C76.024 75.3838 75.5678 74.7037 75.2567 74.273L74.676 73.4486ZM71.2789 67.4371C71.59 67.4144 72.3573 67.332 72.7514 67.332C73.4337 67.332 74.1202 67.4371 74.676 67.8493C75.4019 68.383 75.547 69.1249 75.547 69.9905C75.547 71.3259 74.7818 72.8324 72.7099 72.8324C72.1707 72.8324 71.6729 72.7891 71.2789 72.7685V67.4371Z" fill="#505967"/>
<path d="M85.4679 75.6317C84.4973 72.7691 83.1492 68.7546 82.5063 66.3248C81.9878 66.4073 81.5336 66.4485 81.0566 66.4485C80.5589 66.4485 79.8538 66.3681 79.439 66.3248C80.2893 68.5485 81.0131 70.5228 81.5751 72.0891C82.5291 74.7661 83.1492 76.6209 83.8959 78.8817L84.4123 80.4479C84.7026 80.3881 85.0324 80.3263 85.2626 80.3263C85.4907 80.3263 85.6981 80.3655 86.0486 80.4479C86.3804 79.3783 86.7745 78.0614 87.0669 77.2165C87.8716 74.8692 87.9774 74.5394 89.0351 71.6171L89.6552 69.9087C89.8833 70.5661 90.2774 71.6171 90.5034 72.2745C90.7316 72.9134 91.7893 76.0645 92.0382 76.7651C92.37 77.6905 92.4509 77.9563 93.2182 80.4479C93.4049 80.4273 93.7969 80.3263 94.11 80.3263C94.4004 80.3263 94.6264 80.3881 94.9375 80.4479C95.7256 77.9996 95.8086 77.7523 96.9679 74.457C98.1086 71.2441 98.8116 69.4141 100.054 66.3248C99.7428 66.4073 99.4359 66.4485 99.1227 66.4485C98.7287 66.4485 98.3989 66.3867 98.1708 66.3248C97.4242 69.0019 97.0529 70.3002 96.4515 72.0684C95.4767 74.9495 95.3523 75.2793 94.7529 76.8455C94.0893 75.0752 93.4464 73.2823 92.8449 71.4729C92.5152 70.4837 91.248 66.3681 91.2293 66.3248C90.941 66.3867 90.7316 66.4485 90.3168 66.4485C89.9476 66.4485 89.6739 66.3681 89.4063 66.3248C88.7841 68.837 86.5878 74.8898 86.3804 75.4462L85.862 76.7837L85.4679 75.6317Z" fill="#505967"/>
<path d="M106.375 74.7041C105.732 74.7474 105.112 74.7865 104.467 74.7865C103.744 74.7865 103.038 74.7247 102.315 74.7041L104.426 69.6406L106.375 74.7041ZM108.715 80.4477C109.09 80.4271 109.671 80.3261 110.249 80.3261C110.83 80.3261 111.556 80.4271 111.865 80.4477C110.934 78.4508 109.565 75.3409 108.777 73.55C108.03 71.823 106.788 68.9399 105.795 66.1186C105.566 66.1804 105.359 66.2237 105.131 66.2237C104.884 66.2237 104.675 66.1804 104.447 66.1186C103.951 67.8064 102.748 70.4835 100.655 75.1389L98.2517 80.4477C98.5441 80.4065 98.8324 80.3261 99.185 80.3261C99.5168 80.3261 99.9088 80.4065 100.18 80.4477C100.51 79.2751 101.176 77.5646 101.838 75.9818C102.665 75.9386 103.495 75.8994 104.322 75.8994C105.214 75.8994 106.083 75.9386 106.975 75.9818L107.846 78.1643L108.715 80.4477Z" fill="#505967"/>
<path d="M117.413 74.9306C117.413 74.7471 117.537 74.5204 117.682 74.2711C118.553 72.7893 119.36 71.2437 120.293 69.7619C120.602 69.2673 122.116 66.8808 122.429 66.3244C122.199 66.4068 121.971 66.4501 121.558 66.4501C121.1 66.4501 120.685 66.3862 120.353 66.3244C118.862 69.5785 118.53 70.2771 116.772 73.2839C115.011 70.2174 114.223 68.5914 113.144 66.3244C112.545 66.4275 111.942 66.4501 111.446 66.4501C110.99 66.4501 110.513 66.4068 109.747 66.3244C110.824 68.1153 112.587 70.9572 113.642 72.7687L114.864 74.8687C114.864 76.1465 114.802 78.8421 114.741 80.4475C115.133 80.4063 115.714 80.3259 116.127 80.3259C116.604 80.3259 117.083 80.4063 117.56 80.4475C117.475 78.5329 117.413 77.4221 117.413 75.691V74.9306Z" fill="#505967"/>
<path d="M123.623 77.3614C123.521 78.3485 123.499 78.6164 123.146 79.686C123.893 80.057 125.241 80.737 127.02 80.737C130.813 80.737 132.284 78.33 132.284 76.2279C132.284 75.6508 132.139 74.4349 131.27 73.5096C130.668 72.8501 130.046 72.6255 128.451 72.0072C126.63 71.3066 125.57 70.8944 125.57 69.392C125.57 68.1782 126.379 67.1683 128.016 67.1683C129.32 67.1683 130.421 67.7866 130.73 68.9592H131.021C131.207 68.1782 131.249 68.0133 131.664 67.0035C130.647 66.5521 129.735 66.1606 128.223 66.1606C124.471 66.1606 123.395 68.4667 123.395 70.2761C123.395 71.9866 123.998 73.0377 126.006 73.9218C126.585 74.1691 127.561 74.538 128.14 74.7873C128.534 74.9502 129.841 75.5251 129.841 77.1532C129.841 78.637 128.76 79.7293 127.126 79.7293C125.902 79.7293 124.865 79.4202 123.913 77.3614H123.623Z" fill="#505967"/>
<path d="M8.5156 39.3105C8.5156 23.7468 16.9068 19.5448 23.2489 19.5448C33.4423 19.5448 37.8556 27.9469 37.8556 36.9034C37.8556 42.0287 37.2335 46.847 34.6846 50.74C32.1357 54.6288 27.9111 56.9782 23.309 56.9782C11.8111 56.9782 8.5156 46.1051 8.5156 39.3105ZM39.4712 71.1239C41.3357 69.8256 44.2579 68.2202 46.3712 67.2928L32.3244 58.6434C40.9624 55.618 46.3712 47.9578 46.3712 37.5196C46.3712 22.6979 34.9957 16.3958 23.3712 16.3958C10.8177 16.3958 0 23.3141 0 39.0034C0 42.3358 0.746618 48.6379 5.96673 53.889C11.3756 59.3255 17.7778 60.1272 23.1867 60.1272C23.869 60.1272 24.5513 60.1272 25.2378 60.0674L39.4712 71.1239Z" fill="#5C0632"/>
<path d="M75.3694 42.0294C73.4407 42.1551 71.5783 42.2787 69.6474 42.2787C67.4739 42.2787 65.3606 42.0912 63.1871 42.0294L69.5271 26.8346L75.3694 42.0294ZM82.3939 59.2623C83.5117 59.2004 85.2538 58.8913 86.9918 58.8913C88.736 58.8913 90.9074 59.2004 91.8427 59.2623C89.045 53.2713 84.9427 43.9439 82.5784 38.5692C80.3407 33.382 76.6117 24.7326 73.6294 16.2707C72.945 16.4582 72.3228 16.5819 71.6405 16.5819C70.8939 16.5819 70.2717 16.4582 69.5893 16.2707C68.0961 21.3383 64.4916 29.3674 58.2138 43.3256L51.0006 59.2623C51.8717 59.1407 52.7427 58.8913 53.7984 58.8913C54.7918 58.8913 55.976 59.1407 56.7828 59.2623C57.7762 55.7403 59.7692 50.6149 61.7561 45.8584C64.2406 45.7368 66.7273 45.6132 69.214 45.6132C71.8873 45.6132 74.4984 45.7368 77.1737 45.8584L79.7807 52.4078L82.3939 59.2623Z" fill="#5C0632"/>
<path d="M109.977 27.9471C109.977 25.5998 110.037 23.2524 110.099 21.0267C114.388 21.0267 118.804 21.0906 122.47 21.4595C122.284 20.4723 122.159 19.918 122.159 19.2379C122.159 18.7433 122.284 17.9375 122.47 16.8906C116.504 17.1976 111.033 17.2595 105.873 17.2595C101.086 17.2595 94.186 17.1976 89.2749 16.8906C89.4636 17.6325 89.586 18.4342 89.586 19.1761C89.586 19.918 89.4636 20.7196 89.2749 21.4595C92.448 21.1524 98.4148 21.0267 98.9726 21.0267H102.081C102.144 23.4379 102.206 25.5998 102.206 27.8853L102.268 45.1161C102.268 49.8128 101.897 54.5693 101.646 59.2618C103.884 59.0166 104.817 58.8929 105.873 58.8929C106.619 58.8929 108.608 59.0784 110.413 59.2618C110.224 57.5348 109.977 55.4946 109.977 50.802V27.9471Z" fill="#5C0632"/>
<path d="M144.575 42.0294C142.649 42.1551 140.784 42.2787 138.857 42.2787C136.68 42.2787 134.568 42.0912 132.391 42.0294L138.733 26.8346L144.575 42.0294ZM151.6 59.2623C152.718 59.2004 154.46 58.8913 156.2 58.8913C157.94 58.8913 160.115 59.2004 161.049 59.2623C158.251 53.2713 154.149 43.9439 151.786 38.5692C149.549 33.382 145.818 24.7326 142.835 16.2707C142.151 16.4582 141.529 16.5819 140.846 16.5819C140.1 16.5819 139.477 16.4582 138.793 16.2707C137.304 21.3383 133.697 29.3674 127.418 43.3256L120.208 59.2623C121.077 59.1407 121.951 58.8913 123.006 58.8913C124 58.8913 125.18 59.1407 125.991 59.2623C126.986 55.7403 128.973 50.6149 130.962 45.8584C133.446 45.7368 135.933 45.6132 138.422 45.6132C141.095 45.6132 143.706 45.7368 146.377 45.8584L148.989 52.4078L151.6 59.2623Z" fill="#5C0632"/>
<path d="M186.083 38.264C191.739 37.2129 196.899 33.693 196.899 26.8345C196.899 24.2398 195.903 21.707 194.037 19.9182C191.365 17.3854 188.319 16.8908 184.279 16.8908C182.848 16.8908 175.639 17.1979 174.021 17.1979C170.85 17.1979 169.234 17.0124 167.807 16.8908C168.241 24.8581 168.241 25.7216 168.241 33.8125C168.241 45.7367 168.179 47.0927 167.683 59.2621C169.05 59.0787 170.541 58.8911 171.97 58.8911C173.523 58.8911 174.892 59.1405 176.134 59.2621C176.134 57.6546 175.887 49.6894 175.887 47.8964V39.1254H177.381C180.736 43.8201 184.592 49.2566 187.761 54.1367C188.692 55.5587 190.059 57.8442 190.99 59.2621C192.856 59.0168 193.603 58.8911 196.025 58.8911C198.263 58.8911 199.819 59.0787 201.559 59.2621C197.643 54.384 195.967 52.2222 191.054 45.3657C190.121 44.0674 188.754 42.0292 187.821 40.7329L186.083 38.264ZM175.887 20.2253C176.819 20.1655 179.119 19.9182 180.301 19.9182C182.352 19.9182 184.401 20.2253 186.083 21.4597C188.256 23.0672 188.692 25.2888 188.692 27.8855C188.692 31.9 186.392 36.4092 180.176 36.4092C178.559 36.4092 177.068 36.2835 175.887 36.2258V20.2253Z" fill="#5C0632"/>
<path d="M279.004 38.3813C279.004 38.779 273.377 39.152 265.345 39.4653C263.926 38.6657 262.85 37.8619 262.062 37.1695C271.803 37.5116 279.004 37.9341 279.004 38.3813Z" fill="#747F8A"/>
<path d="M273.234 24.9059C273.234 25.2377 268.518 25.5489 261.775 25.8168C262.742 25.2562 263.737 24.6916 264.782 24.1248C269.876 24.3577 273.234 24.6277 273.234 24.9059Z" fill="#747F8A"/>
<path d="M222.995 53.896C219.874 53.9331 217.137 53.9475 214.998 53.9475C211.921 53.9475 209.428 53.0057 209.428 51.8372C209.428 50.6749 211.921 49.7331 214.998 49.7331C217.723 49.7331 221.415 49.7619 225.65 49.8155C224.012 52.1649 223.234 53.5766 223.161 53.6652C223.114 53.7332 223.054 53.8136 222.995 53.896Z" fill="#747F8A"/>
<path d="M224.677 56.7183C225.705 57.9528 226.693 58.9915 228.014 60.127C228.014 60.127 228.512 60.8339 230.023 60.228C231.562 59.6056 232.867 58.7586 234.337 56.7987C238.63 56.8708 243.183 56.9656 247.664 57.0666C248.034 57.6004 248.782 58.705 249.705 60.0672C237.212 60.3887 223.652 60.5804 216.707 60.5804C213.814 60.5804 211.466 59.688 211.466 58.5958C211.466 57.4973 213.814 56.6112 216.707 56.6112C218.822 56.6112 221.547 56.6256 224.666 56.6606C224.664 56.6895 224.677 56.7183 224.677 56.7183Z" fill="#747F8A"/>
<path d="M219.844 67.0715C217.276 67.0715 215.196 66.2863 215.196 65.3177C215.196 64.347 217.276 63.5598 219.844 63.5598C226.636 63.5598 240.56 63.7659 252.486 64.1018C253.06 64.9199 253.635 65.734 254.18 66.4821C241.902 66.8407 226.957 67.0715 219.844 67.0715Z" fill="#747F8A"/>
<path d="M259.45 72.7013C249.435 73.1382 232.215 73.4309 225.06 73.4309C223.046 73.4309 221.41 72.8064 221.41 72.0501C221.41 71.2876 223.046 70.6673 225.06 70.6673C231.904 70.6673 247.977 70.9352 258.121 71.337C258.579 71.8255 259.027 72.285 259.45 72.7013Z" fill="#747F8A"/>
<path d="M233.322 76.434C239.231 76.434 257.218 76.8771 257.218 77.4129C257.218 77.957 239.229 78.3959 233.322 78.3959C232.171 78.3959 231.24 77.957 231.24 77.4129C231.24 76.8771 232.171 76.434 233.322 76.434Z" fill="#747F8A"/>
<path d="M233.387 40.2935C225.95 40.4192 219.287 40.4893 214.998 40.4893C211.922 40.4893 209.427 39.5475 209.427 38.381C209.427 37.2166 211.922 36.2707 214.998 36.2707C219.979 36.2707 228.165 36.3655 237.04 36.5324C235.721 37.8287 234.501 39.09 233.387 40.2935Z" fill="#747F8A"/>
<path d="M269.866 30.8677C274.223 31.1027 276.965 31.3603 276.965 31.6282C276.965 31.9229 273.647 32.2052 268.511 32.4567C269.609 31.6364 269.849 30.9213 269.866 30.8677Z" fill="#747F8A"/>
<path d="M216.708 33.6095C213.813 33.6095 211.465 32.7234 211.465 31.627C211.465 30.5327 213.813 29.6424 216.708 29.6424C222.645 29.6424 233.415 29.7866 244.219 30.0236C242.893 31.1344 241.637 32.2329 240.45 33.3107C230.968 33.5003 221.955 33.6095 216.708 33.6095Z" fill="#747F8A"/>
<path d="M248.994 26.2133C237.949 26.4915 225.982 26.6626 219.843 26.6626C217.276 26.6626 215.198 25.8774 215.198 24.9067C215.198 23.936 217.276 23.1467 219.843 23.1467C226.619 23.1467 240.51 23.3569 252.419 23.6908C251.825 24.1195 251.228 24.5481 250.622 24.9974C250.071 25.4054 249.527 25.8073 248.994 26.2133Z" fill="#747F8A"/>
<path d="M225.059 19.5526C223.046 19.5526 221.409 18.9364 221.409 18.1718C221.409 17.4093 223.046 16.789 225.059 16.789C232.656 16.789 251.604 17.1229 261.227 17.5989C260.613 17.9987 259.999 18.413 259.379 18.8293C249.349 19.26 232.2 19.5526 225.059 19.5526Z" fill="#747F8A"/>
<path d="M214.424 47.2559C211.292 47.2559 208.75 46.2976 208.75 45.1085C208.75 43.9276 211.292 42.9652 214.424 42.9652C218.35 42.9652 224.226 43.0229 230.87 43.1239C229.622 44.583 228.537 45.9349 227.608 47.1467C222.317 47.2168 217.693 47.2559 214.424 47.2559Z" fill="#747F8A"/>
<path d="M231.241 12.8072C231.241 12.2652 232.172 11.8263 233.323 11.8263C239.23 11.8263 257.219 12.2652 257.219 12.8072C257.219 13.3451 239.232 13.7861 233.323 13.7861C232.172 13.7861 231.241 13.3451 231.241 12.8072Z" fill="#747F8A"/>
<path d="M279.593 43.5214C279.635 44.591 279.628 45.6523 279.575 46.6931C269.109 47.1052 259.186 47.7317 259.186 48.4366C259.186 49.129 268.887 49.7493 279.232 50.1594C279.05 51.3465 278.815 52.5109 278.529 53.6526C268.332 54.0668 258.868 54.6768 258.868 55.3631C258.868 56.0246 267.703 56.6202 277.486 57.0345C277.038 58.2751 276.53 59.4807 275.96 60.6348C267.558 61.0367 260.615 61.5725 260.615 62.1578C260.615 62.7039 266.681 63.2088 274.327 63.5983C273.898 64.2928 273.45 64.9729 272.981 65.6159C272.484 66.3166 271.942 67.0111 271.37 67.6932C266.59 68.0539 263.309 68.464 263.309 68.903C263.309 69.2801 265.658 69.6325 269.279 69.9478C267.303 71.8912 264.968 73.7068 262.216 75.2916C262.216 75.2916 258.974 72.5177 256.299 69.278C253.914 66.3887 248.853 58.7718 247.663 57.0674C246.47 55.3631 245.686 54.8644 244.293 55.359C242.424 56.0164 240.253 56.3461 239.585 56.3461C238.917 56.3461 238.55 56.0885 239.67 55.6475C240.786 55.2003 245.197 53.1312 247.368 48.8549C249.807 44.0387 247.663 37.3883 247.663 37.3883C246.844 40.9433 244.981 42.2705 244.981 42.2705C245.583 38.969 244.927 35.9766 243.287 33.8766L242.372 38.056C242.372 38.056 241.8 38.0272 240.383 39.2101C238.969 40.3951 238.579 42.1221 238.579 42.1221C239.693 42.5672 241.032 41.4564 241.032 41.4564C239.321 47.8183 236.868 52.9972 235.078 55.7361C233.29 58.475 231.816 59.5075 230.024 60.2309C228.512 60.8326 228.014 60.1258 228.014 60.1258C226.693 58.9923 225.706 57.9536 224.677 56.7192C224.677 56.7192 224.594 56.5749 224.872 56.579C225.608 56.5893 226.919 55.3384 227.205 54.819C227.533 54.2235 227.498 53.768 227.334 53.7371C227.172 53.7103 226.892 54.1822 225.472 55.0725C224.059 55.9608 223.41 55.3446 222.939 54.85C222.574 54.4563 222.933 53.97 223.161 53.665C223.377 53.3929 230.849 39.546 250.622 24.9984C276.534 5.9334 293.082 0.785362 294.03 0.414413C294.656 0.169167 295.679 -0.154388 295.911 0.0826111C296.168 0.350525 296.295 0.56485 296.259 0.876038C296.226 1.18517 296.06 1.34386 294.862 1.86938C284.915 6.22398 273.303 13.4823 266.706 17.7071C258.592 21.6351 250.846 27.2447 250.564 27.3787C249.94 27.7641 250.4 28.3246 250.778 28.0897C264.478 19.0343 280.541 12.8661 298.292 7.8129C299.14 7.57384 299.605 7.57384 299.746 7.75932C299.905 7.9654 299.974 8.20034 299.999 8.46001C300.021 8.78356 299.752 8.95461 299.024 9.23695C279.954 16.2768 265.899 22.816 256.859 28.8605C256.859 28.8605 255.923 29.421 255.911 30.0702C255.907 30.3175 256.413 30.3463 256.413 30.3463C260.938 30.4267 266.988 30.6905 269.866 30.8574C269.866 30.8574 269.456 32.3062 266.699 33.4727C264.572 34.3753 262.601 34.2311 260.652 34.2475C260.218 34.2393 259.851 34.6741 260.198 35.1378C260.372 35.3686 264.52 42.0046 279.593 43.5214Z" fill="#5C0632"/>
<path d="M141.404 78.2234H138.849C138.849 78.2234 138.505 76.6613 139.43 76.0637C140.359 75.4578 141.404 74.992 141.404 74.992V78.2234ZM153.528 72.3747C153.528 72.3747 151.975 73.2609 150.992 74.1306C150.015 74.992 151.193 75.3197 151.193 75.3197V78.2234H143.779V68.0613C143.779 68.0613 141.076 70.5302 140.823 70.8579C140.562 71.2083 141.466 71.5256 141.466 71.5256L141.313 72.4881C141.313 72.4881 140.237 73.0424 138.93 73.9204C137.632 74.788 136.669 75.8947 136.669 76.6613C136.669 77.43 136.342 80.4471 136.342 80.4471H153.528V72.3747ZM138.179 68.659C139.025 68.659 139.623 68.3272 139.623 67.6574C139.623 66.9856 139.227 66.5177 138.179 66.5177C137.248 66.5177 136.999 66.9217 136.999 67.6574C136.999 68.3993 137.323 68.659 138.179 68.659ZM141.34 68.659C142.194 68.659 142.773 68.3272 142.773 67.6574C142.773 66.9856 142.381 66.5177 141.34 66.5177C140.405 66.5177 140.16 66.9217 140.16 67.6574C140.16 68.3993 140.481 68.659 141.34 68.659ZM146.129 81.3209C145.204 81.3209 144.949 81.7145 144.949 82.4544C144.949 83.188 145.276 83.456 146.129 83.456C146.975 83.456 147.574 83.1221 147.574 82.4544C147.574 81.7805 147.184 81.3209 146.129 81.3209ZM149.414 81.3209C148.489 81.3209 148.236 81.7145 148.236 82.4544C148.236 83.188 148.572 83.456 149.414 83.456C150.272 83.456 150.861 83.1221 150.861 82.4544C150.861 81.7805 150.474 81.3209 149.414 81.3209ZM186.448 68.4591C187.3 68.4591 187.898 68.1355 187.898 67.4657C187.898 66.8001 187.504 66.324 186.448 66.324C185.525 66.324 185.274 66.728 185.274 67.4657C185.274 68.2035 185.604 68.4591 186.448 68.4591ZM189.731 68.4591C190.577 68.4591 191.17 68.1355 191.17 67.4657C191.17 66.8001 190.776 66.324 189.731 66.324C188.802 66.324 188.555 66.728 188.555 67.4657C188.555 68.2035 188.873 68.4591 189.731 68.4591ZM198.794 68.7352C198.332 69.133 198.467 69.609 199.053 69.5431V80.4615H201.488V66.8702C201.488 66.8702 199.248 68.3395 198.794 68.7352ZM189.009 74.858H187.433C187.433 73.9987 189.009 73.5226 189.009 73.5226V74.858ZM178.633 76.6613C178.633 77.057 178.615 77.702 178.596 78.2234H164.84V75.8205C165.198 74.8951 165.804 74.788 166.741 74.788H176.798C178.969 74.788 178.633 75.9235 178.633 76.6613ZM194.721 69.5307V78.2234H191.446V70.3303C191.446 70.3303 190.776 70.5859 189.858 70.9898C188.947 71.3999 185.654 72.7292 185.654 74.5262V76.6036H189.009V78.2234H181.05C181.056 77.8422 181.064 77.2816 181.064 76.4593C181.064 73.8688 178.843 72.4592 176.866 72.4592H167.664C166.053 72.4592 165.275 72.8466 164.84 73.2897V66.5981C164.84 66.5981 163.402 67.6018 162.347 68.3993C161.293 69.1969 162.347 69.7327 162.347 69.7327V78.2234H159.331L159.267 70.9362C159.267 70.9362 157.168 72.4592 156.567 72.9229C155.98 73.3845 156.305 73.7967 156.963 73.7967C156.963 73.7967 156.843 79.1776 156.843 80.4471C156.843 81.7248 155.779 83.1839 153.545 82.5203C153.545 82.5203 152.836 82.6563 153.425 83.188C154.012 83.7177 154.721 84.1216 155.515 84.1216C156.305 84.1216 159.201 83.5796 159.201 80.4471H197.148V66.8619C197.148 66.8619 194.914 68.3272 194.453 68.7249C193.991 69.1227 194.126 69.6008 194.721 69.5307Z" fill="#5C0632"/>
</g>
<defs>
<clipPath id="clip0_2_151">
<rect width="300" height="84.1216" fill="white"/>
</clipPath>
</defs>
</svg>
