<svg width="300" height="48" viewBox="0 0 300 48" fill="none" xmlns="http://www.w3.org/2000/svg">
<path d="M17.3232 24.0968C19.2931 16.6744 17.0454 8.89402 11.6665 4.77113C4.33919 9.41936 0.113613 18.1608 1.63992 27.2675C2.14346 30.2778 3.23299 33.0441 4.76618 35.4691C10.4935 33.8704 15.5318 30.8434 17.3232 24.0968ZM27.2123 45.522C39.305 43.4876 47.4587 32.0121 45.4269 19.8962C43.7368 9.81273 35.5329 2.46225 25.8597 1.44683C23.9064 1.24233 21.8893 1.29749 19.8556 1.63873C17.4429 2.04394 15.1952 2.82918 13.1467 3.91915C23.8034 7.54138 29.5336 13.0494 29.9312 18.6911C30.1274 22.1766 28.5099 24.696 26.3879 26.7491L41.4595 25.6945C41.8837 25.665 42.0191 26.1627 41.5007 26.3113L5.55632 36.6407C9.21555 41.6923 14.8987 45.0518 21.2072 45.7139C23.1605 45.9185 25.1775 45.8663 27.2123 45.522ZM25.9972 0.121891C37.8376 1.35641 47.069 11.382 47.074 23.5715C47.0788 36.6003 36.544 47.1649 23.5462 47.1698C10.5456 47.1747 0.00367879 36.6161 0.000734136 23.5892C-0.00417362 10.5604 10.5308 -0.0050354 23.5285 -0.00906754C24.3609 -0.00906754 25.1853 0.0372734 25.9972 0.121891Z" fill="white"/>
<path d="M1.64021 27.2675C2.14375 30.2778 3.23328 33.0441 4.76647 35.469C10.4938 33.8704 15.5321 30.8434 17.3235 24.0968C19.2934 16.6744 17.0457 8.89401 11.6668 4.77113C4.33947 9.41935 0.113901 18.1608 1.64021 27.2675ZM45.4272 19.8962C47.459 32.0121 39.3053 43.4876 27.2126 45.522C25.1778 45.8663 23.1607 45.9185 21.2074 45.7139C14.899 45.0518 9.21584 41.6923 5.55661 36.6407L41.501 26.3113C42.0194 26.1627 41.884 25.665 41.4598 25.6945L26.3882 26.7491C28.5102 24.6959 30.1277 22.1766 29.9314 18.6911C29.5339 13.0494 23.8037 7.54137 13.1469 3.91914C15.1955 2.82918 17.4432 2.04394 19.8559 1.63873C21.8896 1.29748 23.9067 1.24233 25.86 1.44682C35.5332 2.46225 43.7371 9.81273 45.4272 19.8962Z" fill="#CF181F"/>
<path d="M168.98 32.8316V25.0757H161.221V32.8316H156.961V14.3577H161.221V21.719H168.98V14.3577H173.269V32.8316H168.98Z" fill="#231F20"/>
<path d="M77.1884 14.3577V25.9247C77.1884 27.2016 77.3768 28.3073 77.7477 29.2075C78.1158 30.1007 78.6478 30.8415 79.333 31.412C80.025 31.9865 80.8563 32.4125 81.8083 32.6742C82.7753 32.9408 83.8678 33.0775 85.0523 33.0775C86.2401 33.0775 87.3199 32.9408 88.2669 32.6742C89.1994 32.4125 89.9945 31.9895 90.6327 31.4179C91.2687 30.8483 91.7692 30.1066 92.1177 29.2124C92.468 28.3152 92.6477 27.2095 92.6477 25.9247V14.3577H88.6597V25.8017C88.6597 26.9655 88.373 27.9079 87.8038 28.5985C87.2216 29.3019 86.2972 29.659 85.0523 29.659C83.8334 29.659 82.9157 29.3039 82.3237 28.6005C81.7428 27.9118 81.4483 26.9694 81.4483 25.8017V14.3577H77.1884Z" fill="#231F20"/>
<path d="M64.9042 32.8345V17.8087H59.8953V14.3577H74.2015V16.0113C74.2015 17.003 73.3966 17.8087 72.4101 17.8087H69.1641V32.8345H64.9042Z" fill="#231F20"/>
<path d="M133.36 32.8316V14.3557H137.62V32.8316H133.36Z" fill="#231F20"/>
<path d="M119.174 24.2179L119.319 24.4008L124.759 31.4278C125.451 32.324 126.497 32.8365 127.625 32.8365H131.018L123.223 22.8977L123.107 22.7531L123.223 22.6055L129.633 14.3509H125.198L119.321 22.3143L119.174 22.5061L119.171 22.1726V14.3509H114.911V32.8267H119.171V24.5455L119.174 24.2179Z" fill="#231F20"/>
<path d="M100.841 22.8131H103.324C104.217 22.8131 104.9 22.5671 105.349 22.0831C105.793 21.6039 106.018 20.9814 106.018 20.2337C106.018 19.4673 105.798 18.8347 105.366 18.3567C104.927 17.8696 104.24 17.6238 103.324 17.6238H100.841V22.8131ZM109.359 32.8287C108.097 32.8287 106.907 32.1577 106.254 31.0766L102.941 25.5922H100.841V32.8287H96.5837V14.3577H104.173C106.124 14.3577 107.651 14.8682 108.713 15.8735C109.771 16.8771 110.308 18.2534 110.308 19.9602C110.308 20.8267 110.077 21.7054 109.624 22.5711C109.174 23.422 108.379 24.1175 107.258 24.6409L107.013 24.755L112.183 32.8287H109.359Z" fill="#231F20"/>
<path d="M141.117 32.0475V28.5051C142.473 29.1307 144.22 29.7564 146.027 29.7564C148.105 29.7564 149.16 29.0412 149.16 27.6718C149.16 26.0644 147.744 25.8873 144.912 24.6664C142.984 23.8027 141.146 22.4638 141.146 19.3688C141.146 15.7683 143.887 14.0714 147.683 14.0714C149.702 14.0714 151.418 14.5476 152.382 14.9047V18.3567C151.418 17.9099 149.702 17.3738 147.985 17.3738C146.118 17.3738 145.244 18.0595 145.244 19.25C145.244 20.4994 146.299 20.8879 148.196 21.6012C150.635 22.8209 153.467 23.3571 153.467 27.5233C153.467 31.1248 150.605 33.0893 146.78 33.0893C144.429 33.0893 142.562 32.6732 141.117 32.0475Z" fill="#231F20"/>
<path d="M272.699 32.8316V14.3557H284.242V16.0309C284.242 17.0088 283.446 17.8057 282.471 17.8057H276.958V21.7792H283.149V24.8632H276.958V29.3835H284.242V32.8316H272.699Z" fill="#231F20"/>
<path d="M230.582 32.8287V14.3537H232.653C233.861 14.3537 234.842 15.3394 234.842 16.5475V29.5016H241.64V32.8287H230.582Z" fill="#231F20"/>
<path d="M204.213 32.8277V14.3635H208.473V32.8277H204.213Z" fill="#231F20"/>
<path d="M216.637 22.8111H219.121C220.016 22.8111 220.696 22.5651 221.148 22.0811C221.591 21.6022 221.815 20.9794 221.815 20.2306C221.815 19.4643 221.596 18.8337 221.162 18.3547C220.722 17.8676 220.035 17.6218 219.121 17.6218H216.637V22.8111ZM225.157 32.8277C223.896 32.8277 222.705 32.1548 222.052 31.0746L218.738 25.5902H216.637V32.8277H212.379V14.3557H219.972C221.92 14.3557 223.449 14.8654 224.509 15.8718C225.569 16.8761 226.104 18.2514 226.104 19.9581C226.104 20.826 225.876 21.7044 225.419 22.5701C224.971 23.419 224.176 24.1155 223.057 24.6379L222.811 24.752L227.981 32.8277H225.157Z" fill="#231F20"/>
<path d="M189.573 26.0988L191.245 21.4289C191.618 20.3782 191.991 19.2706 192.236 18.4532H192.3C192.516 19.2991 192.889 20.3498 193.259 21.4289L194.871 26.0988H189.573ZM194.837 14.3537H189.944L182.992 32.8287H186.062C186.84 32.8287 187.527 32.3309 187.772 31.5911L188.486 29.4229H195.963L197.055 32.8287H201.671L194.837 14.3537Z" fill="#231F20"/>
<path d="M287.662 32.0475V28.507C289.017 29.1307 290.763 29.7564 292.572 29.7564C294.65 29.7564 295.703 29.0412 295.703 27.6728C295.703 26.0653 294.288 25.8873 291.459 24.6674C289.529 23.8047 287.692 22.4638 287.692 19.3688C287.692 15.7683 290.431 14.0724 294.228 14.0724C296.246 14.0724 297.965 14.5476 298.927 14.9047V18.3567C297.965 17.9119 296.246 17.3758 294.53 17.3758C292.663 17.3758 291.791 18.0605 291.791 19.25C291.791 20.5004 292.841 20.8879 294.741 21.6012C297.181 22.8219 300.012 23.3581 300.012 27.5243C300.012 31.1248 297.15 33.0893 293.326 33.0893C290.974 33.0893 289.107 32.6732 287.662 32.0475Z" fill="#231F20"/>
<path d="M252.541 14.3577H255.182C256.436 14.3577 257.599 15.0059 258.263 16.0725L263.404 24.3507C263.984 25.2695 264.66 26.4844 265.057 27.3442H265.148C265.088 26.5149 265.057 25.357 265.057 24.5277V14.3577H268.789V32.8316H264.12L257.866 22.8376C257.285 21.9187 256.672 20.821 256.243 19.9906H256.185C256.212 20.7915 256.275 21.7407 256.275 22.6301V32.8316H252.541V14.3577Z" fill="#231F20"/>
<path d="M244.381 32.8277V14.3635H248.641V32.8277H244.381Z" fill="#231F20"/>
</svg>
